G04 EAGLE Gerber RS-274X export*
G75*
%MOMM*%
%FSLAX34Y34*%
%LPD*%
%IN*%
%IPPOS*%
%AMOC8*
5,1,8,0,0,1.08239X$1,22.5*%
G01*
%ADD10C,0.254000*%


D10*
X0Y0D02*
X911100Y0D01*
X911100Y254760D01*
X901700Y264160D01*
X607060Y264160D01*
X596900Y274320D01*
X596140Y546000D01*
X0Y546000D01*
X0Y0D01*
X31250Y19558D02*
X31181Y18677D01*
X31042Y17804D01*
X30836Y16944D01*
X30563Y16103D01*
X30225Y15286D01*
X29823Y14499D01*
X29361Y13745D01*
X28842Y13030D01*
X28268Y12358D01*
X27642Y11733D01*
X26970Y11158D01*
X26255Y10639D01*
X25501Y10177D01*
X24714Y9776D01*
X23897Y9437D01*
X23056Y9164D01*
X22196Y8958D01*
X21323Y8819D01*
X20442Y8750D01*
X19558Y8750D01*
X18677Y8819D01*
X17804Y8958D01*
X16944Y9164D01*
X16103Y9437D01*
X15286Y9776D01*
X14499Y10177D01*
X13745Y10639D01*
X13030Y11158D01*
X12358Y11733D01*
X11733Y12358D01*
X11158Y13030D01*
X10639Y13745D01*
X10177Y14499D01*
X9776Y15286D01*
X9437Y16103D01*
X9164Y16944D01*
X8958Y17804D01*
X8819Y18677D01*
X8750Y19558D01*
X8750Y20442D01*
X8819Y21323D01*
X8958Y22196D01*
X9164Y23056D01*
X9437Y23897D01*
X9776Y24714D01*
X10177Y25501D01*
X10639Y26255D01*
X11158Y26970D01*
X11733Y27642D01*
X12358Y28268D01*
X13030Y28842D01*
X13745Y29361D01*
X14499Y29823D01*
X15286Y30225D01*
X16103Y30563D01*
X16944Y30836D01*
X17804Y31042D01*
X18677Y31181D01*
X19558Y31250D01*
X20442Y31250D01*
X21323Y31181D01*
X22196Y31042D01*
X23056Y30836D01*
X23897Y30563D01*
X24714Y30225D01*
X25501Y29823D01*
X26255Y29361D01*
X26970Y28842D01*
X27642Y28268D01*
X28268Y27642D01*
X28842Y26970D01*
X29361Y26255D01*
X29823Y25501D01*
X30225Y24714D01*
X30563Y23897D01*
X30836Y23056D01*
X31042Y22196D01*
X31181Y21323D01*
X31250Y20442D01*
X31250Y19558D01*
X333830Y520258D02*
X333761Y519377D01*
X333622Y518504D01*
X333416Y517644D01*
X333143Y516803D01*
X332805Y515986D01*
X332403Y515199D01*
X331941Y514445D01*
X331422Y513730D01*
X330848Y513058D01*
X330222Y512433D01*
X329550Y511858D01*
X328835Y511339D01*
X328081Y510877D01*
X327294Y510476D01*
X326477Y510137D01*
X325636Y509864D01*
X324776Y509658D01*
X323903Y509519D01*
X323022Y509450D01*
X322138Y509450D01*
X321257Y509519D01*
X320384Y509658D01*
X319524Y509864D01*
X318683Y510137D01*
X317866Y510476D01*
X317079Y510877D01*
X316325Y511339D01*
X315610Y511858D01*
X314938Y512433D01*
X314313Y513058D01*
X313738Y513730D01*
X313219Y514445D01*
X312757Y515199D01*
X312356Y515986D01*
X312017Y516803D01*
X311744Y517644D01*
X311538Y518504D01*
X311399Y519377D01*
X311330Y520258D01*
X311330Y521142D01*
X311399Y522023D01*
X311538Y522896D01*
X311744Y523756D01*
X312017Y524597D01*
X312356Y525414D01*
X312757Y526201D01*
X313219Y526955D01*
X313738Y527670D01*
X314313Y528342D01*
X314938Y528968D01*
X315610Y529542D01*
X316325Y530061D01*
X317079Y530523D01*
X317866Y530925D01*
X318683Y531263D01*
X319524Y531536D01*
X320384Y531742D01*
X321257Y531881D01*
X322138Y531950D01*
X323022Y531950D01*
X323903Y531881D01*
X324776Y531742D01*
X325636Y531536D01*
X326477Y531263D01*
X327294Y530925D01*
X328081Y530523D01*
X328835Y530061D01*
X329550Y529542D01*
X330222Y528968D01*
X330848Y528342D01*
X331422Y527670D01*
X331941Y526955D01*
X332403Y526201D01*
X332805Y525414D01*
X333143Y524597D01*
X333416Y523756D01*
X333622Y522896D01*
X333761Y522023D01*
X333830Y521142D01*
X333830Y520258D01*
X900250Y24958D02*
X900181Y24077D01*
X900042Y23204D01*
X899836Y22344D01*
X899563Y21503D01*
X899225Y20686D01*
X898823Y19899D01*
X898361Y19145D01*
X897842Y18430D01*
X897268Y17758D01*
X896642Y17133D01*
X895970Y16558D01*
X895255Y16039D01*
X894501Y15577D01*
X893714Y15176D01*
X892897Y14837D01*
X892056Y14564D01*
X891196Y14358D01*
X890323Y14219D01*
X889442Y14150D01*
X888558Y14150D01*
X887677Y14219D01*
X886804Y14358D01*
X885944Y14564D01*
X885103Y14837D01*
X884286Y15176D01*
X883499Y15577D01*
X882745Y16039D01*
X882030Y16558D01*
X881358Y17133D01*
X880733Y17758D01*
X880158Y18430D01*
X879639Y19145D01*
X879177Y19899D01*
X878776Y20686D01*
X878437Y21503D01*
X878164Y22344D01*
X877958Y23204D01*
X877819Y24077D01*
X877750Y24958D01*
X877750Y25842D01*
X877819Y26723D01*
X877958Y27596D01*
X878164Y28456D01*
X878437Y29297D01*
X878776Y30114D01*
X879177Y30901D01*
X879639Y31655D01*
X880158Y32370D01*
X880733Y33042D01*
X881358Y33668D01*
X882030Y34242D01*
X882745Y34761D01*
X883499Y35223D01*
X884286Y35625D01*
X885103Y35963D01*
X885944Y36236D01*
X886804Y36442D01*
X887677Y36581D01*
X888558Y36650D01*
X889442Y36650D01*
X890323Y36581D01*
X891196Y36442D01*
X892056Y36236D01*
X892897Y35963D01*
X893714Y35625D01*
X894501Y35223D01*
X895255Y34761D01*
X895970Y34242D01*
X896642Y33668D01*
X897268Y33042D01*
X897842Y32370D01*
X898361Y31655D01*
X898823Y30901D01*
X899225Y30114D01*
X899563Y29297D01*
X899836Y28456D01*
X900042Y27596D01*
X900181Y26723D01*
X900250Y25842D01*
X900250Y24958D01*
X900250Y240858D02*
X900181Y239977D01*
X900042Y239104D01*
X899836Y238244D01*
X899563Y237403D01*
X899225Y236586D01*
X898823Y235799D01*
X898361Y235045D01*
X897842Y234330D01*
X897268Y233658D01*
X896642Y233033D01*
X895970Y232458D01*
X895255Y231939D01*
X894501Y231477D01*
X893714Y231076D01*
X892897Y230737D01*
X892056Y230464D01*
X891196Y230258D01*
X890323Y230119D01*
X889442Y230050D01*
X888558Y230050D01*
X887677Y230119D01*
X886804Y230258D01*
X885944Y230464D01*
X885103Y230737D01*
X884286Y231076D01*
X883499Y231477D01*
X882745Y231939D01*
X882030Y232458D01*
X881358Y233033D01*
X880733Y233658D01*
X880158Y234330D01*
X879639Y235045D01*
X879177Y235799D01*
X878776Y236586D01*
X878437Y237403D01*
X878164Y238244D01*
X877958Y239104D01*
X877819Y239977D01*
X877750Y240858D01*
X877750Y241742D01*
X877819Y242623D01*
X877958Y243496D01*
X878164Y244356D01*
X878437Y245197D01*
X878776Y246014D01*
X879177Y246801D01*
X879639Y247555D01*
X880158Y248270D01*
X880733Y248942D01*
X881358Y249568D01*
X882030Y250142D01*
X882745Y250661D01*
X883499Y251123D01*
X884286Y251525D01*
X885103Y251863D01*
X885944Y252136D01*
X886804Y252342D01*
X887677Y252481D01*
X888558Y252550D01*
X889442Y252550D01*
X890323Y252481D01*
X891196Y252342D01*
X892056Y252136D01*
X892897Y251863D01*
X893714Y251525D01*
X894501Y251123D01*
X895255Y250661D01*
X895970Y250142D01*
X896642Y249568D01*
X897268Y248942D01*
X897842Y248270D01*
X898361Y247555D01*
X898823Y246801D01*
X899225Y246014D01*
X899563Y245197D01*
X899836Y244356D01*
X900042Y243496D01*
X900181Y242623D01*
X900250Y241742D01*
X900250Y240858D01*
M02*
