G04 EAGLE Gerber RS-274X export*
G75*
%MOMM*%
%FSLAX34Y34*%
%LPD*%
%INTop Copper*%
%IPPOS*%
%AMOC8*
5,1,8,0,0,1.08239X$1,22.5*%
G01*
%ADD10C,1.600200*%
%ADD11P,1.732040X8X292.500000*%
%ADD12R,1.508000X1.508000*%
%ADD13C,1.508000*%
%ADD14P,1.814519X8X22.500000*%
%ADD15P,1.814519X8X202.500000*%
%ADD16C,1.524000*%
%ADD17R,1.560000X1.560000*%
%ADD18C,1.560000*%
%ADD19C,1.270000*%
%ADD20C,0.812800*%
%ADD21C,1.778000*%
%ADD22C,0.609600*%

G36*
X538500Y10164D02*
X538500Y10164D01*
X538519Y10162D01*
X538621Y10184D01*
X538723Y10200D01*
X538740Y10210D01*
X538760Y10214D01*
X538849Y10267D01*
X538940Y10316D01*
X538954Y10330D01*
X538971Y10340D01*
X539038Y10419D01*
X539110Y10494D01*
X539118Y10512D01*
X539131Y10527D01*
X539170Y10623D01*
X539213Y10717D01*
X539215Y10737D01*
X539223Y10755D01*
X539241Y10922D01*
X539241Y535078D01*
X539238Y535098D01*
X539240Y535117D01*
X539218Y535219D01*
X539202Y535321D01*
X539192Y535338D01*
X539188Y535358D01*
X539135Y535447D01*
X539086Y535538D01*
X539072Y535552D01*
X539062Y535569D01*
X538983Y535636D01*
X538908Y535708D01*
X538890Y535716D01*
X538875Y535729D01*
X538779Y535768D01*
X538685Y535811D01*
X538665Y535813D01*
X538647Y535821D01*
X538480Y535839D01*
X10922Y535839D01*
X10902Y535836D01*
X10883Y535838D01*
X10781Y535816D01*
X10679Y535800D01*
X10662Y535790D01*
X10642Y535786D01*
X10553Y535733D01*
X10462Y535684D01*
X10448Y535670D01*
X10431Y535660D01*
X10364Y535581D01*
X10292Y535506D01*
X10284Y535488D01*
X10271Y535473D01*
X10232Y535377D01*
X10189Y535283D01*
X10187Y535263D01*
X10179Y535245D01*
X10161Y535078D01*
X10161Y40239D01*
X10168Y40193D01*
X10166Y40147D01*
X10188Y40072D01*
X10200Y39996D01*
X10222Y39955D01*
X10235Y39911D01*
X10279Y39847D01*
X10316Y39778D01*
X10349Y39747D01*
X10375Y39709D01*
X10438Y39663D01*
X10494Y39609D01*
X10536Y39590D01*
X10572Y39562D01*
X10646Y39538D01*
X10717Y39505D01*
X10763Y39500D01*
X10806Y39486D01*
X10884Y39487D01*
X10961Y39478D01*
X11006Y39488D01*
X11052Y39488D01*
X11184Y39527D01*
X11202Y39531D01*
X11206Y39533D01*
X11213Y39535D01*
X15741Y41411D01*
X24259Y41411D01*
X32128Y38151D01*
X38151Y32128D01*
X41411Y24259D01*
X41411Y15741D01*
X39535Y11213D01*
X39525Y11169D01*
X39505Y11127D01*
X39497Y11050D01*
X39479Y10974D01*
X39483Y10928D01*
X39478Y10883D01*
X39495Y10806D01*
X39502Y10729D01*
X39521Y10687D01*
X39531Y10642D01*
X39571Y10575D01*
X39602Y10504D01*
X39633Y10470D01*
X39657Y10431D01*
X39716Y10380D01*
X39769Y10323D01*
X39809Y10301D01*
X39844Y10271D01*
X39916Y10242D01*
X39984Y10205D01*
X40029Y10196D01*
X40072Y10179D01*
X40208Y10164D01*
X40226Y10161D01*
X40231Y10162D01*
X40239Y10161D01*
X538480Y10161D01*
X538500Y10164D01*
G37*
%LPC*%
G36*
X270968Y47075D02*
X270968Y47075D01*
X270075Y47968D01*
X270075Y64094D01*
X270072Y64114D01*
X270074Y64133D01*
X270052Y64235D01*
X270036Y64337D01*
X270026Y64354D01*
X270022Y64374D01*
X269969Y64463D01*
X269920Y64554D01*
X269906Y64568D01*
X269896Y64585D01*
X269817Y64652D01*
X269742Y64724D01*
X269724Y64732D01*
X269709Y64745D01*
X269613Y64784D01*
X269519Y64827D01*
X269499Y64829D01*
X269481Y64837D01*
X269314Y64855D01*
X126702Y64855D01*
X89153Y102404D01*
X89079Y102457D01*
X89009Y102517D01*
X88979Y102529D01*
X88953Y102548D01*
X88866Y102575D01*
X88781Y102609D01*
X88740Y102613D01*
X88718Y102620D01*
X88686Y102619D01*
X88614Y102627D01*
X34108Y102627D01*
X33993Y102608D01*
X33877Y102591D01*
X33871Y102589D01*
X33865Y102588D01*
X33763Y102533D01*
X33657Y102480D01*
X33653Y102475D01*
X33647Y102472D01*
X33567Y102388D01*
X33485Y102304D01*
X33482Y102298D01*
X33478Y102294D01*
X33470Y102277D01*
X33404Y102157D01*
X33305Y101918D01*
X30682Y99295D01*
X27255Y97875D01*
X23545Y97875D01*
X20118Y99295D01*
X17495Y101918D01*
X16075Y105345D01*
X16075Y109055D01*
X17495Y112482D01*
X20118Y115105D01*
X23545Y116525D01*
X27255Y116525D01*
X30682Y115105D01*
X33305Y112482D01*
X33404Y112243D01*
X33466Y112143D01*
X33526Y112043D01*
X33531Y112039D01*
X33534Y112034D01*
X33624Y111959D01*
X33713Y111883D01*
X33719Y111881D01*
X33723Y111877D01*
X33832Y111835D01*
X33941Y111791D01*
X33948Y111790D01*
X33953Y111789D01*
X33971Y111788D01*
X34108Y111773D01*
X88723Y111773D01*
X88793Y111784D01*
X88865Y111786D01*
X88914Y111804D01*
X88965Y111812D01*
X89029Y111846D01*
X89096Y111871D01*
X89137Y111903D01*
X89183Y111928D01*
X89232Y111980D01*
X89288Y112024D01*
X89316Y112068D01*
X89352Y112106D01*
X89382Y112171D01*
X89421Y112231D01*
X89434Y112282D01*
X89456Y112329D01*
X89464Y112400D01*
X89481Y112470D01*
X89477Y112522D01*
X89483Y112573D01*
X89468Y112644D01*
X89462Y112715D01*
X89442Y112763D01*
X89431Y112814D01*
X89394Y112875D01*
X89366Y112941D01*
X89321Y112997D01*
X89304Y113025D01*
X89287Y113040D01*
X89261Y113072D01*
X28324Y174009D01*
X28229Y174077D01*
X28135Y174147D01*
X28129Y174149D01*
X28124Y174153D01*
X28013Y174187D01*
X27901Y174224D01*
X27895Y174223D01*
X27889Y174225D01*
X27772Y174222D01*
X27655Y174221D01*
X27648Y174219D01*
X27643Y174219D01*
X27626Y174213D01*
X27494Y174174D01*
X27255Y174075D01*
X23545Y174075D01*
X20118Y175495D01*
X17495Y178118D01*
X16075Y181545D01*
X16075Y185255D01*
X17495Y188682D01*
X20118Y191305D01*
X23545Y192725D01*
X27255Y192725D01*
X30682Y191305D01*
X33305Y188682D01*
X34725Y185255D01*
X34725Y181545D01*
X34626Y181306D01*
X34599Y181192D01*
X34570Y181079D01*
X34571Y181072D01*
X34569Y181066D01*
X34580Y180950D01*
X34589Y180834D01*
X34592Y180828D01*
X34593Y180821D01*
X34640Y180714D01*
X34686Y180607D01*
X34690Y180601D01*
X34693Y180597D01*
X34705Y180583D01*
X34791Y180476D01*
X115643Y99624D01*
X115717Y99571D01*
X115787Y99511D01*
X115817Y99499D01*
X115843Y99480D01*
X115930Y99453D01*
X116015Y99419D01*
X116056Y99415D01*
X116078Y99408D01*
X116110Y99409D01*
X116181Y99401D01*
X272174Y99401D01*
X272245Y99412D01*
X272317Y99414D01*
X272366Y99432D01*
X272417Y99440D01*
X272480Y99474D01*
X272548Y99499D01*
X272588Y99531D01*
X272634Y99556D01*
X272684Y99608D01*
X272740Y99652D01*
X272768Y99696D01*
X272804Y99734D01*
X272834Y99799D01*
X272873Y99859D01*
X272885Y99910D01*
X272907Y99957D01*
X272915Y100028D01*
X272933Y100098D01*
X272929Y100150D01*
X272935Y100201D01*
X272919Y100272D01*
X272914Y100343D01*
X272893Y100391D01*
X272882Y100442D01*
X272845Y100503D01*
X272817Y100569D01*
X272773Y100625D01*
X272756Y100653D01*
X272738Y100668D01*
X272713Y100700D01*
X271495Y101918D01*
X270075Y105345D01*
X270075Y109055D01*
X271495Y112482D01*
X274118Y115105D01*
X277545Y116525D01*
X281255Y116525D01*
X284682Y115105D01*
X287305Y112482D01*
X288725Y109055D01*
X288725Y106934D01*
X288728Y106914D01*
X288726Y106895D01*
X288748Y106793D01*
X288764Y106691D01*
X288774Y106674D01*
X288778Y106654D01*
X288831Y106565D01*
X288880Y106474D01*
X288894Y106460D01*
X288904Y106443D01*
X288983Y106376D01*
X289058Y106304D01*
X289076Y106296D01*
X289091Y106283D01*
X289187Y106244D01*
X289281Y106201D01*
X289301Y106199D01*
X289319Y106191D01*
X289486Y106173D01*
X378791Y106173D01*
X378881Y106187D01*
X378972Y106195D01*
X379001Y106207D01*
X379033Y106212D01*
X379114Y106255D01*
X379198Y106291D01*
X379230Y106317D01*
X379251Y106328D01*
X379273Y106351D01*
X379329Y106396D01*
X386002Y113069D01*
X386014Y113085D01*
X386029Y113098D01*
X386085Y113185D01*
X386146Y113269D01*
X386151Y113288D01*
X386162Y113304D01*
X386188Y113405D01*
X386218Y113504D01*
X386217Y113524D01*
X386222Y113543D01*
X386214Y113646D01*
X386212Y113750D01*
X386205Y113768D01*
X386203Y113788D01*
X386163Y113883D01*
X386127Y113981D01*
X386115Y113996D01*
X386107Y114014D01*
X386002Y114145D01*
X385947Y114200D01*
X384555Y117561D01*
X384555Y136439D01*
X385947Y139800D01*
X388520Y142373D01*
X391881Y143765D01*
X395519Y143765D01*
X398880Y142373D01*
X401453Y139800D01*
X402845Y136439D01*
X402845Y119049D01*
X402856Y118979D01*
X402858Y118907D01*
X402876Y118858D01*
X402884Y118807D01*
X402918Y118743D01*
X402943Y118676D01*
X402975Y118635D01*
X403000Y118589D01*
X403051Y118540D01*
X403096Y118484D01*
X403140Y118456D01*
X403178Y118420D01*
X403243Y118390D01*
X403303Y118351D01*
X403354Y118338D01*
X403401Y118316D01*
X403472Y118308D01*
X403542Y118291D01*
X403594Y118295D01*
X403645Y118289D01*
X403716Y118304D01*
X403787Y118310D01*
X403835Y118330D01*
X403886Y118341D01*
X403947Y118378D01*
X404013Y118406D01*
X404069Y118451D01*
X404097Y118468D01*
X404112Y118485D01*
X404144Y118511D01*
X409732Y124099D01*
X409785Y124173D01*
X409845Y124243D01*
X409857Y124273D01*
X409876Y124299D01*
X409903Y124386D01*
X409937Y124471D01*
X409941Y124512D01*
X409948Y124534D01*
X409947Y124566D01*
X409955Y124637D01*
X409955Y136439D01*
X411347Y139800D01*
X413920Y142373D01*
X417281Y143765D01*
X420919Y143765D01*
X424280Y142373D01*
X426853Y139800D01*
X428245Y136439D01*
X428245Y117561D01*
X426853Y114200D01*
X424280Y111627D01*
X420919Y110235D01*
X417281Y110235D01*
X413920Y111627D01*
X412595Y112952D01*
X412579Y112964D01*
X412567Y112979D01*
X412480Y113035D01*
X412396Y113096D01*
X412377Y113101D01*
X412360Y113112D01*
X412259Y113137D01*
X412161Y113168D01*
X412141Y113167D01*
X412121Y113172D01*
X412018Y113164D01*
X411915Y113162D01*
X411896Y113155D01*
X411876Y113153D01*
X411781Y113113D01*
X411684Y113077D01*
X411668Y113065D01*
X411650Y113057D01*
X411519Y112952D01*
X385796Y87229D01*
X382894Y84327D01*
X306206Y84327D01*
X306116Y84313D01*
X306025Y84305D01*
X305995Y84293D01*
X305963Y84288D01*
X305883Y84245D01*
X305799Y84209D01*
X305767Y84183D01*
X305746Y84172D01*
X305724Y84149D01*
X305668Y84104D01*
X289320Y67757D01*
X288098Y66535D01*
X288087Y66519D01*
X288071Y66506D01*
X288015Y66419D01*
X287955Y66335D01*
X287949Y66316D01*
X287938Y66299D01*
X287913Y66199D01*
X287882Y66100D01*
X287883Y66080D01*
X287878Y66061D01*
X287886Y65958D01*
X287889Y65854D01*
X287896Y65835D01*
X287897Y65815D01*
X287937Y65720D01*
X287973Y65623D01*
X287986Y65607D01*
X287993Y65589D01*
X288098Y65458D01*
X288725Y64832D01*
X288725Y47968D01*
X287832Y47075D01*
X270968Y47075D01*
G37*
%LPD*%
%LPC*%
G36*
X366481Y110235D02*
X366481Y110235D01*
X363120Y111627D01*
X360547Y114200D01*
X359155Y117561D01*
X359155Y136439D01*
X360547Y139800D01*
X362488Y141741D01*
X362541Y141815D01*
X362601Y141884D01*
X362613Y141914D01*
X362632Y141941D01*
X362659Y142028D01*
X362693Y142112D01*
X362697Y142153D01*
X362704Y142176D01*
X362703Y142208D01*
X362711Y142279D01*
X362711Y225970D01*
X362697Y226060D01*
X362689Y226151D01*
X362677Y226181D01*
X362672Y226212D01*
X362629Y226293D01*
X362593Y226377D01*
X362567Y226409D01*
X362556Y226430D01*
X362533Y226452D01*
X362488Y226508D01*
X344745Y244251D01*
X344671Y244304D01*
X344602Y244364D01*
X344571Y244376D01*
X344545Y244395D01*
X344458Y244422D01*
X344373Y244456D01*
X344333Y244460D01*
X344310Y244467D01*
X344278Y244466D01*
X344207Y244474D01*
X341005Y244474D01*
X337504Y245924D01*
X334824Y248604D01*
X333366Y252126D01*
X333360Y252164D01*
X333352Y252255D01*
X333340Y252285D01*
X333335Y252317D01*
X333292Y252397D01*
X333256Y252481D01*
X333230Y252513D01*
X333219Y252534D01*
X333196Y252556D01*
X333151Y252612D01*
X310824Y274939D01*
X309625Y277834D01*
X309625Y471923D01*
X309611Y472013D01*
X309603Y472104D01*
X309591Y472134D01*
X309586Y472166D01*
X309543Y472246D01*
X309507Y472330D01*
X309481Y472362D01*
X309470Y472383D01*
X309447Y472405D01*
X309402Y472461D01*
X289250Y492613D01*
X289171Y492670D01*
X289096Y492732D01*
X289072Y492742D01*
X289050Y492757D01*
X288957Y492785D01*
X288866Y492820D01*
X288840Y492821D01*
X288815Y492829D01*
X288718Y492827D01*
X288621Y492831D01*
X288596Y492823D01*
X288569Y492823D01*
X288478Y492789D01*
X288384Y492762D01*
X288363Y492747D01*
X288338Y492738D01*
X288262Y492677D01*
X288182Y492622D01*
X288167Y492601D01*
X288146Y492585D01*
X288094Y492503D01*
X288036Y492425D01*
X288028Y492400D01*
X288013Y492378D01*
X287990Y492283D01*
X287959Y492191D01*
X287960Y492165D01*
X287953Y492139D01*
X287961Y492042D01*
X287962Y491945D01*
X287971Y491913D01*
X287972Y491894D01*
X287985Y491864D01*
X288009Y491784D01*
X288725Y490055D01*
X288725Y486345D01*
X287305Y482918D01*
X284682Y480295D01*
X281255Y478875D01*
X277545Y478875D01*
X274118Y480295D01*
X271495Y482918D01*
X270075Y486345D01*
X270075Y490055D01*
X271495Y493482D01*
X274118Y496105D01*
X277545Y497525D01*
X281255Y497525D01*
X282984Y496809D01*
X283079Y496786D01*
X283172Y496758D01*
X283198Y496758D01*
X283223Y496752D01*
X283320Y496762D01*
X283417Y496764D01*
X283442Y496773D01*
X283468Y496776D01*
X283557Y496815D01*
X283648Y496849D01*
X283669Y496865D01*
X283693Y496876D01*
X283764Y496941D01*
X283840Y497002D01*
X283855Y497024D01*
X283874Y497042D01*
X283921Y497127D01*
X283973Y497209D01*
X283980Y497234D01*
X283992Y497257D01*
X284010Y497353D01*
X284034Y497448D01*
X284031Y497474D01*
X284036Y497499D01*
X284022Y497596D01*
X284014Y497693D01*
X284004Y497717D01*
X284000Y497743D01*
X283956Y497830D01*
X283918Y497919D01*
X283898Y497945D01*
X283889Y497962D01*
X283865Y497985D01*
X283813Y498050D01*
X277726Y504138D01*
X277673Y504176D01*
X277626Y504222D01*
X277553Y504262D01*
X277526Y504281D01*
X277507Y504287D01*
X277479Y504303D01*
X274118Y505695D01*
X271495Y508318D01*
X270075Y511745D01*
X270075Y515455D01*
X271495Y518882D01*
X274118Y521505D01*
X277545Y522925D01*
X281255Y522925D01*
X284682Y521505D01*
X287305Y518882D01*
X288697Y515521D01*
X288732Y515465D01*
X288757Y515405D01*
X288809Y515340D01*
X288827Y515312D01*
X288842Y515300D01*
X288862Y515274D01*
X321854Y482283D01*
X324176Y479961D01*
X325375Y477066D01*
X325375Y282977D01*
X325389Y282887D01*
X325397Y282796D01*
X325409Y282766D01*
X325414Y282734D01*
X325457Y282654D01*
X325493Y282570D01*
X325519Y282538D01*
X325530Y282517D01*
X325553Y282495D01*
X325598Y282439D01*
X344288Y263749D01*
X344362Y263696D01*
X344431Y263636D01*
X344461Y263624D01*
X344488Y263605D01*
X344575Y263578D01*
X344659Y263544D01*
X344700Y263540D01*
X344723Y263533D01*
X344755Y263534D01*
X344783Y263530D01*
X348316Y262067D01*
X348348Y262045D01*
X348417Y261985D01*
X348447Y261973D01*
X348473Y261954D01*
X348560Y261927D01*
X348645Y261893D01*
X348686Y261889D01*
X348709Y261882D01*
X348741Y261883D01*
X348812Y261875D01*
X439566Y261875D01*
X442461Y260676D01*
X502855Y200282D01*
X502908Y200244D01*
X502955Y200198D01*
X503028Y200157D01*
X503054Y200138D01*
X503073Y200133D01*
X503102Y200117D01*
X505835Y198985D01*
X508385Y196435D01*
X509765Y193103D01*
X509765Y189497D01*
X508385Y186165D01*
X505835Y183615D01*
X502503Y182235D01*
X498897Y182235D01*
X495565Y183615D01*
X493015Y186165D01*
X491883Y188898D01*
X491849Y188954D01*
X491823Y189014D01*
X491771Y189079D01*
X491754Y189107D01*
X491739Y189120D01*
X491718Y189145D01*
X434961Y245902D01*
X434887Y245955D01*
X434818Y246015D01*
X434788Y246027D01*
X434761Y246046D01*
X434674Y246073D01*
X434590Y246107D01*
X434549Y246111D01*
X434526Y246118D01*
X434494Y246117D01*
X434423Y246125D01*
X360516Y246125D01*
X360445Y246114D01*
X360374Y246112D01*
X360325Y246094D01*
X360273Y246086D01*
X360210Y246052D01*
X360143Y246027D01*
X360102Y245995D01*
X360056Y245970D01*
X360007Y245918D01*
X359951Y245874D01*
X359923Y245830D01*
X359887Y245792D01*
X359857Y245727D01*
X359818Y245667D01*
X359805Y245616D01*
X359783Y245569D01*
X359775Y245498D01*
X359758Y245428D01*
X359762Y245376D01*
X359756Y245325D01*
X359771Y245254D01*
X359777Y245183D01*
X359797Y245135D01*
X359808Y245084D01*
X359845Y245023D01*
X359873Y244957D01*
X359918Y244901D01*
X359934Y244873D01*
X359952Y244858D01*
X359978Y244826D01*
X371359Y233445D01*
X373038Y231766D01*
X373889Y229712D01*
X373889Y142279D01*
X373903Y142189D01*
X373911Y142098D01*
X373923Y142068D01*
X373928Y142036D01*
X373971Y141956D01*
X374007Y141872D01*
X374033Y141840D01*
X374044Y141819D01*
X374067Y141797D01*
X374112Y141741D01*
X376053Y139800D01*
X377445Y136439D01*
X377445Y117561D01*
X376053Y114200D01*
X373480Y111627D01*
X370119Y110235D01*
X366481Y110235D01*
G37*
%LPD*%
%LPC*%
G36*
X341005Y409574D02*
X341005Y409574D01*
X337504Y411024D01*
X334824Y413704D01*
X333374Y417205D01*
X333374Y420995D01*
X334824Y424496D01*
X337504Y427176D01*
X341005Y428626D01*
X344795Y428626D01*
X345148Y428479D01*
X345261Y428453D01*
X345375Y428424D01*
X345381Y428425D01*
X345387Y428423D01*
X345504Y428434D01*
X345620Y428443D01*
X345626Y428446D01*
X345632Y428446D01*
X345740Y428494D01*
X345847Y428540D01*
X345852Y428544D01*
X345857Y428546D01*
X345871Y428559D01*
X345978Y428644D01*
X350804Y433471D01*
X350857Y433545D01*
X350917Y433615D01*
X350929Y433645D01*
X350948Y433671D01*
X350975Y433758D01*
X351009Y433843D01*
X351013Y433884D01*
X351020Y433906D01*
X351019Y433938D01*
X351027Y434009D01*
X351027Y447447D01*
X351013Y447537D01*
X351005Y447628D01*
X350993Y447658D01*
X350988Y447690D01*
X350945Y447771D01*
X350909Y447855D01*
X350883Y447887D01*
X350872Y447907D01*
X350849Y447930D01*
X350804Y447985D01*
X345693Y453096D01*
X345693Y461304D01*
X350804Y466415D01*
X350853Y466482D01*
X350853Y466483D01*
X350854Y466483D01*
X350857Y466489D01*
X350917Y466558D01*
X350929Y466588D01*
X350948Y466614D01*
X350975Y466701D01*
X351009Y466786D01*
X351013Y466827D01*
X351020Y466849D01*
X351019Y466882D01*
X351027Y466953D01*
X351027Y472847D01*
X351013Y472937D01*
X351005Y473028D01*
X350993Y473058D01*
X350988Y473090D01*
X350945Y473171D01*
X350909Y473255D01*
X350883Y473287D01*
X350872Y473307D01*
X350849Y473330D01*
X350804Y473385D01*
X345693Y478496D01*
X345693Y486704D01*
X350804Y491815D01*
X350857Y491889D01*
X350917Y491958D01*
X350929Y491988D01*
X350948Y492014D01*
X350975Y492101D01*
X351009Y492186D01*
X351013Y492227D01*
X351020Y492249D01*
X351019Y492282D01*
X351027Y492353D01*
X351027Y498247D01*
X351013Y498337D01*
X351005Y498428D01*
X350993Y498458D01*
X350988Y498490D01*
X350945Y498571D01*
X350909Y498654D01*
X350883Y498687D01*
X350872Y498707D01*
X350849Y498729D01*
X350804Y498785D01*
X345693Y503896D01*
X345693Y512104D01*
X351496Y517907D01*
X358725Y517907D01*
X358815Y517921D01*
X358906Y517929D01*
X358935Y517941D01*
X358967Y517946D01*
X359048Y517989D01*
X359132Y518025D01*
X359164Y518051D01*
X359185Y518062D01*
X359192Y518069D01*
X359209Y518086D01*
X359263Y518130D01*
X371486Y530353D01*
X484494Y530353D01*
X497479Y517368D01*
X497553Y517315D01*
X497623Y517255D01*
X497653Y517243D01*
X497679Y517224D01*
X497766Y517197D01*
X497851Y517163D01*
X497892Y517159D01*
X497914Y517152D01*
X497946Y517153D01*
X498017Y517145D01*
X504739Y517145D01*
X508100Y515753D01*
X510673Y513180D01*
X512065Y509819D01*
X512065Y506181D01*
X510673Y502820D01*
X508100Y500247D01*
X504739Y498855D01*
X485861Y498855D01*
X482500Y500247D01*
X479927Y502820D01*
X478535Y506181D01*
X478535Y509819D01*
X479927Y513180D01*
X482500Y515753D01*
X484036Y516389D01*
X484075Y516413D01*
X484118Y516429D01*
X484179Y516477D01*
X484245Y516518D01*
X484274Y516554D01*
X484310Y516582D01*
X484352Y516648D01*
X484402Y516708D01*
X484418Y516751D01*
X484443Y516789D01*
X484462Y516865D01*
X484490Y516937D01*
X484492Y516983D01*
X484503Y517028D01*
X484497Y517105D01*
X484500Y517183D01*
X484488Y517227D01*
X484484Y517273D01*
X484454Y517345D01*
X484432Y517419D01*
X484406Y517457D01*
X484388Y517499D01*
X484302Y517606D01*
X484292Y517621D01*
X484288Y517624D01*
X484283Y517630D01*
X480929Y520984D01*
X480855Y521037D01*
X480785Y521097D01*
X480755Y521109D01*
X480729Y521128D01*
X480642Y521155D01*
X480557Y521189D01*
X480516Y521193D01*
X480494Y521200D01*
X480462Y521199D01*
X480391Y521207D01*
X375589Y521207D01*
X375499Y521193D01*
X375408Y521185D01*
X375379Y521173D01*
X375347Y521168D01*
X375266Y521125D01*
X375182Y521089D01*
X375150Y521063D01*
X375129Y521052D01*
X375107Y521029D01*
X375051Y520984D01*
X365730Y511663D01*
X365677Y511589D01*
X365617Y511519D01*
X365605Y511489D01*
X365586Y511463D01*
X365559Y511376D01*
X365525Y511291D01*
X365521Y511250D01*
X365514Y511228D01*
X365515Y511196D01*
X365507Y511125D01*
X365507Y503896D01*
X360396Y498785D01*
X360343Y498712D01*
X360283Y498642D01*
X360271Y498612D01*
X360252Y498586D01*
X360225Y498499D01*
X360191Y498414D01*
X360187Y498373D01*
X360180Y498351D01*
X360181Y498318D01*
X360173Y498247D01*
X360173Y492353D01*
X360187Y492263D01*
X360195Y492172D01*
X360207Y492142D01*
X360212Y492110D01*
X360255Y492029D01*
X360291Y491945D01*
X360317Y491913D01*
X360328Y491893D01*
X360351Y491870D01*
X360396Y491815D01*
X365507Y486704D01*
X365507Y478496D01*
X360396Y473385D01*
X360343Y473311D01*
X360283Y473242D01*
X360271Y473212D01*
X360252Y473186D01*
X360225Y473099D01*
X360191Y473014D01*
X360187Y472973D01*
X360180Y472951D01*
X360181Y472918D01*
X360173Y472847D01*
X360173Y466953D01*
X360187Y466863D01*
X360195Y466772D01*
X360207Y466742D01*
X360212Y466710D01*
X360255Y466629D01*
X360291Y466545D01*
X360317Y466513D01*
X360328Y466493D01*
X360351Y466470D01*
X360396Y466415D01*
X365507Y461304D01*
X365507Y453096D01*
X360396Y447985D01*
X360343Y447911D01*
X360283Y447842D01*
X360271Y447812D01*
X360252Y447786D01*
X360225Y447699D01*
X360191Y447614D01*
X360187Y447573D01*
X360180Y447551D01*
X360181Y447518D01*
X360173Y447447D01*
X360173Y429906D01*
X352444Y422178D01*
X352376Y422083D01*
X352306Y421989D01*
X352305Y421983D01*
X352301Y421978D01*
X352267Y421866D01*
X352230Y421755D01*
X352230Y421749D01*
X352229Y421743D01*
X352232Y421626D01*
X352233Y421509D01*
X352235Y421502D01*
X352235Y421497D01*
X352241Y421480D01*
X352279Y421348D01*
X352426Y420995D01*
X352426Y417205D01*
X350976Y413704D01*
X348296Y411024D01*
X344795Y409574D01*
X341005Y409574D01*
G37*
%LPD*%
%LPC*%
G36*
X351496Y282193D02*
X351496Y282193D01*
X345693Y287996D01*
X345693Y296204D01*
X350804Y301315D01*
X350857Y301389D01*
X350917Y301458D01*
X350929Y301488D01*
X350948Y301514D01*
X350975Y301601D01*
X351009Y301686D01*
X351013Y301727D01*
X351020Y301749D01*
X351019Y301782D01*
X351027Y301853D01*
X351027Y307747D01*
X351013Y307837D01*
X351005Y307928D01*
X350993Y307958D01*
X350988Y307990D01*
X350945Y308071D01*
X350909Y308155D01*
X350883Y308187D01*
X350872Y308207D01*
X350849Y308230D01*
X350804Y308285D01*
X345693Y313396D01*
X345693Y321604D01*
X350804Y326715D01*
X350857Y326789D01*
X350917Y326858D01*
X350929Y326888D01*
X350948Y326914D01*
X350975Y327001D01*
X351009Y327086D01*
X351013Y327127D01*
X351020Y327149D01*
X351019Y327182D01*
X351027Y327253D01*
X351027Y333147D01*
X351013Y333237D01*
X351005Y333328D01*
X350993Y333358D01*
X350988Y333390D01*
X350945Y333471D01*
X350909Y333555D01*
X350883Y333587D01*
X350872Y333607D01*
X350849Y333630D01*
X350804Y333685D01*
X345693Y338796D01*
X345693Y347004D01*
X351496Y352807D01*
X358725Y352807D01*
X358815Y352821D01*
X358906Y352829D01*
X358935Y352841D01*
X358967Y352846D01*
X359048Y352889D01*
X359132Y352925D01*
X359164Y352951D01*
X359185Y352962D01*
X359207Y352985D01*
X359263Y353030D01*
X371486Y365253D01*
X481954Y365253D01*
X494939Y352268D01*
X495013Y352215D01*
X495083Y352155D01*
X495113Y352143D01*
X495139Y352124D01*
X495226Y352097D01*
X495311Y352063D01*
X495352Y352059D01*
X495374Y352052D01*
X495406Y352053D01*
X495477Y352045D01*
X504739Y352045D01*
X508100Y350653D01*
X510673Y348080D01*
X512065Y344719D01*
X512065Y341081D01*
X510673Y337720D01*
X508100Y335147D01*
X504739Y333755D01*
X485861Y333755D01*
X482500Y335147D01*
X479927Y337720D01*
X478535Y341081D01*
X478535Y344719D01*
X479927Y348080D01*
X482522Y350675D01*
X482534Y350691D01*
X482549Y350703D01*
X482579Y350749D01*
X482601Y350773D01*
X482617Y350806D01*
X482666Y350874D01*
X482671Y350893D01*
X482682Y350910D01*
X482703Y350991D01*
X482705Y350996D01*
X482705Y351002D01*
X482707Y351011D01*
X482738Y351109D01*
X482737Y351129D01*
X482742Y351149D01*
X482734Y351252D01*
X482732Y351355D01*
X482725Y351374D01*
X482723Y351394D01*
X482683Y351489D01*
X482647Y351586D01*
X482635Y351602D01*
X482627Y351620D01*
X482522Y351751D01*
X478389Y355884D01*
X478315Y355937D01*
X478245Y355997D01*
X478215Y356009D01*
X478189Y356028D01*
X478102Y356055D01*
X478017Y356089D01*
X477976Y356093D01*
X477954Y356100D01*
X477922Y356099D01*
X477851Y356107D01*
X375589Y356107D01*
X375499Y356093D01*
X375408Y356085D01*
X375379Y356073D01*
X375347Y356068D01*
X375266Y356025D01*
X375182Y355989D01*
X375150Y355963D01*
X375129Y355952D01*
X375107Y355929D01*
X375051Y355884D01*
X365730Y346563D01*
X365677Y346489D01*
X365617Y346419D01*
X365605Y346389D01*
X365586Y346363D01*
X365559Y346276D01*
X365525Y346191D01*
X365521Y346150D01*
X365514Y346128D01*
X365515Y346096D01*
X365507Y346025D01*
X365507Y338796D01*
X360396Y333685D01*
X360343Y333611D01*
X360283Y333542D01*
X360271Y333512D01*
X360252Y333486D01*
X360225Y333399D01*
X360191Y333314D01*
X360187Y333273D01*
X360180Y333251D01*
X360181Y333218D01*
X360173Y333147D01*
X360173Y327253D01*
X360187Y327163D01*
X360195Y327072D01*
X360207Y327042D01*
X360212Y327010D01*
X360255Y326929D01*
X360291Y326845D01*
X360317Y326813D01*
X360328Y326793D01*
X360351Y326770D01*
X360396Y326715D01*
X365507Y321604D01*
X365507Y313396D01*
X360396Y308285D01*
X360343Y308211D01*
X360283Y308142D01*
X360271Y308112D01*
X360252Y308086D01*
X360225Y307999D01*
X360191Y307914D01*
X360187Y307873D01*
X360180Y307851D01*
X360181Y307818D01*
X360173Y307747D01*
X360173Y301853D01*
X360187Y301763D01*
X360195Y301672D01*
X360207Y301642D01*
X360212Y301610D01*
X360255Y301529D01*
X360291Y301445D01*
X360317Y301413D01*
X360328Y301393D01*
X360351Y301370D01*
X360396Y301315D01*
X365507Y296204D01*
X365507Y287996D01*
X359704Y282193D01*
X351496Y282193D01*
G37*
%LPD*%
%LPC*%
G36*
X427696Y282193D02*
X427696Y282193D01*
X421893Y287996D01*
X421893Y296204D01*
X427696Y302007D01*
X434925Y302007D01*
X435015Y302021D01*
X435106Y302029D01*
X435135Y302041D01*
X435167Y302046D01*
X435248Y302089D01*
X435332Y302125D01*
X435364Y302151D01*
X435385Y302162D01*
X435407Y302185D01*
X435463Y302230D01*
X455306Y322073D01*
X479167Y322073D01*
X479282Y322092D01*
X479398Y322109D01*
X479404Y322111D01*
X479410Y322112D01*
X479513Y322167D01*
X479617Y322220D01*
X479622Y322225D01*
X479627Y322228D01*
X479708Y322312D01*
X479790Y322396D01*
X479793Y322402D01*
X479797Y322406D01*
X479805Y322423D01*
X479871Y322543D01*
X479927Y322680D01*
X482500Y325253D01*
X485861Y326645D01*
X504739Y326645D01*
X508100Y325253D01*
X510673Y322680D01*
X512065Y319319D01*
X512065Y315681D01*
X510673Y312320D01*
X508100Y309747D01*
X504739Y308355D01*
X485861Y308355D01*
X482500Y309747D01*
X479927Y312320D01*
X479871Y312457D01*
X479809Y312557D01*
X479749Y312657D01*
X479744Y312661D01*
X479741Y312666D01*
X479651Y312741D01*
X479562Y312817D01*
X479556Y312819D01*
X479552Y312823D01*
X479443Y312865D01*
X479334Y312909D01*
X479327Y312910D01*
X479322Y312911D01*
X479304Y312912D01*
X479167Y312927D01*
X459409Y312927D01*
X459319Y312913D01*
X459228Y312905D01*
X459199Y312893D01*
X459167Y312888D01*
X459086Y312845D01*
X459002Y312809D01*
X458970Y312783D01*
X458949Y312772D01*
X458927Y312749D01*
X458871Y312704D01*
X441930Y295763D01*
X441877Y295689D01*
X441817Y295619D01*
X441805Y295589D01*
X441786Y295563D01*
X441759Y295476D01*
X441725Y295391D01*
X441721Y295350D01*
X441714Y295328D01*
X441715Y295296D01*
X441707Y295225D01*
X441707Y287996D01*
X435904Y282193D01*
X427696Y282193D01*
G37*
%LPD*%
%LPC*%
G36*
X427696Y447293D02*
X427696Y447293D01*
X421893Y453096D01*
X421893Y461304D01*
X427696Y467107D01*
X434925Y467107D01*
X435015Y467121D01*
X435106Y467129D01*
X435135Y467141D01*
X435167Y467146D01*
X435248Y467189D01*
X435332Y467225D01*
X435364Y467251D01*
X435385Y467262D01*
X435407Y467285D01*
X435463Y467330D01*
X455306Y487173D01*
X479167Y487173D01*
X479282Y487192D01*
X479398Y487209D01*
X479404Y487211D01*
X479410Y487212D01*
X479513Y487267D01*
X479617Y487320D01*
X479622Y487325D01*
X479627Y487328D01*
X479708Y487412D01*
X479790Y487496D01*
X479793Y487502D01*
X479797Y487506D01*
X479805Y487523D01*
X479871Y487643D01*
X479927Y487780D01*
X482500Y490353D01*
X485861Y491745D01*
X504739Y491745D01*
X508100Y490353D01*
X510673Y487780D01*
X512065Y484419D01*
X512065Y480781D01*
X510673Y477420D01*
X508100Y474847D01*
X504739Y473455D01*
X485861Y473455D01*
X482500Y474847D01*
X479927Y477420D01*
X479871Y477557D01*
X479809Y477657D01*
X479749Y477757D01*
X479744Y477761D01*
X479741Y477766D01*
X479651Y477841D01*
X479562Y477917D01*
X479556Y477919D01*
X479552Y477923D01*
X479443Y477965D01*
X479334Y478009D01*
X479327Y478010D01*
X479322Y478011D01*
X479304Y478012D01*
X479167Y478027D01*
X459409Y478027D01*
X459319Y478013D01*
X459228Y478005D01*
X459199Y477993D01*
X459167Y477988D01*
X459086Y477945D01*
X459002Y477909D01*
X458970Y477883D01*
X458949Y477872D01*
X458927Y477849D01*
X458871Y477804D01*
X441930Y460863D01*
X441877Y460789D01*
X441817Y460719D01*
X441805Y460689D01*
X441786Y460663D01*
X441759Y460576D01*
X441725Y460491D01*
X441721Y460450D01*
X441714Y460428D01*
X441715Y460396D01*
X441707Y460325D01*
X441707Y453096D01*
X435904Y447293D01*
X427696Y447293D01*
G37*
%LPD*%
%LPC*%
G36*
X485861Y282955D02*
X485861Y282955D01*
X482500Y284347D01*
X479927Y286920D01*
X478535Y290281D01*
X478535Y293919D01*
X479927Y297280D01*
X482500Y299853D01*
X485861Y301245D01*
X504739Y301245D01*
X508100Y299853D01*
X510673Y297280D01*
X512065Y293919D01*
X512065Y290281D01*
X510673Y286920D01*
X508100Y284347D01*
X504739Y282955D01*
X485861Y282955D01*
G37*
%LPD*%
%LPC*%
G36*
X485861Y448055D02*
X485861Y448055D01*
X482500Y449447D01*
X479927Y452020D01*
X478535Y455381D01*
X478535Y459019D01*
X479927Y462380D01*
X482500Y464953D01*
X485861Y466345D01*
X504739Y466345D01*
X508100Y464953D01*
X510673Y462380D01*
X512065Y459019D01*
X512065Y455381D01*
X510673Y452020D01*
X508100Y449447D01*
X504739Y448055D01*
X485861Y448055D01*
G37*
%LPD*%
%LPC*%
G36*
X427696Y307593D02*
X427696Y307593D01*
X421893Y313396D01*
X421893Y321604D01*
X427696Y327407D01*
X435904Y327407D01*
X441707Y321604D01*
X441707Y313396D01*
X435904Y307593D01*
X427696Y307593D01*
G37*
%LPD*%
%LPC*%
G36*
X427696Y472693D02*
X427696Y472693D01*
X421893Y478496D01*
X421893Y486704D01*
X427696Y492507D01*
X435904Y492507D01*
X441707Y486704D01*
X441707Y478496D01*
X435904Y472693D01*
X427696Y472693D01*
G37*
%LPD*%
%LPC*%
G36*
X341005Y193674D02*
X341005Y193674D01*
X337504Y195124D01*
X334824Y197804D01*
X333374Y201305D01*
X333374Y205095D01*
X334824Y208596D01*
X337504Y211276D01*
X341005Y212726D01*
X344795Y212726D01*
X348296Y211276D01*
X350976Y208596D01*
X352426Y205095D01*
X352426Y201305D01*
X350976Y197804D01*
X348296Y195124D01*
X344795Y193674D01*
X341005Y193674D01*
G37*
%LPD*%
%LPC*%
G36*
X23545Y453475D02*
X23545Y453475D01*
X20118Y454895D01*
X17495Y457518D01*
X16075Y460945D01*
X16075Y464655D01*
X17495Y468082D01*
X20118Y470705D01*
X23545Y472125D01*
X27255Y472125D01*
X30682Y470705D01*
X33305Y468082D01*
X34725Y464655D01*
X34725Y460945D01*
X33305Y457518D01*
X30682Y454895D01*
X27255Y453475D01*
X23545Y453475D01*
G37*
%LPD*%
%LPC*%
G36*
X277545Y453475D02*
X277545Y453475D01*
X274118Y454895D01*
X271495Y457518D01*
X270075Y460945D01*
X270075Y464655D01*
X271495Y468082D01*
X274118Y470705D01*
X277545Y472125D01*
X281255Y472125D01*
X284682Y470705D01*
X287305Y468082D01*
X288725Y464655D01*
X288725Y460945D01*
X287305Y457518D01*
X284682Y454895D01*
X281255Y453475D01*
X277545Y453475D01*
G37*
%LPD*%
%LPC*%
G36*
X23545Y478875D02*
X23545Y478875D01*
X20118Y480295D01*
X17495Y482918D01*
X16075Y486345D01*
X16075Y490055D01*
X17495Y493482D01*
X20118Y496105D01*
X23545Y497525D01*
X27255Y497525D01*
X30682Y496105D01*
X33305Y493482D01*
X34725Y490055D01*
X34725Y486345D01*
X33305Y482918D01*
X30682Y480295D01*
X27255Y478875D01*
X23545Y478875D01*
G37*
%LPD*%
%LPC*%
G36*
X23545Y428075D02*
X23545Y428075D01*
X20118Y429495D01*
X17495Y432118D01*
X16075Y435545D01*
X16075Y439255D01*
X17495Y442682D01*
X20118Y445305D01*
X23545Y446725D01*
X27255Y446725D01*
X30682Y445305D01*
X33305Y442682D01*
X34725Y439255D01*
X34725Y435545D01*
X33305Y432118D01*
X30682Y429495D01*
X27255Y428075D01*
X23545Y428075D01*
G37*
%LPD*%
%LPC*%
G36*
X277545Y428075D02*
X277545Y428075D01*
X274118Y429495D01*
X271495Y432118D01*
X270075Y435545D01*
X270075Y439255D01*
X271495Y442682D01*
X274118Y445305D01*
X277545Y446725D01*
X281255Y446725D01*
X284682Y445305D01*
X287305Y442682D01*
X288725Y439255D01*
X288725Y435545D01*
X287305Y432118D01*
X284682Y429495D01*
X281255Y428075D01*
X277545Y428075D01*
G37*
%LPD*%
%LPC*%
G36*
X277545Y402675D02*
X277545Y402675D01*
X274118Y404095D01*
X271495Y406718D01*
X270075Y410145D01*
X270075Y413855D01*
X271495Y417282D01*
X274118Y419905D01*
X277545Y421325D01*
X281255Y421325D01*
X284682Y419905D01*
X287305Y417282D01*
X288725Y413855D01*
X288725Y410145D01*
X287305Y406718D01*
X284682Y404095D01*
X281255Y402675D01*
X277545Y402675D01*
G37*
%LPD*%
%LPC*%
G36*
X23545Y402675D02*
X23545Y402675D01*
X20118Y404095D01*
X17495Y406718D01*
X16075Y410145D01*
X16075Y413855D01*
X17495Y417282D01*
X20118Y419905D01*
X23545Y421325D01*
X27255Y421325D01*
X30682Y419905D01*
X33305Y417282D01*
X34725Y413855D01*
X34725Y410145D01*
X33305Y406718D01*
X30682Y404095D01*
X27255Y402675D01*
X23545Y402675D01*
G37*
%LPD*%
%LPC*%
G36*
X23545Y72475D02*
X23545Y72475D01*
X20118Y73895D01*
X17495Y76518D01*
X16075Y79945D01*
X16075Y83655D01*
X17495Y87082D01*
X20118Y89705D01*
X23545Y91125D01*
X27255Y91125D01*
X30682Y89705D01*
X33305Y87082D01*
X34725Y83655D01*
X34725Y79945D01*
X33305Y76518D01*
X30682Y73895D01*
X27255Y72475D01*
X23545Y72475D01*
G37*
%LPD*%
%LPC*%
G36*
X277545Y174075D02*
X277545Y174075D01*
X274118Y175495D01*
X271495Y178118D01*
X270075Y181545D01*
X270075Y185255D01*
X271495Y188682D01*
X274118Y191305D01*
X277545Y192725D01*
X281255Y192725D01*
X284682Y191305D01*
X287305Y188682D01*
X288725Y185255D01*
X288725Y181545D01*
X287305Y178118D01*
X284682Y175495D01*
X281255Y174075D01*
X277545Y174075D01*
G37*
%LPD*%
%LPC*%
G36*
X23545Y224875D02*
X23545Y224875D01*
X20118Y226295D01*
X17495Y228918D01*
X16075Y232345D01*
X16075Y236055D01*
X17495Y239482D01*
X20118Y242105D01*
X23545Y243525D01*
X27255Y243525D01*
X30682Y242105D01*
X33305Y239482D01*
X34725Y236055D01*
X34725Y232345D01*
X33305Y228918D01*
X30682Y226295D01*
X27255Y224875D01*
X23545Y224875D01*
G37*
%LPD*%
%LPC*%
G36*
X277545Y224875D02*
X277545Y224875D01*
X274118Y226295D01*
X271495Y228918D01*
X270075Y232345D01*
X270075Y236055D01*
X271495Y239482D01*
X274118Y242105D01*
X277545Y243525D01*
X281255Y243525D01*
X284682Y242105D01*
X287305Y239482D01*
X288725Y236055D01*
X288725Y232345D01*
X287305Y228918D01*
X284682Y226295D01*
X281255Y224875D01*
X277545Y224875D01*
G37*
%LPD*%
%LPC*%
G36*
X23545Y377275D02*
X23545Y377275D01*
X20118Y378695D01*
X17495Y381318D01*
X16075Y384745D01*
X16075Y388455D01*
X17495Y391882D01*
X20118Y394505D01*
X23545Y395925D01*
X27255Y395925D01*
X30682Y394505D01*
X33305Y391882D01*
X34725Y388455D01*
X34725Y384745D01*
X33305Y381318D01*
X30682Y378695D01*
X27255Y377275D01*
X23545Y377275D01*
G37*
%LPD*%
%LPC*%
G36*
X23545Y123275D02*
X23545Y123275D01*
X20118Y124695D01*
X17495Y127318D01*
X16075Y130745D01*
X16075Y134455D01*
X17495Y137882D01*
X20118Y140505D01*
X23545Y141925D01*
X27255Y141925D01*
X30682Y140505D01*
X33305Y137882D01*
X34725Y134455D01*
X34725Y130745D01*
X33305Y127318D01*
X30682Y124695D01*
X27255Y123275D01*
X23545Y123275D01*
G37*
%LPD*%
%LPC*%
G36*
X277545Y123275D02*
X277545Y123275D01*
X274118Y124695D01*
X271495Y127318D01*
X270075Y130745D01*
X270075Y134455D01*
X271495Y137882D01*
X274118Y140505D01*
X277545Y141925D01*
X281255Y141925D01*
X284682Y140505D01*
X287305Y137882D01*
X288725Y134455D01*
X288725Y130745D01*
X287305Y127318D01*
X284682Y124695D01*
X281255Y123275D01*
X277545Y123275D01*
G37*
%LPD*%
%LPC*%
G36*
X23545Y250275D02*
X23545Y250275D01*
X20118Y251695D01*
X17495Y254318D01*
X16075Y257745D01*
X16075Y261455D01*
X17495Y264882D01*
X20118Y267505D01*
X23545Y268925D01*
X27255Y268925D01*
X30682Y267505D01*
X33305Y264882D01*
X34725Y261455D01*
X34725Y257745D01*
X33305Y254318D01*
X30682Y251695D01*
X27255Y250275D01*
X23545Y250275D01*
G37*
%LPD*%
%LPC*%
G36*
X277545Y250275D02*
X277545Y250275D01*
X274118Y251695D01*
X271495Y254318D01*
X270075Y257745D01*
X270075Y261455D01*
X271495Y264882D01*
X274118Y267505D01*
X277545Y268925D01*
X281255Y268925D01*
X284682Y267505D01*
X287305Y264882D01*
X288725Y261455D01*
X288725Y257745D01*
X287305Y254318D01*
X284682Y251695D01*
X281255Y250275D01*
X277545Y250275D01*
G37*
%LPD*%
%LPC*%
G36*
X23545Y148675D02*
X23545Y148675D01*
X20118Y150095D01*
X17495Y152718D01*
X16075Y156145D01*
X16075Y159855D01*
X17495Y163282D01*
X20118Y165905D01*
X23545Y167325D01*
X27255Y167325D01*
X30682Y165905D01*
X33305Y163282D01*
X34725Y159855D01*
X34725Y156145D01*
X33305Y152718D01*
X30682Y150095D01*
X27255Y148675D01*
X23545Y148675D01*
G37*
%LPD*%
%LPC*%
G36*
X277545Y148675D02*
X277545Y148675D01*
X274118Y150095D01*
X271495Y152718D01*
X270075Y156145D01*
X270075Y159855D01*
X271495Y163282D01*
X274118Y165905D01*
X277545Y167325D01*
X281255Y167325D01*
X284682Y165905D01*
X287305Y163282D01*
X288725Y159855D01*
X288725Y156145D01*
X287305Y152718D01*
X284682Y150095D01*
X281255Y148675D01*
X277545Y148675D01*
G37*
%LPD*%
%LPC*%
G36*
X23545Y351875D02*
X23545Y351875D01*
X20118Y353295D01*
X17495Y355918D01*
X16075Y359345D01*
X16075Y363055D01*
X17495Y366482D01*
X20118Y369105D01*
X23545Y370525D01*
X27255Y370525D01*
X30682Y369105D01*
X33305Y366482D01*
X34725Y363055D01*
X34725Y359345D01*
X33305Y355918D01*
X30682Y353295D01*
X27255Y351875D01*
X23545Y351875D01*
G37*
%LPD*%
%LPC*%
G36*
X277545Y351875D02*
X277545Y351875D01*
X274118Y353295D01*
X271495Y355918D01*
X270075Y359345D01*
X270075Y363055D01*
X271495Y366482D01*
X274118Y369105D01*
X277545Y370525D01*
X281255Y370525D01*
X284682Y369105D01*
X287305Y366482D01*
X288725Y363055D01*
X288725Y359345D01*
X287305Y355918D01*
X284682Y353295D01*
X281255Y351875D01*
X277545Y351875D01*
G37*
%LPD*%
%LPC*%
G36*
X23545Y275675D02*
X23545Y275675D01*
X20118Y277095D01*
X17495Y279718D01*
X16075Y283145D01*
X16075Y286855D01*
X17495Y290282D01*
X20118Y292905D01*
X23545Y294325D01*
X27255Y294325D01*
X30682Y292905D01*
X33305Y290282D01*
X34725Y286855D01*
X34725Y283145D01*
X33305Y279718D01*
X30682Y277095D01*
X27255Y275675D01*
X23545Y275675D01*
G37*
%LPD*%
%LPC*%
G36*
X277545Y275675D02*
X277545Y275675D01*
X274118Y277095D01*
X271495Y279718D01*
X270075Y283145D01*
X270075Y286855D01*
X271495Y290282D01*
X274118Y292905D01*
X277545Y294325D01*
X281255Y294325D01*
X284682Y292905D01*
X287305Y290282D01*
X288725Y286855D01*
X288725Y283145D01*
X287305Y279718D01*
X284682Y277095D01*
X281255Y275675D01*
X277545Y275675D01*
G37*
%LPD*%
%LPC*%
G36*
X277545Y199475D02*
X277545Y199475D01*
X274118Y200895D01*
X271495Y203518D01*
X270075Y206945D01*
X270075Y210655D01*
X271495Y214082D01*
X274118Y216705D01*
X277545Y218125D01*
X281255Y218125D01*
X284682Y216705D01*
X287305Y214082D01*
X288725Y210655D01*
X288725Y206945D01*
X287305Y203518D01*
X284682Y200895D01*
X281255Y199475D01*
X277545Y199475D01*
G37*
%LPD*%
%LPC*%
G36*
X277545Y326475D02*
X277545Y326475D01*
X274118Y327895D01*
X271495Y330518D01*
X270075Y333945D01*
X270075Y337655D01*
X271495Y341082D01*
X274118Y343705D01*
X277545Y345125D01*
X281255Y345125D01*
X284682Y343705D01*
X287305Y341082D01*
X288725Y337655D01*
X288725Y333945D01*
X287305Y330518D01*
X284682Y327895D01*
X281255Y326475D01*
X277545Y326475D01*
G37*
%LPD*%
%LPC*%
G36*
X23545Y326475D02*
X23545Y326475D01*
X20118Y327895D01*
X17495Y330518D01*
X16075Y333945D01*
X16075Y337655D01*
X17495Y341082D01*
X20118Y343705D01*
X23545Y345125D01*
X27255Y345125D01*
X30682Y343705D01*
X33305Y341082D01*
X34725Y337655D01*
X34725Y333945D01*
X33305Y330518D01*
X30682Y327895D01*
X27255Y326475D01*
X23545Y326475D01*
G37*
%LPD*%
%LPC*%
G36*
X23545Y301075D02*
X23545Y301075D01*
X20118Y302495D01*
X17495Y305118D01*
X16075Y308545D01*
X16075Y312255D01*
X17495Y315682D01*
X20118Y318305D01*
X23545Y319725D01*
X27255Y319725D01*
X30682Y318305D01*
X33305Y315682D01*
X34725Y312255D01*
X34725Y308545D01*
X33305Y305118D01*
X30682Y302495D01*
X27255Y301075D01*
X23545Y301075D01*
G37*
%LPD*%
%LPC*%
G36*
X277545Y301075D02*
X277545Y301075D01*
X274118Y302495D01*
X271495Y305118D01*
X270075Y308545D01*
X270075Y312255D01*
X271495Y315682D01*
X274118Y318305D01*
X277545Y319725D01*
X281255Y319725D01*
X284682Y318305D01*
X287305Y315682D01*
X288725Y312255D01*
X288725Y308545D01*
X287305Y305118D01*
X284682Y302495D01*
X281255Y301075D01*
X277545Y301075D01*
G37*
%LPD*%
%LPC*%
G36*
X23545Y504275D02*
X23545Y504275D01*
X20118Y505695D01*
X17495Y508318D01*
X16075Y511745D01*
X16075Y515455D01*
X17495Y518882D01*
X20118Y521505D01*
X23545Y522925D01*
X27255Y522925D01*
X30682Y521505D01*
X33305Y518882D01*
X34725Y515455D01*
X34725Y511745D01*
X33305Y508318D01*
X30682Y505695D01*
X27255Y504275D01*
X23545Y504275D01*
G37*
%LPD*%
%LPC*%
G36*
X344423Y128523D02*
X344423Y128523D01*
X344423Y144666D01*
X345279Y144531D01*
X346800Y144036D01*
X348225Y143310D01*
X349519Y142370D01*
X350650Y141239D01*
X351590Y139945D01*
X352316Y138520D01*
X352811Y136999D01*
X353061Y135420D01*
X353061Y128523D01*
X344423Y128523D01*
G37*
%LPD*%
%LPC*%
G36*
X344423Y125477D02*
X344423Y125477D01*
X353061Y125477D01*
X353061Y118580D01*
X352811Y117001D01*
X352316Y115480D01*
X351590Y114055D01*
X350650Y112761D01*
X349519Y111630D01*
X348225Y110690D01*
X346800Y109964D01*
X345279Y109469D01*
X344423Y109334D01*
X344423Y125477D01*
G37*
%LPD*%
%LPC*%
G36*
X332739Y128523D02*
X332739Y128523D01*
X332739Y135420D01*
X332989Y136999D01*
X333484Y138520D01*
X334210Y139945D01*
X335150Y141239D01*
X336281Y142370D01*
X337575Y143310D01*
X339000Y144036D01*
X340521Y144531D01*
X341377Y144666D01*
X341377Y128523D01*
X332739Y128523D01*
G37*
%LPD*%
%LPC*%
G36*
X340521Y109469D02*
X340521Y109469D01*
X339000Y109964D01*
X337575Y110690D01*
X336281Y111630D01*
X335150Y112761D01*
X334210Y114055D01*
X333484Y115480D01*
X332989Y117001D01*
X332739Y118580D01*
X332739Y125477D01*
X341377Y125477D01*
X341377Y109334D01*
X340521Y109469D01*
G37*
%LPD*%
%LPC*%
G36*
X433323Y509523D02*
X433323Y509523D01*
X433323Y518923D01*
X436324Y518923D01*
X442723Y512524D01*
X442723Y509523D01*
X433323Y509523D01*
G37*
%LPD*%
%LPC*%
G36*
X433323Y344423D02*
X433323Y344423D01*
X433323Y353823D01*
X436324Y353823D01*
X442723Y347424D01*
X442723Y344423D01*
X433323Y344423D01*
G37*
%LPD*%
%LPC*%
G36*
X433323Y497077D02*
X433323Y497077D01*
X433323Y506477D01*
X442723Y506477D01*
X442723Y503476D01*
X436324Y497077D01*
X433323Y497077D01*
G37*
%LPD*%
%LPC*%
G36*
X420877Y344423D02*
X420877Y344423D01*
X420877Y347424D01*
X427276Y353823D01*
X430277Y353823D01*
X430277Y344423D01*
X420877Y344423D01*
G37*
%LPD*%
%LPC*%
G36*
X420877Y509523D02*
X420877Y509523D01*
X420877Y512524D01*
X427276Y518923D01*
X430277Y518923D01*
X430277Y509523D01*
X420877Y509523D01*
G37*
%LPD*%
%LPC*%
G36*
X433323Y331977D02*
X433323Y331977D01*
X433323Y341377D01*
X442723Y341377D01*
X442723Y338376D01*
X436324Y331977D01*
X433323Y331977D01*
G37*
%LPD*%
%LPC*%
G36*
X427276Y497077D02*
X427276Y497077D01*
X420877Y503476D01*
X420877Y506477D01*
X430277Y506477D01*
X430277Y497077D01*
X427276Y497077D01*
G37*
%LPD*%
%LPC*%
G36*
X427276Y331977D02*
X427276Y331977D01*
X420877Y338376D01*
X420877Y341377D01*
X430277Y341377D01*
X430277Y331977D01*
X427276Y331977D01*
G37*
%LPD*%
%LPC*%
G36*
X344423Y179323D02*
X344423Y179323D01*
X344423Y188342D01*
X347267Y188342D01*
X353442Y182167D01*
X353442Y179323D01*
X344423Y179323D01*
G37*
%LPD*%
%LPC*%
G36*
X344423Y230123D02*
X344423Y230123D01*
X344423Y239142D01*
X347267Y239142D01*
X353442Y232967D01*
X353442Y230123D01*
X344423Y230123D01*
G37*
%LPD*%
%LPC*%
G36*
X344423Y395223D02*
X344423Y395223D01*
X344423Y404242D01*
X347267Y404242D01*
X353442Y398067D01*
X353442Y395223D01*
X344423Y395223D01*
G37*
%LPD*%
%LPC*%
G36*
X332358Y230123D02*
X332358Y230123D01*
X332358Y232967D01*
X338533Y239142D01*
X341377Y239142D01*
X341377Y230123D01*
X332358Y230123D01*
G37*
%LPD*%
%LPC*%
G36*
X344423Y383158D02*
X344423Y383158D01*
X344423Y392177D01*
X353442Y392177D01*
X353442Y389333D01*
X347267Y383158D01*
X344423Y383158D01*
G37*
%LPD*%
%LPC*%
G36*
X332358Y179323D02*
X332358Y179323D01*
X332358Y182167D01*
X338533Y188342D01*
X341377Y188342D01*
X341377Y179323D01*
X332358Y179323D01*
G37*
%LPD*%
%LPC*%
G36*
X344423Y218058D02*
X344423Y218058D01*
X344423Y227077D01*
X353442Y227077D01*
X353442Y224233D01*
X347267Y218058D01*
X344423Y218058D01*
G37*
%LPD*%
%LPC*%
G36*
X344423Y167258D02*
X344423Y167258D01*
X344423Y176277D01*
X353442Y176277D01*
X353442Y173433D01*
X347267Y167258D01*
X344423Y167258D01*
G37*
%LPD*%
%LPC*%
G36*
X332358Y395223D02*
X332358Y395223D01*
X332358Y398067D01*
X338533Y404242D01*
X341377Y404242D01*
X341377Y395223D01*
X332358Y395223D01*
G37*
%LPD*%
%LPC*%
G36*
X338533Y383158D02*
X338533Y383158D01*
X332358Y389333D01*
X332358Y392177D01*
X341377Y392177D01*
X341377Y383158D01*
X338533Y383158D01*
G37*
%LPD*%
%LPC*%
G36*
X338533Y218058D02*
X338533Y218058D01*
X332358Y224233D01*
X332358Y227077D01*
X341377Y227077D01*
X341377Y218058D01*
X338533Y218058D01*
G37*
%LPD*%
%LPC*%
G36*
X338533Y167258D02*
X338533Y167258D01*
X332358Y173433D01*
X332358Y176277D01*
X341377Y176277D01*
X341377Y167258D01*
X338533Y167258D01*
G37*
%LPD*%
%LPC*%
G36*
X26923Y57923D02*
X26923Y57923D01*
X26923Y66628D01*
X27821Y66486D01*
X29370Y65983D01*
X30820Y65244D01*
X32137Y64287D01*
X33287Y63137D01*
X34244Y61820D01*
X34983Y60370D01*
X35486Y58821D01*
X35628Y57923D01*
X26923Y57923D01*
G37*
%LPD*%
%LPC*%
G36*
X26923Y210323D02*
X26923Y210323D01*
X26923Y219028D01*
X27821Y218886D01*
X29370Y218383D01*
X30820Y217644D01*
X32137Y216687D01*
X33287Y215537D01*
X34244Y214220D01*
X34983Y212770D01*
X35486Y211221D01*
X35628Y210323D01*
X26923Y210323D01*
G37*
%LPD*%
%LPC*%
G36*
X280923Y388123D02*
X280923Y388123D01*
X280923Y396828D01*
X281821Y396686D01*
X283370Y396183D01*
X284820Y395444D01*
X286137Y394487D01*
X287287Y393337D01*
X288244Y392020D01*
X288983Y390570D01*
X289486Y389021D01*
X289628Y388123D01*
X280923Y388123D01*
G37*
%LPD*%
%LPC*%
G36*
X15172Y210323D02*
X15172Y210323D01*
X15314Y211221D01*
X15817Y212770D01*
X16556Y214220D01*
X17513Y215537D01*
X18663Y216687D01*
X19980Y217644D01*
X21430Y218383D01*
X22979Y218886D01*
X23877Y219028D01*
X23877Y210323D01*
X15172Y210323D01*
G37*
%LPD*%
%LPC*%
G36*
X15172Y57923D02*
X15172Y57923D01*
X15314Y58821D01*
X15817Y60370D01*
X16556Y61820D01*
X17513Y63137D01*
X18663Y64287D01*
X19980Y65244D01*
X21430Y65983D01*
X22979Y66486D01*
X23877Y66628D01*
X23877Y57923D01*
X15172Y57923D01*
G37*
%LPD*%
%LPC*%
G36*
X26923Y207277D02*
X26923Y207277D01*
X35628Y207277D01*
X35486Y206379D01*
X34983Y204830D01*
X34244Y203380D01*
X33287Y202063D01*
X32137Y200913D01*
X30820Y199956D01*
X29370Y199217D01*
X27821Y198714D01*
X26923Y198572D01*
X26923Y207277D01*
G37*
%LPD*%
%LPC*%
G36*
X280923Y385077D02*
X280923Y385077D01*
X289628Y385077D01*
X289486Y384179D01*
X288983Y382630D01*
X288244Y381180D01*
X287287Y379863D01*
X286137Y378713D01*
X284820Y377756D01*
X283370Y377017D01*
X281821Y376514D01*
X280923Y376372D01*
X280923Y385077D01*
G37*
%LPD*%
%LPC*%
G36*
X269172Y388123D02*
X269172Y388123D01*
X269314Y389021D01*
X269817Y390570D01*
X270556Y392020D01*
X271513Y393337D01*
X272663Y394487D01*
X273980Y395444D01*
X275430Y396183D01*
X276979Y396686D01*
X277877Y396828D01*
X277877Y388123D01*
X269172Y388123D01*
G37*
%LPD*%
%LPC*%
G36*
X26923Y54877D02*
X26923Y54877D01*
X35628Y54877D01*
X35486Y53979D01*
X34983Y52430D01*
X34244Y50980D01*
X33287Y49663D01*
X32137Y48513D01*
X30820Y47556D01*
X29370Y46817D01*
X27821Y46314D01*
X26923Y46172D01*
X26923Y54877D01*
G37*
%LPD*%
%LPC*%
G36*
X22979Y198714D02*
X22979Y198714D01*
X21430Y199217D01*
X19980Y199956D01*
X18663Y200913D01*
X17513Y202063D01*
X16556Y203380D01*
X15817Y204830D01*
X15314Y206379D01*
X15172Y207277D01*
X23877Y207277D01*
X23877Y198572D01*
X22979Y198714D01*
G37*
%LPD*%
%LPC*%
G36*
X22979Y46314D02*
X22979Y46314D01*
X21430Y46817D01*
X19980Y47556D01*
X18663Y48513D01*
X17513Y49663D01*
X16556Y50980D01*
X15817Y52430D01*
X15314Y53979D01*
X15172Y54877D01*
X23877Y54877D01*
X23877Y46172D01*
X22979Y46314D01*
G37*
%LPD*%
%LPC*%
G36*
X276979Y376514D02*
X276979Y376514D01*
X275430Y377017D01*
X273980Y377756D01*
X272663Y378713D01*
X271513Y379863D01*
X270556Y381180D01*
X269817Y382630D01*
X269314Y384179D01*
X269172Y385077D01*
X277877Y385077D01*
X277877Y376372D01*
X276979Y376514D01*
G37*
%LPD*%
%LPC*%
G36*
X502223Y38823D02*
X502223Y38823D01*
X502223Y47265D01*
X503061Y47133D01*
X504570Y46642D01*
X505983Y45922D01*
X507267Y44989D01*
X508389Y43867D01*
X509322Y42583D01*
X510042Y41170D01*
X510533Y39661D01*
X510665Y38823D01*
X502223Y38823D01*
G37*
%LPD*%
%LPC*%
G36*
X490735Y38823D02*
X490735Y38823D01*
X490867Y39661D01*
X491358Y41170D01*
X492078Y42583D01*
X493011Y43867D01*
X494133Y44989D01*
X495417Y45922D01*
X496830Y46642D01*
X498339Y47133D01*
X499177Y47265D01*
X499177Y38823D01*
X490735Y38823D01*
G37*
%LPD*%
%LPC*%
G36*
X502223Y35777D02*
X502223Y35777D01*
X510665Y35777D01*
X510533Y34939D01*
X510042Y33430D01*
X509322Y32017D01*
X508389Y30733D01*
X507267Y29611D01*
X505983Y28678D01*
X504570Y27958D01*
X503061Y27467D01*
X502223Y27335D01*
X502223Y35777D01*
G37*
%LPD*%
%LPC*%
G36*
X498339Y27467D02*
X498339Y27467D01*
X496830Y27958D01*
X495417Y28678D01*
X494133Y29611D01*
X493011Y30733D01*
X492078Y32017D01*
X491358Y33430D01*
X490867Y34939D01*
X490735Y35777D01*
X499177Y35777D01*
X499177Y27335D01*
X498339Y27467D01*
G37*
%LPD*%
%LPC*%
G36*
X342899Y228599D02*
X342899Y228599D01*
X342899Y228601D01*
X342901Y228601D01*
X342901Y228599D01*
X342899Y228599D01*
G37*
%LPD*%
%LPC*%
G36*
X431799Y342899D02*
X431799Y342899D01*
X431799Y342901D01*
X431801Y342901D01*
X431801Y342899D01*
X431799Y342899D01*
G37*
%LPD*%
%LPC*%
G36*
X25399Y56399D02*
X25399Y56399D01*
X25399Y56401D01*
X25401Y56401D01*
X25401Y56399D01*
X25399Y56399D01*
G37*
%LPD*%
%LPC*%
G36*
X342899Y126999D02*
X342899Y126999D01*
X342899Y127001D01*
X342901Y127001D01*
X342901Y126999D01*
X342899Y126999D01*
G37*
%LPD*%
%LPC*%
G36*
X342899Y393699D02*
X342899Y393699D01*
X342899Y393701D01*
X342901Y393701D01*
X342901Y393699D01*
X342899Y393699D01*
G37*
%LPD*%
%LPC*%
G36*
X342899Y177799D02*
X342899Y177799D01*
X342899Y177801D01*
X342901Y177801D01*
X342901Y177799D01*
X342899Y177799D01*
G37*
%LPD*%
%LPC*%
G36*
X279399Y386599D02*
X279399Y386599D01*
X279399Y386601D01*
X279401Y386601D01*
X279401Y386599D01*
X279399Y386599D01*
G37*
%LPD*%
%LPC*%
G36*
X500699Y37299D02*
X500699Y37299D01*
X500699Y37301D01*
X500701Y37301D01*
X500701Y37299D01*
X500699Y37299D01*
G37*
%LPD*%
%LPC*%
G36*
X431799Y507999D02*
X431799Y507999D01*
X431799Y508001D01*
X431801Y508001D01*
X431801Y507999D01*
X431799Y507999D01*
G37*
%LPD*%
%LPC*%
G36*
X25399Y208799D02*
X25399Y208799D01*
X25399Y208801D01*
X25401Y208801D01*
X25401Y208799D01*
X25399Y208799D01*
G37*
%LPD*%
D10*
X342900Y419100D03*
D11*
X342900Y393700D03*
D10*
X342900Y254000D03*
D11*
X342900Y228600D03*
D10*
X342900Y203200D03*
D11*
X342900Y177800D03*
D12*
X794700Y89300D03*
D13*
X794700Y139300D03*
X500700Y37300D03*
X500700Y191300D03*
D14*
X355600Y508000D03*
X431800Y508000D03*
D15*
X431800Y482600D03*
X355600Y482600D03*
X431800Y457200D03*
X355600Y457200D03*
D14*
X355600Y342900D03*
X431800Y342900D03*
D15*
X431800Y317500D03*
X355600Y317500D03*
X431800Y292100D03*
X355600Y292100D03*
D16*
X487680Y457200D02*
X502920Y457200D01*
X502920Y482600D02*
X487680Y482600D01*
X487680Y508000D02*
X502920Y508000D01*
X502920Y292100D02*
X487680Y292100D01*
X487680Y317500D02*
X502920Y317500D01*
X502920Y342900D02*
X487680Y342900D01*
X342900Y134620D02*
X342900Y119380D01*
X368300Y119380D02*
X368300Y134620D01*
X393700Y134620D02*
X393700Y119380D01*
X419100Y119380D02*
X419100Y134620D01*
D17*
X279400Y56400D03*
D18*
X279400Y81800D03*
X279400Y513600D03*
X279400Y107200D03*
X279400Y132600D03*
X279400Y158000D03*
X279400Y183400D03*
X279400Y208800D03*
X279400Y234200D03*
X279400Y259600D03*
X279400Y285000D03*
X279400Y310400D03*
X279400Y335800D03*
X279400Y361200D03*
X279400Y386600D03*
X279400Y412000D03*
X279400Y437400D03*
X279400Y462800D03*
X279400Y488200D03*
X25400Y56400D03*
X25400Y81800D03*
X25400Y107200D03*
X25400Y132600D03*
X25400Y158000D03*
X25400Y183400D03*
X25400Y208800D03*
X25400Y234200D03*
X25400Y259600D03*
X25400Y285000D03*
X25400Y310400D03*
X25400Y335800D03*
X25400Y361200D03*
X25400Y386600D03*
X25400Y412000D03*
X25400Y437400D03*
X25400Y462800D03*
X25400Y488200D03*
X25400Y513600D03*
D16*
X855980Y88900D02*
X871220Y88900D01*
X871220Y114300D02*
X855980Y114300D01*
D19*
X317500Y475500D02*
X279400Y513600D01*
X317500Y279400D02*
X342900Y254000D01*
X317500Y279400D02*
X317500Y475500D01*
X342900Y254000D02*
X438000Y254000D01*
X500700Y191300D01*
D20*
X368300Y228600D02*
X342900Y254000D01*
X368300Y228600D02*
X368300Y127000D01*
D21*
X794700Y139300D02*
X819700Y114300D01*
X863600Y114300D01*
D22*
X355600Y482600D02*
X355600Y508000D01*
X355600Y482600D02*
X355600Y457200D01*
X355600Y431800D01*
X342900Y419100D01*
X355600Y508000D02*
X373380Y525780D01*
X482600Y525780D01*
X495300Y513080D01*
X495300Y508000D01*
X355600Y342900D02*
X355600Y317500D01*
X355600Y292100D01*
X355600Y342900D02*
X373380Y360680D01*
X480060Y360680D01*
X495300Y345440D01*
X495300Y342900D01*
X291297Y101600D02*
X284525Y94828D01*
X291297Y101600D02*
X381000Y101600D01*
X393700Y114300D01*
X393700Y127000D01*
X113972Y94828D02*
X25400Y183400D01*
X113972Y94828D02*
X284525Y94828D01*
X90824Y107200D02*
X25400Y107200D01*
X284525Y69428D02*
X303997Y88900D01*
X128596Y69428D02*
X90824Y107200D01*
X128596Y69428D02*
X284525Y69428D01*
X381000Y88900D02*
X419100Y127000D01*
X381000Y88900D02*
X303997Y88900D01*
X431800Y457200D02*
X457200Y482600D01*
X495300Y482600D01*
X457200Y317500D02*
X431800Y292100D01*
X457200Y317500D02*
X495300Y317500D01*
D21*
X795100Y88900D02*
X863600Y88900D01*
X795100Y88900D02*
X794700Y89300D01*
M02*
