M48
;GenerationSoftware,Autodesk,EAGLE,9.6.2*%
;CreationDate,2022-08-26T14:42:33Z*%
FMAT,2
ICI,OFF
METRIC,TZ,000.000
T6C0.813
T5C1.000
T4C1.016
T3C1.040
T2C1.200
T1C2.250
%
G90
M71
T1
X2000Y2000
X32258Y52070
X88900Y2540
X88900Y24130
T2
X48474Y37924
X48474Y35424
X48474Y30424
X53474Y32924
X48474Y27924
X48474Y52148
X48474Y49648
X48474Y44648
X53474Y47148
X48474Y42148
T3
X27940Y38660
X2540Y10720
X27940Y43740
X2540Y46280
X2540Y43740
X2540Y41200
X2540Y38660
X2540Y36120
X2540Y33580
X2540Y31040
X2540Y28500
X2540Y25960
X27940Y5640
X27940Y8180
X27940Y51360
X27940Y10720
X27940Y13260
X27940Y15800
X27940Y18340
X27940Y20880
X27940Y23420
X27940Y25960
X27940Y28500
X27940Y31040
X27940Y33580
X27940Y36120
X2540Y23420
X27940Y41200
X2540Y51360
X27940Y46280
X27940Y48820
X2540Y5640
X2540Y8180
X2540Y48820
X2540Y13260
X2540Y15800
X2540Y18340
X2540Y20880
T4
X87376Y12446
X41910Y12700
X39370Y12700
X36830Y12700
X34290Y12700
X87376Y9906
T5
X80284Y15946
X80284Y9946
X46684Y21946
X46684Y3946
T6
X35560Y45720
X43180Y45720
X34290Y41910
X35560Y29210
X43180Y29210
X35560Y31750
X43180Y31750
X43180Y34290
X35560Y48260
X43180Y48260
X43180Y50800
X35560Y50800
X34290Y17780
X34290Y20320
X34290Y22860
X34290Y25400
X35560Y34290
X34290Y39370
M30