G04 EAGLE Gerber RS-274X export*
G75*
%MOMM*%
%FSLAX34Y34*%
%LPD*%
%INBottom Copper*%
%IPPOS*%
%AMOC8*
5,1,8,0,0,1.08239X$1,22.5*%
G01*
%ADD10C,1.600200*%
%ADD11P,1.732040X8X292.500000*%
%ADD12P,1.814519X8X22.500000*%
%ADD13P,1.814519X8X202.500000*%
%ADD14C,1.524000*%
%ADD15R,1.560000X1.560000*%
%ADD16C,1.560000*%
%ADD17R,1.508000X1.508000*%
%ADD18C,1.508000*%
%ADD19C,1.800000*%
%ADD20C,0.609600*%

G36*
X591840Y10164D02*
X591840Y10164D01*
X591859Y10162D01*
X591961Y10184D01*
X592063Y10200D01*
X592080Y10210D01*
X592100Y10214D01*
X592189Y10267D01*
X592280Y10316D01*
X592294Y10330D01*
X592311Y10340D01*
X592378Y10419D01*
X592450Y10494D01*
X592458Y10512D01*
X592471Y10527D01*
X592510Y10623D01*
X592553Y10717D01*
X592555Y10737D01*
X592563Y10755D01*
X592581Y10922D01*
X592581Y263954D01*
X592567Y264044D01*
X592559Y264135D01*
X592547Y264165D01*
X592542Y264197D01*
X592499Y264277D01*
X592463Y264361D01*
X592437Y264393D01*
X592426Y264414D01*
X592403Y264436D01*
X592358Y264492D01*
X589726Y267125D01*
X589725Y267125D01*
X589724Y267126D01*
X588292Y268551D01*
X587519Y270417D01*
X587518Y270418D01*
X587518Y270419D01*
X586739Y272284D01*
X586739Y274306D01*
X586739Y274307D01*
X586739Y274308D01*
X586010Y535080D01*
X586007Y535099D01*
X586009Y535117D01*
X585987Y535219D01*
X585969Y535323D01*
X585961Y535339D01*
X585957Y535358D01*
X585903Y535448D01*
X585854Y535540D01*
X585840Y535553D01*
X585830Y535569D01*
X585751Y535637D01*
X585675Y535709D01*
X585658Y535717D01*
X585643Y535729D01*
X585546Y535768D01*
X585452Y535812D01*
X585433Y535814D01*
X585415Y535821D01*
X585249Y535839D01*
X339558Y535839D01*
X339487Y535828D01*
X339415Y535826D01*
X339366Y535808D01*
X339315Y535800D01*
X339252Y535766D01*
X339184Y535741D01*
X339144Y535709D01*
X339098Y535684D01*
X339048Y535632D01*
X338992Y535588D01*
X338964Y535544D01*
X338928Y535506D01*
X338898Y535441D01*
X338859Y535381D01*
X338847Y535330D01*
X338825Y535283D01*
X338817Y535212D01*
X338799Y535142D01*
X338803Y535090D01*
X338798Y535039D01*
X338813Y534968D01*
X338818Y534897D01*
X338839Y534849D01*
X338850Y534798D01*
X338887Y534737D01*
X338915Y534671D01*
X338960Y534615D01*
X338976Y534587D01*
X338994Y534572D01*
X339020Y534540D01*
X340731Y532828D01*
X343991Y524959D01*
X343991Y516441D01*
X340731Y508572D01*
X334708Y502549D01*
X326839Y499289D01*
X318321Y499289D01*
X310452Y502549D01*
X304429Y508572D01*
X301169Y516441D01*
X301169Y524959D01*
X304429Y532828D01*
X306140Y534540D01*
X306182Y534598D01*
X306232Y534650D01*
X306254Y534697D01*
X306284Y534739D01*
X306305Y534808D01*
X306335Y534873D01*
X306341Y534925D01*
X306356Y534975D01*
X306354Y535046D01*
X306362Y535117D01*
X306351Y535168D01*
X306350Y535220D01*
X306325Y535288D01*
X306310Y535358D01*
X306283Y535403D01*
X306265Y535451D01*
X306221Y535507D01*
X306184Y535569D01*
X306144Y535603D01*
X306112Y535643D01*
X306051Y535682D01*
X305997Y535729D01*
X305949Y535748D01*
X305905Y535776D01*
X305835Y535794D01*
X305769Y535821D01*
X305697Y535829D01*
X305666Y535837D01*
X305643Y535835D01*
X305602Y535839D01*
X10922Y535839D01*
X10902Y535836D01*
X10883Y535838D01*
X10781Y535816D01*
X10679Y535800D01*
X10662Y535790D01*
X10642Y535786D01*
X10553Y535733D01*
X10462Y535684D01*
X10448Y535670D01*
X10431Y535660D01*
X10364Y535581D01*
X10292Y535506D01*
X10284Y535488D01*
X10271Y535473D01*
X10232Y535377D01*
X10189Y535283D01*
X10187Y535263D01*
X10179Y535245D01*
X10161Y535078D01*
X10161Y40239D01*
X10168Y40193D01*
X10166Y40147D01*
X10188Y40073D01*
X10200Y39996D01*
X10222Y39955D01*
X10235Y39911D01*
X10279Y39847D01*
X10316Y39778D01*
X10349Y39747D01*
X10375Y39709D01*
X10438Y39663D01*
X10494Y39609D01*
X10536Y39590D01*
X10572Y39562D01*
X10646Y39538D01*
X10717Y39505D01*
X10763Y39500D01*
X10806Y39486D01*
X10884Y39487D01*
X10961Y39478D01*
X11006Y39488D01*
X11052Y39489D01*
X11184Y39527D01*
X11202Y39531D01*
X11206Y39533D01*
X11213Y39535D01*
X15741Y41411D01*
X24259Y41411D01*
X32128Y38151D01*
X38151Y32128D01*
X41411Y24259D01*
X41411Y15741D01*
X39535Y11213D01*
X39525Y11169D01*
X39505Y11127D01*
X39497Y11050D01*
X39479Y10974D01*
X39483Y10928D01*
X39478Y10883D01*
X39495Y10806D01*
X39502Y10729D01*
X39521Y10687D01*
X39531Y10642D01*
X39571Y10575D01*
X39602Y10504D01*
X39633Y10470D01*
X39657Y10431D01*
X39716Y10380D01*
X39769Y10323D01*
X39809Y10301D01*
X39844Y10271D01*
X39916Y10242D01*
X39984Y10205D01*
X40029Y10196D01*
X40072Y10179D01*
X40208Y10164D01*
X40226Y10161D01*
X40231Y10162D01*
X40239Y10161D01*
X591820Y10161D01*
X591840Y10164D01*
G37*
%LPC*%
G36*
X270968Y47075D02*
X270968Y47075D01*
X270075Y47968D01*
X270075Y64832D01*
X270968Y65725D01*
X287832Y65725D01*
X288725Y64832D01*
X288725Y61734D01*
X288728Y61714D01*
X288726Y61695D01*
X288748Y61593D01*
X288764Y61491D01*
X288774Y61474D01*
X288778Y61454D01*
X288831Y61365D01*
X288880Y61274D01*
X288894Y61260D01*
X288904Y61243D01*
X288983Y61176D01*
X289058Y61104D01*
X289076Y61096D01*
X289091Y61083D01*
X289187Y61044D01*
X289281Y61001D01*
X289301Y60999D01*
X289319Y60991D01*
X289486Y60973D01*
X409791Y60973D01*
X409881Y60987D01*
X409972Y60995D01*
X410001Y61007D01*
X410033Y61012D01*
X410114Y61055D01*
X410198Y61091D01*
X410230Y61117D01*
X410251Y61128D01*
X410273Y61151D01*
X410329Y61196D01*
X452404Y103271D01*
X452448Y103333D01*
X452481Y103366D01*
X452486Y103379D01*
X452517Y103415D01*
X452529Y103445D01*
X452548Y103471D01*
X452575Y103558D01*
X452609Y103643D01*
X452613Y103684D01*
X452620Y103706D01*
X452619Y103738D01*
X452627Y103809D01*
X452627Y289891D01*
X452613Y289981D01*
X452605Y290072D01*
X452593Y290101D01*
X452588Y290133D01*
X452545Y290214D01*
X452509Y290298D01*
X452483Y290330D01*
X452472Y290351D01*
X452449Y290373D01*
X452404Y290429D01*
X435463Y307370D01*
X435389Y307423D01*
X435319Y307483D01*
X435289Y307495D01*
X435263Y307514D01*
X435176Y307541D01*
X435091Y307575D01*
X435050Y307579D01*
X435028Y307586D01*
X434996Y307585D01*
X434925Y307593D01*
X427696Y307593D01*
X421893Y313396D01*
X421893Y321604D01*
X427696Y327407D01*
X434925Y327407D01*
X435015Y327421D01*
X435106Y327429D01*
X435135Y327441D01*
X435167Y327446D01*
X435248Y327489D01*
X435332Y327525D01*
X435364Y327551D01*
X435385Y327562D01*
X435407Y327585D01*
X435463Y327630D01*
X439704Y331871D01*
X439757Y331945D01*
X439817Y332015D01*
X439829Y332045D01*
X439848Y332071D01*
X439875Y332158D01*
X439909Y332243D01*
X439913Y332284D01*
X439920Y332306D01*
X439919Y332338D01*
X439927Y332409D01*
X439927Y333742D01*
X439916Y333813D01*
X439914Y333885D01*
X439896Y333934D01*
X439888Y333985D01*
X439854Y334048D01*
X439829Y334116D01*
X439797Y334156D01*
X439772Y334203D01*
X439720Y334252D01*
X439676Y334308D01*
X439632Y334336D01*
X439594Y334372D01*
X439529Y334402D01*
X439469Y334441D01*
X439418Y334454D01*
X439371Y334476D01*
X439300Y334483D01*
X439230Y334501D01*
X439178Y334497D01*
X439127Y334503D01*
X439056Y334487D01*
X438985Y334482D01*
X438937Y334461D01*
X438886Y334450D01*
X438825Y334414D01*
X438759Y334385D01*
X438703Y334341D01*
X438675Y334324D01*
X438660Y334306D01*
X438628Y334281D01*
X436324Y331977D01*
X433323Y331977D01*
X433323Y342138D01*
X433320Y342158D01*
X433322Y342177D01*
X433300Y342279D01*
X433283Y342381D01*
X433274Y342398D01*
X433270Y342418D01*
X433217Y342507D01*
X433168Y342598D01*
X433154Y342612D01*
X433144Y342629D01*
X433065Y342696D01*
X432990Y342767D01*
X432972Y342776D01*
X432957Y342789D01*
X432861Y342827D01*
X432767Y342871D01*
X432747Y342873D01*
X432729Y342881D01*
X432562Y342899D01*
X431799Y342899D01*
X431799Y342901D01*
X432562Y342901D01*
X432582Y342904D01*
X432601Y342902D01*
X432703Y342924D01*
X432805Y342941D01*
X432822Y342950D01*
X432842Y342954D01*
X432931Y343007D01*
X433022Y343056D01*
X433036Y343070D01*
X433053Y343080D01*
X433120Y343159D01*
X433191Y343234D01*
X433200Y343252D01*
X433213Y343267D01*
X433252Y343363D01*
X433295Y343457D01*
X433297Y343477D01*
X433305Y343495D01*
X433323Y343662D01*
X433323Y353823D01*
X436324Y353823D01*
X438882Y351265D01*
X438940Y351223D01*
X438992Y351174D01*
X439039Y351152D01*
X439081Y351122D01*
X439150Y351101D01*
X439215Y351070D01*
X439267Y351065D01*
X439317Y351049D01*
X439388Y351051D01*
X439459Y351043D01*
X439510Y351054D01*
X439562Y351056D01*
X439630Y351080D01*
X439700Y351096D01*
X439745Y351122D01*
X439793Y351140D01*
X439849Y351185D01*
X439911Y351222D01*
X439945Y351261D01*
X439985Y351294D01*
X440024Y351354D01*
X440071Y351409D01*
X440090Y351457D01*
X440118Y351501D01*
X440136Y351570D01*
X440163Y351637D01*
X440171Y351708D01*
X440179Y351739D01*
X440177Y351763D01*
X440181Y351804D01*
X440181Y449733D01*
X440170Y449804D01*
X440168Y449876D01*
X440150Y449925D01*
X440142Y449976D01*
X440108Y450039D01*
X440083Y450107D01*
X440051Y450147D01*
X440026Y450193D01*
X439974Y450243D01*
X439930Y450299D01*
X439886Y450327D01*
X439848Y450363D01*
X439783Y450393D01*
X439723Y450432D01*
X439672Y450444D01*
X439625Y450466D01*
X439554Y450474D01*
X439484Y450492D01*
X439432Y450488D01*
X439381Y450493D01*
X439310Y450478D01*
X439239Y450473D01*
X439191Y450452D01*
X439140Y450441D01*
X439079Y450404D01*
X439013Y450376D01*
X438957Y450332D01*
X438929Y450315D01*
X438914Y450297D01*
X438882Y450272D01*
X435904Y447293D01*
X428675Y447293D01*
X428585Y447279D01*
X428494Y447271D01*
X428465Y447259D01*
X428433Y447254D01*
X428352Y447211D01*
X428268Y447175D01*
X428236Y447149D01*
X428215Y447138D01*
X428193Y447115D01*
X428137Y447070D01*
X296568Y315501D01*
X296515Y315427D01*
X296455Y315357D01*
X296443Y315327D01*
X296424Y315301D01*
X296397Y315214D01*
X296363Y315129D01*
X296359Y315088D01*
X296352Y315066D01*
X296353Y315034D01*
X296345Y314963D01*
X296345Y303381D01*
X286419Y293455D01*
X285970Y293455D01*
X285899Y293444D01*
X285827Y293442D01*
X285778Y293424D01*
X285727Y293416D01*
X285664Y293382D01*
X285596Y293357D01*
X285556Y293325D01*
X285510Y293300D01*
X285460Y293248D01*
X285404Y293204D01*
X285376Y293160D01*
X285340Y293122D01*
X285310Y293057D01*
X285271Y292997D01*
X285259Y292946D01*
X285237Y292899D01*
X285229Y292828D01*
X285211Y292758D01*
X285215Y292706D01*
X285209Y292655D01*
X285225Y292584D01*
X285230Y292513D01*
X285251Y292465D01*
X285262Y292414D01*
X285299Y292353D01*
X285327Y292287D01*
X285371Y292231D01*
X285388Y292203D01*
X285406Y292188D01*
X285431Y292156D01*
X287305Y290282D01*
X288725Y286855D01*
X288725Y283145D01*
X287305Y279718D01*
X284682Y277095D01*
X281255Y275675D01*
X277545Y275675D01*
X274118Y277095D01*
X272900Y278313D01*
X272842Y278354D01*
X272790Y278404D01*
X272743Y278426D01*
X272701Y278456D01*
X272632Y278477D01*
X272567Y278507D01*
X272515Y278513D01*
X272465Y278528D01*
X272394Y278527D01*
X272323Y278535D01*
X272272Y278523D01*
X272220Y278522D01*
X272152Y278497D01*
X272082Y278482D01*
X272037Y278456D01*
X271989Y278438D01*
X271933Y278393D01*
X271871Y278356D01*
X271837Y278317D01*
X271797Y278284D01*
X271758Y278224D01*
X271711Y278169D01*
X271692Y278121D01*
X271664Y278077D01*
X271646Y278008D01*
X271619Y277941D01*
X271611Y277870D01*
X271603Y277839D01*
X271605Y277815D01*
X271601Y277774D01*
X271601Y266826D01*
X271612Y266755D01*
X271614Y266683D01*
X271632Y266634D01*
X271640Y266583D01*
X271674Y266520D01*
X271699Y266452D01*
X271731Y266412D01*
X271756Y266366D01*
X271808Y266316D01*
X271852Y266260D01*
X271896Y266232D01*
X271934Y266196D01*
X271999Y266166D01*
X272059Y266127D01*
X272110Y266115D01*
X272157Y266093D01*
X272228Y266085D01*
X272298Y266067D01*
X272350Y266071D01*
X272401Y266065D01*
X272472Y266081D01*
X272543Y266086D01*
X272591Y266107D01*
X272642Y266118D01*
X272703Y266155D01*
X272769Y266183D01*
X272825Y266227D01*
X272853Y266244D01*
X272868Y266262D01*
X272900Y266287D01*
X274118Y267505D01*
X277545Y268925D01*
X281255Y268925D01*
X284682Y267505D01*
X287305Y264882D01*
X288725Y261455D01*
X288725Y257745D01*
X287305Y254318D01*
X284682Y251695D01*
X281255Y250275D01*
X277545Y250275D01*
X274118Y251695D01*
X272900Y252913D01*
X272842Y252954D01*
X272790Y253004D01*
X272743Y253026D01*
X272701Y253056D01*
X272632Y253077D01*
X272567Y253107D01*
X272515Y253113D01*
X272465Y253128D01*
X272394Y253127D01*
X272323Y253135D01*
X272272Y253123D01*
X272220Y253122D01*
X272152Y253097D01*
X272082Y253082D01*
X272037Y253056D01*
X271989Y253038D01*
X271933Y252993D01*
X271871Y252956D01*
X271837Y252917D01*
X271797Y252884D01*
X271758Y252824D01*
X271711Y252769D01*
X271692Y252721D01*
X271664Y252677D01*
X271646Y252608D01*
X271619Y252541D01*
X271611Y252470D01*
X271603Y252439D01*
X271605Y252415D01*
X271601Y252374D01*
X271601Y241426D01*
X271612Y241355D01*
X271614Y241283D01*
X271632Y241234D01*
X271640Y241183D01*
X271674Y241120D01*
X271699Y241052D01*
X271731Y241012D01*
X271756Y240966D01*
X271808Y240916D01*
X271852Y240860D01*
X271896Y240832D01*
X271934Y240796D01*
X271999Y240766D01*
X272059Y240727D01*
X272110Y240715D01*
X272157Y240693D01*
X272228Y240685D01*
X272298Y240667D01*
X272350Y240671D01*
X272401Y240665D01*
X272472Y240681D01*
X272543Y240686D01*
X272591Y240707D01*
X272642Y240718D01*
X272703Y240755D01*
X272769Y240783D01*
X272825Y240827D01*
X272853Y240844D01*
X272868Y240862D01*
X272900Y240887D01*
X274118Y242105D01*
X277545Y243525D01*
X281255Y243525D01*
X284682Y242105D01*
X287305Y239482D01*
X288725Y236055D01*
X288725Y232345D01*
X287305Y228918D01*
X284682Y226295D01*
X281255Y224875D01*
X277545Y224875D01*
X274118Y226295D01*
X272900Y227513D01*
X272842Y227554D01*
X272790Y227604D01*
X272743Y227626D01*
X272701Y227656D01*
X272632Y227677D01*
X272567Y227707D01*
X272515Y227713D01*
X272465Y227728D01*
X272394Y227727D01*
X272323Y227735D01*
X272272Y227723D01*
X272220Y227722D01*
X272152Y227697D01*
X272082Y227682D01*
X272037Y227656D01*
X271989Y227638D01*
X271933Y227593D01*
X271871Y227556D01*
X271837Y227517D01*
X271797Y227484D01*
X271758Y227424D01*
X271711Y227369D01*
X271692Y227321D01*
X271664Y227277D01*
X271646Y227208D01*
X271619Y227141D01*
X271611Y227070D01*
X271603Y227039D01*
X271605Y227015D01*
X271601Y226974D01*
X271601Y216026D01*
X271612Y215955D01*
X271614Y215883D01*
X271632Y215834D01*
X271640Y215783D01*
X271674Y215720D01*
X271699Y215652D01*
X271731Y215612D01*
X271756Y215566D01*
X271808Y215516D01*
X271852Y215460D01*
X271896Y215432D01*
X271934Y215396D01*
X271999Y215366D01*
X272059Y215327D01*
X272110Y215315D01*
X272157Y215293D01*
X272228Y215285D01*
X272298Y215267D01*
X272350Y215271D01*
X272401Y215265D01*
X272472Y215281D01*
X272543Y215286D01*
X272591Y215307D01*
X272642Y215318D01*
X272703Y215355D01*
X272769Y215383D01*
X272825Y215427D01*
X272853Y215444D01*
X272868Y215462D01*
X272900Y215487D01*
X274118Y216705D01*
X277545Y218125D01*
X281255Y218125D01*
X284682Y216705D01*
X287305Y214082D01*
X288725Y210655D01*
X288725Y206945D01*
X287305Y203518D01*
X284682Y200895D01*
X281255Y199475D01*
X277545Y199475D01*
X274118Y200895D01*
X272900Y202113D01*
X272842Y202154D01*
X272790Y202204D01*
X272743Y202226D01*
X272701Y202256D01*
X272632Y202277D01*
X272567Y202307D01*
X272515Y202313D01*
X272465Y202328D01*
X272394Y202327D01*
X272323Y202335D01*
X272272Y202323D01*
X272220Y202322D01*
X272152Y202297D01*
X272082Y202282D01*
X272037Y202256D01*
X271989Y202238D01*
X271933Y202193D01*
X271871Y202156D01*
X271837Y202117D01*
X271797Y202084D01*
X271758Y202024D01*
X271711Y201969D01*
X271692Y201921D01*
X271664Y201877D01*
X271646Y201808D01*
X271619Y201741D01*
X271611Y201670D01*
X271603Y201639D01*
X271605Y201615D01*
X271601Y201574D01*
X271601Y190626D01*
X271612Y190555D01*
X271614Y190483D01*
X271632Y190434D01*
X271640Y190383D01*
X271674Y190320D01*
X271699Y190252D01*
X271731Y190212D01*
X271756Y190166D01*
X271808Y190116D01*
X271852Y190060D01*
X271896Y190032D01*
X271934Y189996D01*
X271999Y189966D01*
X272059Y189927D01*
X272110Y189915D01*
X272157Y189893D01*
X272228Y189885D01*
X272298Y189867D01*
X272350Y189871D01*
X272401Y189865D01*
X272472Y189881D01*
X272543Y189886D01*
X272591Y189907D01*
X272642Y189918D01*
X272703Y189955D01*
X272769Y189983D01*
X272825Y190027D01*
X272853Y190044D01*
X272868Y190062D01*
X272900Y190087D01*
X274118Y191305D01*
X277545Y192725D01*
X281255Y192725D01*
X284682Y191305D01*
X287305Y188682D01*
X287404Y188443D01*
X287466Y188343D01*
X287526Y188243D01*
X287531Y188239D01*
X287534Y188234D01*
X287624Y188159D01*
X287713Y188083D01*
X287719Y188081D01*
X287723Y188077D01*
X287832Y188035D01*
X287941Y187991D01*
X287948Y187990D01*
X287953Y187989D01*
X287971Y187988D01*
X288108Y187973D01*
X320891Y187973D01*
X320981Y187987D01*
X321072Y187995D01*
X321101Y188007D01*
X321133Y188012D01*
X321214Y188055D01*
X321298Y188091D01*
X321330Y188117D01*
X321351Y188128D01*
X321373Y188151D01*
X321429Y188196D01*
X328433Y195200D01*
X335591Y195200D01*
X335662Y195211D01*
X335733Y195213D01*
X335782Y195231D01*
X335834Y195239D01*
X335897Y195273D01*
X335964Y195298D01*
X336005Y195330D01*
X336051Y195355D01*
X336101Y195407D01*
X336157Y195451D01*
X336185Y195495D01*
X336221Y195533D01*
X336251Y195598D01*
X336290Y195658D01*
X336302Y195709D01*
X336324Y195756D01*
X336332Y195827D01*
X336350Y195897D01*
X336346Y195949D01*
X336351Y196000D01*
X336336Y196071D01*
X336330Y196142D01*
X336310Y196190D01*
X336299Y196241D01*
X336262Y196302D01*
X336234Y196368D01*
X336189Y196424D01*
X336173Y196452D01*
X336155Y196467D01*
X336129Y196499D01*
X334824Y197804D01*
X333374Y201305D01*
X333374Y205095D01*
X334824Y208596D01*
X337504Y211276D01*
X341005Y212726D01*
X344795Y212726D01*
X345148Y212579D01*
X345262Y212553D01*
X345375Y212524D01*
X345381Y212525D01*
X345387Y212523D01*
X345504Y212534D01*
X345620Y212543D01*
X345626Y212546D01*
X345632Y212546D01*
X345740Y212594D01*
X345847Y212640D01*
X345852Y212644D01*
X345857Y212646D01*
X345871Y212659D01*
X345978Y212744D01*
X350804Y217571D01*
X350857Y217645D01*
X350917Y217715D01*
X350929Y217745D01*
X350948Y217771D01*
X350975Y217858D01*
X351009Y217943D01*
X351013Y217984D01*
X351020Y218006D01*
X351019Y218038D01*
X351027Y218109D01*
X351027Y219981D01*
X351016Y220052D01*
X351014Y220124D01*
X350996Y220173D01*
X350988Y220224D01*
X350954Y220287D01*
X350929Y220355D01*
X350897Y220395D01*
X350872Y220441D01*
X350820Y220491D01*
X350776Y220547D01*
X350732Y220575D01*
X350694Y220611D01*
X350629Y220641D01*
X350569Y220680D01*
X350518Y220692D01*
X350471Y220714D01*
X350400Y220722D01*
X350330Y220740D01*
X350278Y220736D01*
X350227Y220741D01*
X350156Y220726D01*
X350085Y220721D01*
X350037Y220700D01*
X349986Y220689D01*
X349925Y220652D01*
X349859Y220624D01*
X349803Y220580D01*
X349775Y220563D01*
X349760Y220545D01*
X349728Y220520D01*
X347267Y218058D01*
X344423Y218058D01*
X344423Y227838D01*
X344420Y227858D01*
X344422Y227877D01*
X344400Y227979D01*
X344383Y228081D01*
X344374Y228098D01*
X344370Y228118D01*
X344317Y228207D01*
X344268Y228298D01*
X344254Y228312D01*
X344244Y228329D01*
X344165Y228396D01*
X344090Y228467D01*
X344072Y228476D01*
X344057Y228489D01*
X343961Y228527D01*
X343867Y228571D01*
X343847Y228573D01*
X343829Y228581D01*
X343662Y228599D01*
X342899Y228599D01*
X342899Y228601D01*
X343662Y228601D01*
X343682Y228604D01*
X343701Y228602D01*
X343803Y228624D01*
X343905Y228641D01*
X343922Y228650D01*
X343942Y228654D01*
X344031Y228707D01*
X344122Y228756D01*
X344136Y228770D01*
X344153Y228780D01*
X344220Y228859D01*
X344291Y228934D01*
X344300Y228952D01*
X344313Y228967D01*
X344352Y229063D01*
X344395Y229157D01*
X344397Y229177D01*
X344405Y229195D01*
X344423Y229362D01*
X344423Y239142D01*
X347267Y239142D01*
X349728Y236680D01*
X349786Y236639D01*
X349838Y236589D01*
X349885Y236567D01*
X349927Y236537D01*
X349996Y236516D01*
X350061Y236486D01*
X350113Y236480D01*
X350163Y236465D01*
X350234Y236466D01*
X350305Y236459D01*
X350356Y236470D01*
X350408Y236471D01*
X350476Y236496D01*
X350546Y236511D01*
X350591Y236538D01*
X350639Y236555D01*
X350695Y236600D01*
X350757Y236637D01*
X350791Y236677D01*
X350831Y236709D01*
X350870Y236769D01*
X350917Y236824D01*
X350936Y236872D01*
X350964Y236916D01*
X350982Y236985D01*
X351009Y237052D01*
X351017Y237123D01*
X351025Y237155D01*
X351023Y237178D01*
X351027Y237219D01*
X351027Y246818D01*
X351016Y246889D01*
X351014Y246960D01*
X350996Y247009D01*
X350988Y247061D01*
X350954Y247124D01*
X350929Y247191D01*
X350897Y247232D01*
X350872Y247278D01*
X350820Y247328D01*
X350776Y247384D01*
X350732Y247412D01*
X350694Y247448D01*
X350629Y247478D01*
X350569Y247517D01*
X350518Y247529D01*
X350471Y247551D01*
X350400Y247559D01*
X350330Y247577D01*
X350278Y247573D01*
X350227Y247578D01*
X350156Y247563D01*
X350085Y247557D01*
X350037Y247537D01*
X349986Y247526D01*
X349925Y247489D01*
X349859Y247461D01*
X349803Y247416D01*
X349775Y247400D01*
X349760Y247382D01*
X349728Y247356D01*
X348296Y245924D01*
X344795Y244474D01*
X341005Y244474D01*
X337504Y245924D01*
X334824Y248604D01*
X333374Y252105D01*
X333374Y255895D01*
X334824Y259396D01*
X337504Y262076D01*
X341005Y263526D01*
X344795Y263526D01*
X348296Y262076D01*
X349728Y260644D01*
X349786Y260602D01*
X349838Y260552D01*
X349885Y260531D01*
X349927Y260500D01*
X349996Y260479D01*
X350061Y260449D01*
X350113Y260443D01*
X350163Y260428D01*
X350234Y260430D01*
X350305Y260422D01*
X350356Y260433D01*
X350408Y260434D01*
X350476Y260459D01*
X350546Y260474D01*
X350591Y260501D01*
X350639Y260519D01*
X350695Y260563D01*
X350757Y260600D01*
X350791Y260640D01*
X350831Y260672D01*
X350870Y260733D01*
X350917Y260787D01*
X350936Y260835D01*
X350964Y260879D01*
X350982Y260949D01*
X351009Y261015D01*
X351017Y261087D01*
X351025Y261118D01*
X351023Y261141D01*
X351027Y261182D01*
X351027Y282347D01*
X351013Y282437D01*
X351005Y282528D01*
X350993Y282558D01*
X350988Y282590D01*
X350945Y282671D01*
X350909Y282755D01*
X350883Y282787D01*
X350872Y282807D01*
X350849Y282830D01*
X350804Y282885D01*
X345693Y287996D01*
X345693Y296204D01*
X351496Y302007D01*
X359704Y302007D01*
X365507Y296204D01*
X365507Y287996D01*
X360396Y282885D01*
X360343Y282811D01*
X360283Y282742D01*
X360271Y282712D01*
X360252Y282686D01*
X360225Y282599D01*
X360191Y282514D01*
X360187Y282473D01*
X360180Y282451D01*
X360181Y282418D01*
X360173Y282347D01*
X360173Y228777D01*
X360184Y228707D01*
X360186Y228635D01*
X360204Y228586D01*
X360212Y228535D01*
X360246Y228471D01*
X360271Y228404D01*
X360303Y228363D01*
X360328Y228317D01*
X360380Y228268D01*
X360424Y228212D01*
X360468Y228184D01*
X360506Y228148D01*
X360571Y228118D01*
X360631Y228079D01*
X360682Y228066D01*
X360729Y228044D01*
X360800Y228036D01*
X360870Y228019D01*
X360922Y228023D01*
X360973Y228017D01*
X361044Y228032D01*
X361115Y228038D01*
X361163Y228058D01*
X361214Y228069D01*
X361275Y228106D01*
X361341Y228134D01*
X361397Y228179D01*
X361425Y228196D01*
X361440Y228213D01*
X361472Y228239D01*
X361549Y228316D01*
X421670Y288437D01*
X421723Y288511D01*
X421783Y288581D01*
X421795Y288611D01*
X421814Y288637D01*
X421841Y288724D01*
X421875Y288809D01*
X421879Y288850D01*
X421886Y288872D01*
X421885Y288904D01*
X421893Y288975D01*
X421893Y296204D01*
X427696Y302007D01*
X435904Y302007D01*
X441707Y296204D01*
X441707Y287996D01*
X435904Y282193D01*
X428675Y282193D01*
X428585Y282179D01*
X428494Y282171D01*
X428465Y282159D01*
X428433Y282154D01*
X428352Y282111D01*
X428268Y282075D01*
X428236Y282049D01*
X428215Y282038D01*
X428193Y282015D01*
X428137Y281970D01*
X368016Y221849D01*
X367963Y221775D01*
X367903Y221705D01*
X367891Y221675D01*
X367872Y221649D01*
X367845Y221562D01*
X367811Y221477D01*
X367807Y221436D01*
X367800Y221414D01*
X367801Y221382D01*
X367793Y221311D01*
X367793Y203845D01*
X364891Y200943D01*
X350316Y186369D01*
X350305Y186352D01*
X350289Y186340D01*
X350233Y186253D01*
X350173Y186169D01*
X350167Y186150D01*
X350156Y186133D01*
X350131Y186032D01*
X350100Y185934D01*
X350101Y185914D01*
X350096Y185894D01*
X350104Y185791D01*
X350107Y185688D01*
X350114Y185669D01*
X350115Y185649D01*
X350156Y185554D01*
X350191Y185457D01*
X350204Y185441D01*
X350211Y185423D01*
X350316Y185292D01*
X353442Y182167D01*
X353442Y179323D01*
X343662Y179323D01*
X343642Y179320D01*
X343623Y179322D01*
X343521Y179300D01*
X343419Y179283D01*
X343402Y179274D01*
X343382Y179270D01*
X343293Y179217D01*
X343202Y179168D01*
X343188Y179154D01*
X343171Y179144D01*
X343104Y179065D01*
X343033Y178990D01*
X343024Y178972D01*
X343011Y178957D01*
X342973Y178861D01*
X342929Y178767D01*
X342927Y178747D01*
X342919Y178729D01*
X342901Y178562D01*
X342901Y177799D01*
X342899Y177799D01*
X342899Y178562D01*
X342896Y178582D01*
X342898Y178601D01*
X342876Y178703D01*
X342859Y178805D01*
X342850Y178822D01*
X342846Y178842D01*
X342793Y178931D01*
X342744Y179022D01*
X342730Y179036D01*
X342720Y179053D01*
X342641Y179120D01*
X342566Y179191D01*
X342548Y179200D01*
X342533Y179213D01*
X342437Y179252D01*
X342343Y179295D01*
X342323Y179297D01*
X342305Y179305D01*
X342138Y179323D01*
X332358Y179323D01*
X332358Y182167D01*
X334947Y184755D01*
X334988Y184813D01*
X335038Y184865D01*
X335060Y184912D01*
X335090Y184954D01*
X335111Y185023D01*
X335141Y185088D01*
X335147Y185140D01*
X335162Y185190D01*
X335161Y185261D01*
X335168Y185332D01*
X335157Y185383D01*
X335156Y185435D01*
X335131Y185503D01*
X335116Y185573D01*
X335089Y185618D01*
X335072Y185666D01*
X335027Y185722D01*
X334990Y185784D01*
X334950Y185818D01*
X334918Y185858D01*
X334858Y185897D01*
X334803Y185944D01*
X334755Y185963D01*
X334711Y185991D01*
X334642Y186009D01*
X334575Y186036D01*
X334504Y186044D01*
X334472Y186052D01*
X334449Y186050D01*
X334408Y186054D01*
X332536Y186054D01*
X332446Y186040D01*
X332355Y186032D01*
X332326Y186020D01*
X332294Y186015D01*
X332213Y185972D01*
X332129Y185936D01*
X332097Y185910D01*
X332076Y185899D01*
X332054Y185876D01*
X331998Y185831D01*
X324994Y178827D01*
X288108Y178827D01*
X287993Y178808D01*
X287877Y178791D01*
X287871Y178789D01*
X287865Y178788D01*
X287763Y178733D01*
X287657Y178680D01*
X287653Y178675D01*
X287647Y178672D01*
X287567Y178588D01*
X287485Y178504D01*
X287482Y178498D01*
X287478Y178494D01*
X287470Y178477D01*
X287404Y178357D01*
X287305Y178118D01*
X284682Y175495D01*
X281255Y174075D01*
X279533Y174075D01*
X279462Y174064D01*
X279390Y174062D01*
X279341Y174044D01*
X279290Y174036D01*
X279227Y174002D01*
X279159Y173977D01*
X279119Y173945D01*
X279073Y173920D01*
X279023Y173868D01*
X278967Y173824D01*
X278939Y173780D01*
X278903Y173742D01*
X278873Y173677D01*
X278834Y173617D01*
X278821Y173566D01*
X278800Y173519D01*
X278792Y173448D01*
X278774Y173378D01*
X278778Y173326D01*
X278772Y173275D01*
X278788Y173204D01*
X278793Y173133D01*
X278814Y173085D01*
X278825Y173034D01*
X278862Y172973D01*
X278890Y172907D01*
X278934Y172851D01*
X278951Y172823D01*
X278969Y172808D01*
X278994Y172776D01*
X283973Y167797D01*
X283973Y166708D01*
X283992Y166593D01*
X284009Y166477D01*
X284011Y166471D01*
X284012Y166465D01*
X284067Y166363D01*
X284120Y166257D01*
X284125Y166253D01*
X284128Y166247D01*
X284212Y166167D01*
X284296Y166085D01*
X284302Y166082D01*
X284306Y166078D01*
X284323Y166070D01*
X284443Y166004D01*
X284682Y165905D01*
X287305Y163282D01*
X288725Y159855D01*
X288725Y156145D01*
X287305Y152718D01*
X284682Y150095D01*
X281255Y148675D01*
X277545Y148675D01*
X274118Y150095D01*
X271495Y152718D01*
X270075Y156145D01*
X270075Y159855D01*
X271495Y163282D01*
X272986Y164774D01*
X272998Y164790D01*
X273014Y164802D01*
X273070Y164889D01*
X273130Y164973D01*
X273136Y164992D01*
X273147Y165009D01*
X273172Y165110D01*
X273202Y165208D01*
X273202Y165228D01*
X273207Y165248D01*
X273199Y165351D01*
X273196Y165454D01*
X273189Y165473D01*
X273188Y165493D01*
X273147Y165588D01*
X273111Y165685D01*
X273099Y165701D01*
X273091Y165719D01*
X272986Y165850D01*
X262455Y176381D01*
X262455Y292019D01*
X272986Y302550D01*
X272998Y302566D01*
X273014Y302579D01*
X273070Y302666D01*
X273130Y302750D01*
X273136Y302769D01*
X273147Y302785D01*
X273172Y302886D01*
X273202Y302985D01*
X273202Y303005D01*
X273207Y303024D01*
X273199Y303127D01*
X273196Y303231D01*
X273189Y303249D01*
X273187Y303269D01*
X273147Y303364D01*
X273111Y303462D01*
X273099Y303477D01*
X273091Y303495D01*
X272986Y303626D01*
X271495Y305118D01*
X270075Y308545D01*
X270075Y312255D01*
X271495Y315682D01*
X274118Y318305D01*
X277545Y319725D01*
X281255Y319725D01*
X284682Y318305D01*
X285900Y317087D01*
X285958Y317046D01*
X286010Y316996D01*
X286057Y316974D01*
X286099Y316944D01*
X286168Y316923D01*
X286233Y316893D01*
X286285Y316887D01*
X286335Y316872D01*
X286406Y316873D01*
X286477Y316865D01*
X286528Y316877D01*
X286580Y316878D01*
X286648Y316903D01*
X286718Y316918D01*
X286763Y316944D01*
X286811Y316962D01*
X286867Y317007D01*
X286929Y317044D01*
X286963Y317083D01*
X287003Y317116D01*
X287042Y317176D01*
X287089Y317231D01*
X287108Y317279D01*
X287136Y317323D01*
X287154Y317392D01*
X287181Y317459D01*
X287189Y317530D01*
X287197Y317561D01*
X287195Y317585D01*
X287199Y317626D01*
X287199Y319066D01*
X421670Y453537D01*
X421723Y453611D01*
X421783Y453681D01*
X421795Y453711D01*
X421814Y453737D01*
X421841Y453824D01*
X421875Y453909D01*
X421879Y453950D01*
X421886Y453972D01*
X421885Y454004D01*
X421893Y454075D01*
X421893Y461304D01*
X427696Y467107D01*
X435904Y467107D01*
X438882Y464128D01*
X438940Y464087D01*
X438992Y464037D01*
X439039Y464015D01*
X439081Y463985D01*
X439150Y463964D01*
X439215Y463934D01*
X439267Y463928D01*
X439317Y463913D01*
X439388Y463914D01*
X439459Y463907D01*
X439510Y463918D01*
X439562Y463919D01*
X439630Y463944D01*
X439700Y463959D01*
X439745Y463986D01*
X439793Y464003D01*
X439849Y464048D01*
X439911Y464085D01*
X439945Y464125D01*
X439985Y464157D01*
X440024Y464217D01*
X440071Y464272D01*
X440090Y464320D01*
X440118Y464364D01*
X440136Y464433D01*
X440163Y464500D01*
X440171Y464571D01*
X440179Y464603D01*
X440177Y464626D01*
X440181Y464667D01*
X440181Y467437D01*
X440167Y467527D01*
X440159Y467618D01*
X440147Y467647D01*
X440142Y467679D01*
X440099Y467760D01*
X440063Y467844D01*
X440037Y467876D01*
X440026Y467897D01*
X440003Y467919D01*
X439958Y467975D01*
X435463Y472470D01*
X435389Y472523D01*
X435319Y472583D01*
X435289Y472595D01*
X435263Y472614D01*
X435176Y472641D01*
X435091Y472675D01*
X435050Y472679D01*
X435028Y472686D01*
X434996Y472685D01*
X434925Y472693D01*
X427696Y472693D01*
X421893Y478496D01*
X421893Y486704D01*
X427696Y492507D01*
X435904Y492507D01*
X441707Y486704D01*
X441707Y479475D01*
X441721Y479385D01*
X441729Y479294D01*
X441741Y479265D01*
X441746Y479233D01*
X441789Y479152D01*
X441825Y479068D01*
X441851Y479036D01*
X441862Y479015D01*
X441885Y478993D01*
X441930Y478937D01*
X446425Y474442D01*
X449327Y471540D01*
X449327Y335640D01*
X449296Y335609D01*
X449243Y335535D01*
X449183Y335466D01*
X449171Y335436D01*
X449152Y335409D01*
X449125Y335322D01*
X449091Y335238D01*
X449087Y335197D01*
X449080Y335174D01*
X449081Y335142D01*
X449073Y335071D01*
X449073Y328306D01*
X441930Y321163D01*
X441877Y321089D01*
X441817Y321019D01*
X441805Y320989D01*
X441786Y320963D01*
X441759Y320876D01*
X441725Y320791D01*
X441721Y320750D01*
X441714Y320728D01*
X441715Y320696D01*
X441707Y320625D01*
X441707Y314375D01*
X441721Y314285D01*
X441729Y314194D01*
X441741Y314165D01*
X441746Y314133D01*
X441789Y314052D01*
X441825Y313968D01*
X441851Y313936D01*
X441862Y313915D01*
X441885Y313893D01*
X441930Y313837D01*
X461773Y293994D01*
X461773Y228312D01*
X461780Y228267D01*
X461778Y228221D01*
X461800Y228146D01*
X461812Y228069D01*
X461834Y228029D01*
X461847Y227985D01*
X461891Y227921D01*
X461928Y227852D01*
X461961Y227820D01*
X461987Y227783D01*
X462050Y227736D01*
X462106Y227682D01*
X462148Y227663D01*
X462184Y227636D01*
X462258Y227612D01*
X462329Y227579D01*
X462375Y227574D01*
X462418Y227560D01*
X462496Y227560D01*
X462573Y227552D01*
X462618Y227561D01*
X462664Y227562D01*
X462796Y227600D01*
X462814Y227604D01*
X462818Y227607D01*
X462825Y227609D01*
X465037Y228525D01*
X468643Y228525D01*
X471975Y227145D01*
X474525Y224595D01*
X475905Y221263D01*
X475905Y217657D01*
X474525Y214325D01*
X471975Y211775D01*
X468643Y210395D01*
X465037Y210395D01*
X462825Y211311D01*
X462781Y211322D01*
X462739Y211341D01*
X462662Y211350D01*
X462586Y211368D01*
X462540Y211363D01*
X462495Y211368D01*
X462418Y211352D01*
X462341Y211344D01*
X462299Y211326D01*
X462254Y211316D01*
X462187Y211276D01*
X462116Y211244D01*
X462082Y211213D01*
X462043Y211190D01*
X461992Y211131D01*
X461935Y211078D01*
X461913Y211038D01*
X461883Y211003D01*
X461854Y210931D01*
X461817Y210863D01*
X461808Y210817D01*
X461791Y210775D01*
X461776Y210639D01*
X461773Y210620D01*
X461774Y210615D01*
X461773Y210608D01*
X461773Y99706D01*
X413894Y51827D01*
X289486Y51827D01*
X289466Y51824D01*
X289447Y51826D01*
X289345Y51804D01*
X289243Y51788D01*
X289226Y51778D01*
X289206Y51774D01*
X289117Y51721D01*
X289026Y51672D01*
X289012Y51658D01*
X288995Y51648D01*
X288928Y51569D01*
X288856Y51494D01*
X288848Y51476D01*
X288835Y51461D01*
X288796Y51365D01*
X288753Y51271D01*
X288751Y51251D01*
X288743Y51233D01*
X288725Y51066D01*
X288725Y47968D01*
X287832Y47075D01*
X270968Y47075D01*
G37*
%LPD*%
%LPC*%
G36*
X523647Y318715D02*
X523647Y318715D01*
X519778Y320318D01*
X516818Y323278D01*
X515215Y327147D01*
X515215Y331333D01*
X516818Y335202D01*
X519778Y338162D01*
X523647Y339765D01*
X545833Y339765D01*
X549702Y338162D01*
X552662Y335202D01*
X554265Y331333D01*
X554265Y327147D01*
X552662Y323278D01*
X549702Y320318D01*
X545833Y318715D01*
X523647Y318715D01*
G37*
%LPD*%
%LPC*%
G36*
X473647Y343715D02*
X473647Y343715D01*
X469778Y345318D01*
X466818Y348278D01*
X465215Y352147D01*
X465215Y356333D01*
X466818Y360202D01*
X469778Y363162D01*
X473647Y364765D01*
X495833Y364765D01*
X499702Y363162D01*
X502662Y360202D01*
X504265Y356333D01*
X504265Y352147D01*
X502662Y348278D01*
X499702Y345318D01*
X495833Y343715D01*
X473647Y343715D01*
G37*
%LPD*%
%LPC*%
G36*
X473647Y435955D02*
X473647Y435955D01*
X469778Y437558D01*
X466818Y440518D01*
X465215Y444387D01*
X465215Y448573D01*
X466818Y452442D01*
X469778Y455402D01*
X473647Y457005D01*
X495833Y457005D01*
X499702Y455402D01*
X502662Y452442D01*
X504265Y448573D01*
X504265Y444387D01*
X502662Y440518D01*
X499702Y437558D01*
X495833Y435955D01*
X473647Y435955D01*
G37*
%LPD*%
%LPC*%
G36*
X473647Y268715D02*
X473647Y268715D01*
X469778Y270318D01*
X466818Y273278D01*
X465215Y277147D01*
X465215Y281333D01*
X466818Y285202D01*
X469778Y288162D01*
X473647Y289765D01*
X495833Y289765D01*
X499702Y288162D01*
X502662Y285202D01*
X504265Y281333D01*
X504265Y277147D01*
X502662Y273278D01*
X499702Y270318D01*
X495833Y268715D01*
X473647Y268715D01*
G37*
%LPD*%
%LPC*%
G36*
X473647Y368715D02*
X473647Y368715D01*
X469778Y370318D01*
X466818Y373278D01*
X465215Y377147D01*
X465215Y381333D01*
X466818Y385202D01*
X469778Y388162D01*
X473647Y389765D01*
X495833Y389765D01*
X499702Y388162D01*
X502662Y385202D01*
X504265Y381333D01*
X504265Y377147D01*
X502662Y373278D01*
X499702Y370318D01*
X495833Y368715D01*
X473647Y368715D01*
G37*
%LPD*%
%LPC*%
G36*
X473647Y293715D02*
X473647Y293715D01*
X469778Y295318D01*
X466818Y298278D01*
X465215Y302147D01*
X465215Y306333D01*
X466818Y310202D01*
X469778Y313162D01*
X473647Y314765D01*
X495833Y314765D01*
X499702Y313162D01*
X502662Y310202D01*
X504265Y306333D01*
X504265Y302147D01*
X502662Y298278D01*
X499702Y295318D01*
X495833Y293715D01*
X473647Y293715D01*
G37*
%LPD*%
%LPC*%
G36*
X473647Y485955D02*
X473647Y485955D01*
X469778Y487558D01*
X466818Y490518D01*
X465215Y494387D01*
X465215Y498573D01*
X466818Y502442D01*
X469778Y505402D01*
X473647Y507005D01*
X495833Y507005D01*
X499702Y505402D01*
X502662Y502442D01*
X504265Y498573D01*
X504265Y494387D01*
X502662Y490518D01*
X499702Y487558D01*
X495833Y485955D01*
X473647Y485955D01*
G37*
%LPD*%
%LPC*%
G36*
X523647Y460955D02*
X523647Y460955D01*
X519778Y462558D01*
X516818Y465518D01*
X515215Y469387D01*
X515215Y473573D01*
X516818Y477442D01*
X519778Y480402D01*
X523647Y482005D01*
X545833Y482005D01*
X549702Y480402D01*
X552662Y477442D01*
X554265Y473573D01*
X554265Y469387D01*
X552662Y465518D01*
X549702Y462558D01*
X545833Y460955D01*
X523647Y460955D01*
G37*
%LPD*%
%LPC*%
G36*
X473647Y510955D02*
X473647Y510955D01*
X469778Y512558D01*
X466818Y515518D01*
X465215Y519387D01*
X465215Y523573D01*
X466818Y527442D01*
X469778Y530402D01*
X473647Y532005D01*
X495833Y532005D01*
X499702Y530402D01*
X502662Y527442D01*
X504265Y523573D01*
X504265Y519387D01*
X502662Y515518D01*
X499702Y512558D01*
X495833Y510955D01*
X473647Y510955D01*
G37*
%LPD*%
%LPC*%
G36*
X473647Y410955D02*
X473647Y410955D01*
X469778Y412558D01*
X466818Y415518D01*
X465215Y419387D01*
X465215Y423573D01*
X466818Y427442D01*
X469778Y430402D01*
X473647Y432005D01*
X495833Y432005D01*
X499702Y430402D01*
X502662Y427442D01*
X504265Y423573D01*
X504265Y419387D01*
X502662Y415518D01*
X499702Y412558D01*
X495833Y410955D01*
X473647Y410955D01*
G37*
%LPD*%
%LPC*%
G36*
X391881Y110235D02*
X391881Y110235D01*
X388520Y111627D01*
X385947Y114200D01*
X384555Y117561D01*
X384555Y136439D01*
X385947Y139800D01*
X388520Y142373D01*
X391881Y143765D01*
X395519Y143765D01*
X398880Y142373D01*
X401453Y139800D01*
X402845Y136439D01*
X402845Y117561D01*
X401453Y114200D01*
X398880Y111627D01*
X395519Y110235D01*
X391881Y110235D01*
G37*
%LPD*%
%LPC*%
G36*
X366481Y110235D02*
X366481Y110235D01*
X363120Y111627D01*
X360547Y114200D01*
X359155Y117561D01*
X359155Y136439D01*
X360547Y139800D01*
X363120Y142373D01*
X366481Y143765D01*
X370119Y143765D01*
X373480Y142373D01*
X376053Y139800D01*
X377445Y136439D01*
X377445Y117561D01*
X376053Y114200D01*
X373480Y111627D01*
X370119Y110235D01*
X366481Y110235D01*
G37*
%LPD*%
%LPC*%
G36*
X417281Y110235D02*
X417281Y110235D01*
X413920Y111627D01*
X411347Y114200D01*
X409955Y117561D01*
X409955Y136439D01*
X411347Y139800D01*
X413920Y142373D01*
X417281Y143765D01*
X420919Y143765D01*
X424280Y142373D01*
X426853Y139800D01*
X428245Y136439D01*
X428245Y117561D01*
X426853Y114200D01*
X424280Y111627D01*
X420919Y110235D01*
X417281Y110235D01*
G37*
%LPD*%
%LPC*%
G36*
X351496Y307593D02*
X351496Y307593D01*
X345693Y313396D01*
X345693Y321604D01*
X351496Y327407D01*
X359704Y327407D01*
X365507Y321604D01*
X365507Y313396D01*
X359704Y307593D01*
X351496Y307593D01*
G37*
%LPD*%
%LPC*%
G36*
X351496Y332993D02*
X351496Y332993D01*
X345693Y338796D01*
X345693Y347004D01*
X351496Y352807D01*
X359704Y352807D01*
X365507Y347004D01*
X365507Y338796D01*
X359704Y332993D01*
X351496Y332993D01*
G37*
%LPD*%
%LPC*%
G36*
X351496Y447293D02*
X351496Y447293D01*
X345693Y453096D01*
X345693Y461304D01*
X351496Y467107D01*
X359704Y467107D01*
X365507Y461304D01*
X365507Y453096D01*
X359704Y447293D01*
X351496Y447293D01*
G37*
%LPD*%
%LPC*%
G36*
X351496Y472693D02*
X351496Y472693D01*
X345693Y478496D01*
X345693Y486704D01*
X351496Y492507D01*
X359704Y492507D01*
X365507Y486704D01*
X365507Y478496D01*
X359704Y472693D01*
X351496Y472693D01*
G37*
%LPD*%
%LPC*%
G36*
X351496Y498093D02*
X351496Y498093D01*
X345693Y503896D01*
X345693Y512104D01*
X351496Y517907D01*
X359704Y517907D01*
X365507Y512104D01*
X365507Y503896D01*
X359704Y498093D01*
X351496Y498093D01*
G37*
%LPD*%
%LPC*%
G36*
X341005Y409574D02*
X341005Y409574D01*
X337504Y411024D01*
X334824Y413704D01*
X333374Y417205D01*
X333374Y420995D01*
X334824Y424496D01*
X337504Y427176D01*
X341005Y428626D01*
X344795Y428626D01*
X348296Y427176D01*
X350976Y424496D01*
X352426Y420995D01*
X352426Y417205D01*
X350976Y413704D01*
X348296Y411024D01*
X344795Y409574D01*
X341005Y409574D01*
G37*
%LPD*%
%LPC*%
G36*
X23545Y428075D02*
X23545Y428075D01*
X20118Y429495D01*
X17495Y432118D01*
X16075Y435545D01*
X16075Y439255D01*
X17495Y442682D01*
X20118Y445305D01*
X23545Y446725D01*
X27255Y446725D01*
X30682Y445305D01*
X33305Y442682D01*
X34725Y439255D01*
X34725Y435545D01*
X33305Y432118D01*
X30682Y429495D01*
X27255Y428075D01*
X23545Y428075D01*
G37*
%LPD*%
%LPC*%
G36*
X277545Y428075D02*
X277545Y428075D01*
X274118Y429495D01*
X271495Y432118D01*
X270075Y435545D01*
X270075Y439255D01*
X271495Y442682D01*
X274118Y445305D01*
X277545Y446725D01*
X281255Y446725D01*
X284682Y445305D01*
X287305Y442682D01*
X288725Y439255D01*
X288725Y435545D01*
X287305Y432118D01*
X284682Y429495D01*
X281255Y428075D01*
X277545Y428075D01*
G37*
%LPD*%
%LPC*%
G36*
X277545Y453475D02*
X277545Y453475D01*
X274118Y454895D01*
X271495Y457518D01*
X270075Y460945D01*
X270075Y464655D01*
X271495Y468082D01*
X274118Y470705D01*
X277545Y472125D01*
X281255Y472125D01*
X284682Y470705D01*
X287305Y468082D01*
X288725Y464655D01*
X288725Y460945D01*
X287305Y457518D01*
X284682Y454895D01*
X281255Y453475D01*
X277545Y453475D01*
G37*
%LPD*%
%LPC*%
G36*
X23545Y402675D02*
X23545Y402675D01*
X20118Y404095D01*
X17495Y406718D01*
X16075Y410145D01*
X16075Y413855D01*
X17495Y417282D01*
X20118Y419905D01*
X23545Y421325D01*
X27255Y421325D01*
X30682Y419905D01*
X33305Y417282D01*
X34725Y413855D01*
X34725Y410145D01*
X33305Y406718D01*
X30682Y404095D01*
X27255Y402675D01*
X23545Y402675D01*
G37*
%LPD*%
%LPC*%
G36*
X277545Y402675D02*
X277545Y402675D01*
X274118Y404095D01*
X271495Y406718D01*
X270075Y410145D01*
X270075Y413855D01*
X271495Y417282D01*
X274118Y419905D01*
X277545Y421325D01*
X281255Y421325D01*
X284682Y419905D01*
X287305Y417282D01*
X288725Y413855D01*
X288725Y410145D01*
X287305Y406718D01*
X284682Y404095D01*
X281255Y402675D01*
X277545Y402675D01*
G37*
%LPD*%
%LPC*%
G36*
X23545Y174075D02*
X23545Y174075D01*
X20118Y175495D01*
X17495Y178118D01*
X16075Y181545D01*
X16075Y185255D01*
X17495Y188682D01*
X20118Y191305D01*
X23545Y192725D01*
X27255Y192725D01*
X30682Y191305D01*
X33305Y188682D01*
X34725Y185255D01*
X34725Y181545D01*
X33305Y178118D01*
X30682Y175495D01*
X27255Y174075D01*
X23545Y174075D01*
G37*
%LPD*%
%LPC*%
G36*
X23545Y148675D02*
X23545Y148675D01*
X20118Y150095D01*
X17495Y152718D01*
X16075Y156145D01*
X16075Y159855D01*
X17495Y163282D01*
X20118Y165905D01*
X23545Y167325D01*
X27255Y167325D01*
X30682Y165905D01*
X33305Y163282D01*
X34725Y159855D01*
X34725Y156145D01*
X33305Y152718D01*
X30682Y150095D01*
X27255Y148675D01*
X23545Y148675D01*
G37*
%LPD*%
%LPC*%
G36*
X277545Y72475D02*
X277545Y72475D01*
X274118Y73895D01*
X271495Y76518D01*
X270075Y79945D01*
X270075Y83655D01*
X271495Y87082D01*
X274118Y89705D01*
X277545Y91125D01*
X281255Y91125D01*
X284682Y89705D01*
X287305Y87082D01*
X288725Y83655D01*
X288725Y79945D01*
X287305Y76518D01*
X284682Y73895D01*
X281255Y72475D01*
X277545Y72475D01*
G37*
%LPD*%
%LPC*%
G36*
X23545Y72475D02*
X23545Y72475D01*
X20118Y73895D01*
X17495Y76518D01*
X16075Y79945D01*
X16075Y83655D01*
X17495Y87082D01*
X20118Y89705D01*
X23545Y91125D01*
X27255Y91125D01*
X30682Y89705D01*
X33305Y87082D01*
X34725Y83655D01*
X34725Y79945D01*
X33305Y76518D01*
X30682Y73895D01*
X27255Y72475D01*
X23545Y72475D01*
G37*
%LPD*%
%LPC*%
G36*
X23545Y377275D02*
X23545Y377275D01*
X20118Y378695D01*
X17495Y381318D01*
X16075Y384745D01*
X16075Y388455D01*
X17495Y391882D01*
X20118Y394505D01*
X23545Y395925D01*
X27255Y395925D01*
X30682Y394505D01*
X33305Y391882D01*
X34725Y388455D01*
X34725Y384745D01*
X33305Y381318D01*
X30682Y378695D01*
X27255Y377275D01*
X23545Y377275D01*
G37*
%LPD*%
%LPC*%
G36*
X277545Y97875D02*
X277545Y97875D01*
X274118Y99295D01*
X271495Y101918D01*
X270075Y105345D01*
X270075Y109055D01*
X271495Y112482D01*
X274118Y115105D01*
X277545Y116525D01*
X281255Y116525D01*
X284682Y115105D01*
X287305Y112482D01*
X288725Y109055D01*
X288725Y105345D01*
X287305Y101918D01*
X284682Y99295D01*
X281255Y97875D01*
X277545Y97875D01*
G37*
%LPD*%
%LPC*%
G36*
X23545Y504275D02*
X23545Y504275D01*
X20118Y505695D01*
X17495Y508318D01*
X16075Y511745D01*
X16075Y515455D01*
X17495Y518882D01*
X20118Y521505D01*
X23545Y522925D01*
X27255Y522925D01*
X30682Y521505D01*
X33305Y518882D01*
X34725Y515455D01*
X34725Y511745D01*
X33305Y508318D01*
X30682Y505695D01*
X27255Y504275D01*
X23545Y504275D01*
G37*
%LPD*%
%LPC*%
G36*
X23545Y97875D02*
X23545Y97875D01*
X20118Y99295D01*
X17495Y101918D01*
X16075Y105345D01*
X16075Y109055D01*
X17495Y112482D01*
X20118Y115105D01*
X23545Y116525D01*
X27255Y116525D01*
X30682Y115105D01*
X33305Y112482D01*
X34725Y109055D01*
X34725Y105345D01*
X33305Y101918D01*
X30682Y99295D01*
X27255Y97875D01*
X23545Y97875D01*
G37*
%LPD*%
%LPC*%
G36*
X23545Y453475D02*
X23545Y453475D01*
X20118Y454895D01*
X17495Y457518D01*
X16075Y460945D01*
X16075Y464655D01*
X17495Y468082D01*
X20118Y470705D01*
X23545Y472125D01*
X27255Y472125D01*
X30682Y470705D01*
X33305Y468082D01*
X34725Y464655D01*
X34725Y460945D01*
X33305Y457518D01*
X30682Y454895D01*
X27255Y453475D01*
X23545Y453475D01*
G37*
%LPD*%
%LPC*%
G36*
X277545Y504275D02*
X277545Y504275D01*
X274118Y505695D01*
X271495Y508318D01*
X270075Y511745D01*
X270075Y515455D01*
X271495Y518882D01*
X274118Y521505D01*
X277545Y522925D01*
X281255Y522925D01*
X284682Y521505D01*
X287305Y518882D01*
X288725Y515455D01*
X288725Y511745D01*
X287305Y508318D01*
X284682Y505695D01*
X281255Y504275D01*
X277545Y504275D01*
G37*
%LPD*%
%LPC*%
G36*
X23545Y224875D02*
X23545Y224875D01*
X20118Y226295D01*
X17495Y228918D01*
X16075Y232345D01*
X16075Y236055D01*
X17495Y239482D01*
X20118Y242105D01*
X23545Y243525D01*
X27255Y243525D01*
X30682Y242105D01*
X33305Y239482D01*
X34725Y236055D01*
X34725Y232345D01*
X33305Y228918D01*
X30682Y226295D01*
X27255Y224875D01*
X23545Y224875D01*
G37*
%LPD*%
%LPC*%
G36*
X23545Y123275D02*
X23545Y123275D01*
X20118Y124695D01*
X17495Y127318D01*
X16075Y130745D01*
X16075Y134455D01*
X17495Y137882D01*
X20118Y140505D01*
X23545Y141925D01*
X27255Y141925D01*
X30682Y140505D01*
X33305Y137882D01*
X34725Y134455D01*
X34725Y130745D01*
X33305Y127318D01*
X30682Y124695D01*
X27255Y123275D01*
X23545Y123275D01*
G37*
%LPD*%
%LPC*%
G36*
X23545Y351875D02*
X23545Y351875D01*
X20118Y353295D01*
X17495Y355918D01*
X16075Y359345D01*
X16075Y363055D01*
X17495Y366482D01*
X20118Y369105D01*
X23545Y370525D01*
X27255Y370525D01*
X30682Y369105D01*
X33305Y366482D01*
X34725Y363055D01*
X34725Y359345D01*
X33305Y355918D01*
X30682Y353295D01*
X27255Y351875D01*
X23545Y351875D01*
G37*
%LPD*%
%LPC*%
G36*
X277545Y351875D02*
X277545Y351875D01*
X274118Y353295D01*
X271495Y355918D01*
X270075Y359345D01*
X270075Y363055D01*
X271495Y366482D01*
X274118Y369105D01*
X277545Y370525D01*
X281255Y370525D01*
X284682Y369105D01*
X287305Y366482D01*
X288725Y363055D01*
X288725Y359345D01*
X287305Y355918D01*
X284682Y353295D01*
X281255Y351875D01*
X277545Y351875D01*
G37*
%LPD*%
%LPC*%
G36*
X23545Y478875D02*
X23545Y478875D01*
X20118Y480295D01*
X17495Y482918D01*
X16075Y486345D01*
X16075Y490055D01*
X17495Y493482D01*
X20118Y496105D01*
X23545Y497525D01*
X27255Y497525D01*
X30682Y496105D01*
X33305Y493482D01*
X34725Y490055D01*
X34725Y486345D01*
X33305Y482918D01*
X30682Y480295D01*
X27255Y478875D01*
X23545Y478875D01*
G37*
%LPD*%
%LPC*%
G36*
X23545Y250275D02*
X23545Y250275D01*
X20118Y251695D01*
X17495Y254318D01*
X16075Y257745D01*
X16075Y261455D01*
X17495Y264882D01*
X20118Y267505D01*
X23545Y268925D01*
X27255Y268925D01*
X30682Y267505D01*
X33305Y264882D01*
X34725Y261455D01*
X34725Y257745D01*
X33305Y254318D01*
X30682Y251695D01*
X27255Y250275D01*
X23545Y250275D01*
G37*
%LPD*%
%LPC*%
G36*
X277545Y478875D02*
X277545Y478875D01*
X274118Y480295D01*
X271495Y482918D01*
X270075Y486345D01*
X270075Y490055D01*
X271495Y493482D01*
X274118Y496105D01*
X277545Y497525D01*
X281255Y497525D01*
X284682Y496105D01*
X287305Y493482D01*
X288725Y490055D01*
X288725Y486345D01*
X287305Y482918D01*
X284682Y480295D01*
X281255Y478875D01*
X277545Y478875D01*
G37*
%LPD*%
%LPC*%
G36*
X23545Y326475D02*
X23545Y326475D01*
X20118Y327895D01*
X17495Y330518D01*
X16075Y333945D01*
X16075Y337655D01*
X17495Y341082D01*
X20118Y343705D01*
X23545Y345125D01*
X27255Y345125D01*
X30682Y343705D01*
X33305Y341082D01*
X34725Y337655D01*
X34725Y333945D01*
X33305Y330518D01*
X30682Y327895D01*
X27255Y326475D01*
X23545Y326475D01*
G37*
%LPD*%
%LPC*%
G36*
X277545Y326475D02*
X277545Y326475D01*
X274118Y327895D01*
X271495Y330518D01*
X270075Y333945D01*
X270075Y337655D01*
X271495Y341082D01*
X274118Y343705D01*
X277545Y345125D01*
X281255Y345125D01*
X284682Y343705D01*
X287305Y341082D01*
X288725Y337655D01*
X288725Y333945D01*
X287305Y330518D01*
X284682Y327895D01*
X281255Y326475D01*
X277545Y326475D01*
G37*
%LPD*%
%LPC*%
G36*
X23545Y275675D02*
X23545Y275675D01*
X20118Y277095D01*
X17495Y279718D01*
X16075Y283145D01*
X16075Y286855D01*
X17495Y290282D01*
X20118Y292905D01*
X23545Y294325D01*
X27255Y294325D01*
X30682Y292905D01*
X33305Y290282D01*
X34725Y286855D01*
X34725Y283145D01*
X33305Y279718D01*
X30682Y277095D01*
X27255Y275675D01*
X23545Y275675D01*
G37*
%LPD*%
%LPC*%
G36*
X277545Y123275D02*
X277545Y123275D01*
X274118Y124695D01*
X271495Y127318D01*
X270075Y130745D01*
X270075Y134455D01*
X271495Y137882D01*
X274118Y140505D01*
X277545Y141925D01*
X281255Y141925D01*
X284682Y140505D01*
X287305Y137882D01*
X288725Y134455D01*
X288725Y130745D01*
X287305Y127318D01*
X284682Y124695D01*
X281255Y123275D01*
X277545Y123275D01*
G37*
%LPD*%
%LPC*%
G36*
X23545Y301075D02*
X23545Y301075D01*
X20118Y302495D01*
X17495Y305118D01*
X16075Y308545D01*
X16075Y312255D01*
X17495Y315682D01*
X20118Y318305D01*
X23545Y319725D01*
X27255Y319725D01*
X30682Y318305D01*
X33305Y315682D01*
X34725Y312255D01*
X34725Y308545D01*
X33305Y305118D01*
X30682Y302495D01*
X27255Y301075D01*
X23545Y301075D01*
G37*
%LPD*%
%LPC*%
G36*
X344423Y128523D02*
X344423Y128523D01*
X344423Y144666D01*
X345279Y144531D01*
X346800Y144036D01*
X348225Y143310D01*
X349519Y142370D01*
X350650Y141239D01*
X351590Y139945D01*
X352316Y138520D01*
X352811Y136999D01*
X353061Y135420D01*
X353061Y128523D01*
X344423Y128523D01*
G37*
%LPD*%
%LPC*%
G36*
X344423Y125477D02*
X344423Y125477D01*
X353061Y125477D01*
X353061Y118580D01*
X352811Y117001D01*
X352316Y115480D01*
X351590Y114055D01*
X350650Y112761D01*
X349519Y111630D01*
X348225Y110690D01*
X346800Y109964D01*
X345279Y109469D01*
X344423Y109334D01*
X344423Y125477D01*
G37*
%LPD*%
%LPC*%
G36*
X332739Y128523D02*
X332739Y128523D01*
X332739Y135420D01*
X332989Y136999D01*
X333484Y138520D01*
X334210Y139945D01*
X335150Y141239D01*
X336281Y142370D01*
X337575Y143310D01*
X339000Y144036D01*
X340521Y144531D01*
X341377Y144666D01*
X341377Y128523D01*
X332739Y128523D01*
G37*
%LPD*%
%LPC*%
G36*
X340521Y109469D02*
X340521Y109469D01*
X339000Y109964D01*
X337575Y110690D01*
X336281Y111630D01*
X335150Y112761D01*
X334210Y114055D01*
X333484Y115480D01*
X332989Y117001D01*
X332739Y118580D01*
X332739Y125477D01*
X341377Y125477D01*
X341377Y109334D01*
X340521Y109469D01*
G37*
%LPD*%
%LPC*%
G36*
X433323Y509523D02*
X433323Y509523D01*
X433323Y518923D01*
X436324Y518923D01*
X442723Y512524D01*
X442723Y509523D01*
X433323Y509523D01*
G37*
%LPD*%
%LPC*%
G36*
X420877Y344423D02*
X420877Y344423D01*
X420877Y347424D01*
X427276Y353823D01*
X430277Y353823D01*
X430277Y344423D01*
X420877Y344423D01*
G37*
%LPD*%
%LPC*%
G36*
X433323Y497077D02*
X433323Y497077D01*
X433323Y506477D01*
X442723Y506477D01*
X442723Y503476D01*
X436324Y497077D01*
X433323Y497077D01*
G37*
%LPD*%
%LPC*%
G36*
X420877Y509523D02*
X420877Y509523D01*
X420877Y512524D01*
X427276Y518923D01*
X430277Y518923D01*
X430277Y509523D01*
X420877Y509523D01*
G37*
%LPD*%
%LPC*%
G36*
X427276Y331977D02*
X427276Y331977D01*
X420877Y338376D01*
X420877Y341377D01*
X430277Y341377D01*
X430277Y331977D01*
X427276Y331977D01*
G37*
%LPD*%
%LPC*%
G36*
X427276Y497077D02*
X427276Y497077D01*
X420877Y503476D01*
X420877Y506477D01*
X430277Y506477D01*
X430277Y497077D01*
X427276Y497077D01*
G37*
%LPD*%
%LPC*%
G36*
X344423Y395223D02*
X344423Y395223D01*
X344423Y404242D01*
X347267Y404242D01*
X353442Y398067D01*
X353442Y395223D01*
X344423Y395223D01*
G37*
%LPD*%
%LPC*%
G36*
X332358Y230123D02*
X332358Y230123D01*
X332358Y232967D01*
X338533Y239142D01*
X341377Y239142D01*
X341377Y230123D01*
X332358Y230123D01*
G37*
%LPD*%
%LPC*%
G36*
X332358Y395223D02*
X332358Y395223D01*
X332358Y398067D01*
X338533Y404242D01*
X341377Y404242D01*
X341377Y395223D01*
X332358Y395223D01*
G37*
%LPD*%
%LPC*%
G36*
X344423Y383158D02*
X344423Y383158D01*
X344423Y392177D01*
X353442Y392177D01*
X353442Y389333D01*
X347267Y383158D01*
X344423Y383158D01*
G37*
%LPD*%
%LPC*%
G36*
X344423Y167258D02*
X344423Y167258D01*
X344423Y176277D01*
X353442Y176277D01*
X353442Y173433D01*
X347267Y167258D01*
X344423Y167258D01*
G37*
%LPD*%
%LPC*%
G36*
X338533Y167258D02*
X338533Y167258D01*
X332358Y173433D01*
X332358Y176277D01*
X341377Y176277D01*
X341377Y167258D01*
X338533Y167258D01*
G37*
%LPD*%
%LPC*%
G36*
X338533Y383158D02*
X338533Y383158D01*
X332358Y389333D01*
X332358Y392177D01*
X341377Y392177D01*
X341377Y383158D01*
X338533Y383158D01*
G37*
%LPD*%
%LPC*%
G36*
X338533Y218058D02*
X338533Y218058D01*
X332358Y224233D01*
X332358Y227077D01*
X341377Y227077D01*
X341377Y218058D01*
X338533Y218058D01*
G37*
%LPD*%
%LPC*%
G36*
X26923Y57923D02*
X26923Y57923D01*
X26923Y66628D01*
X27821Y66486D01*
X29370Y65983D01*
X30820Y65244D01*
X32137Y64287D01*
X33287Y63137D01*
X34244Y61820D01*
X34983Y60370D01*
X35486Y58821D01*
X35628Y57923D01*
X26923Y57923D01*
G37*
%LPD*%
%LPC*%
G36*
X280923Y388123D02*
X280923Y388123D01*
X280923Y396828D01*
X281821Y396686D01*
X283370Y396183D01*
X284820Y395444D01*
X286137Y394487D01*
X287287Y393337D01*
X288244Y392020D01*
X288983Y390570D01*
X289486Y389021D01*
X289628Y388123D01*
X280923Y388123D01*
G37*
%LPD*%
%LPC*%
G36*
X26923Y210323D02*
X26923Y210323D01*
X26923Y219028D01*
X27821Y218886D01*
X29370Y218383D01*
X30820Y217644D01*
X32137Y216687D01*
X33287Y215537D01*
X34244Y214220D01*
X34983Y212770D01*
X35486Y211221D01*
X35628Y210323D01*
X26923Y210323D01*
G37*
%LPD*%
%LPC*%
G36*
X15172Y210323D02*
X15172Y210323D01*
X15314Y211221D01*
X15817Y212770D01*
X16556Y214220D01*
X17513Y215537D01*
X18663Y216687D01*
X19980Y217644D01*
X21430Y218383D01*
X22979Y218886D01*
X23877Y219028D01*
X23877Y210323D01*
X15172Y210323D01*
G37*
%LPD*%
%LPC*%
G36*
X269172Y388123D02*
X269172Y388123D01*
X269314Y389021D01*
X269817Y390570D01*
X270556Y392020D01*
X271513Y393337D01*
X272663Y394487D01*
X273980Y395444D01*
X275430Y396183D01*
X276979Y396686D01*
X277877Y396828D01*
X277877Y388123D01*
X269172Y388123D01*
G37*
%LPD*%
%LPC*%
G36*
X280923Y385077D02*
X280923Y385077D01*
X289628Y385077D01*
X289486Y384179D01*
X288983Y382630D01*
X288244Y381180D01*
X287287Y379863D01*
X286137Y378713D01*
X284820Y377756D01*
X283370Y377017D01*
X281821Y376514D01*
X280923Y376372D01*
X280923Y385077D01*
G37*
%LPD*%
%LPC*%
G36*
X15172Y57923D02*
X15172Y57923D01*
X15314Y58821D01*
X15817Y60370D01*
X16556Y61820D01*
X17513Y63137D01*
X18663Y64287D01*
X19980Y65244D01*
X21430Y65983D01*
X22979Y66486D01*
X23877Y66628D01*
X23877Y57923D01*
X15172Y57923D01*
G37*
%LPD*%
%LPC*%
G36*
X26923Y54877D02*
X26923Y54877D01*
X35628Y54877D01*
X35486Y53979D01*
X34983Y52430D01*
X34244Y50980D01*
X33287Y49663D01*
X32137Y48513D01*
X30820Y47556D01*
X29370Y46817D01*
X27821Y46314D01*
X26923Y46172D01*
X26923Y54877D01*
G37*
%LPD*%
%LPC*%
G36*
X26923Y207277D02*
X26923Y207277D01*
X35628Y207277D01*
X35486Y206379D01*
X34983Y204830D01*
X34244Y203380D01*
X33287Y202063D01*
X32137Y200913D01*
X30820Y199956D01*
X29370Y199217D01*
X27821Y198714D01*
X26923Y198572D01*
X26923Y207277D01*
G37*
%LPD*%
%LPC*%
G36*
X22979Y46314D02*
X22979Y46314D01*
X21430Y46817D01*
X19980Y47556D01*
X18663Y48513D01*
X17513Y49663D01*
X16556Y50980D01*
X15817Y52430D01*
X15314Y53979D01*
X15172Y54877D01*
X23877Y54877D01*
X23877Y46172D01*
X22979Y46314D01*
G37*
%LPD*%
%LPC*%
G36*
X276979Y376514D02*
X276979Y376514D01*
X275430Y377017D01*
X273980Y377756D01*
X272663Y378713D01*
X271513Y379863D01*
X270556Y381180D01*
X269817Y382630D01*
X269314Y384179D01*
X269172Y385077D01*
X277877Y385077D01*
X277877Y376372D01*
X276979Y376514D01*
G37*
%LPD*%
%LPC*%
G36*
X22979Y198714D02*
X22979Y198714D01*
X21430Y199217D01*
X19980Y199956D01*
X18663Y200913D01*
X17513Y202063D01*
X16556Y203380D01*
X15817Y204830D01*
X15314Y206379D01*
X15172Y207277D01*
X23877Y207277D01*
X23877Y198572D01*
X22979Y198714D01*
G37*
%LPD*%
%LPC*%
G36*
X468363Y40983D02*
X468363Y40983D01*
X468363Y49425D01*
X469201Y49293D01*
X470710Y48802D01*
X472123Y48082D01*
X473407Y47149D01*
X474529Y46027D01*
X475462Y44743D01*
X476182Y43330D01*
X476673Y41821D01*
X476805Y40983D01*
X468363Y40983D01*
G37*
%LPD*%
%LPC*%
G36*
X456875Y40983D02*
X456875Y40983D01*
X457007Y41821D01*
X457498Y43330D01*
X458218Y44743D01*
X459151Y46027D01*
X460273Y47149D01*
X461557Y48082D01*
X462970Y48802D01*
X464479Y49293D01*
X465317Y49425D01*
X465317Y40983D01*
X456875Y40983D01*
G37*
%LPD*%
%LPC*%
G36*
X468363Y37937D02*
X468363Y37937D01*
X476805Y37937D01*
X476673Y37099D01*
X476182Y35590D01*
X475462Y34177D01*
X474529Y32893D01*
X473407Y31771D01*
X472123Y30838D01*
X470710Y30118D01*
X469201Y29627D01*
X468363Y29495D01*
X468363Y37937D01*
G37*
%LPD*%
%LPC*%
G36*
X464479Y29627D02*
X464479Y29627D01*
X462970Y30118D01*
X461557Y30838D01*
X460273Y31771D01*
X459151Y32893D01*
X458218Y34177D01*
X457498Y35590D01*
X457007Y37099D01*
X456875Y37937D01*
X465317Y37937D01*
X465317Y29495D01*
X464479Y29627D01*
G37*
%LPD*%
%LPC*%
G36*
X25399Y56399D02*
X25399Y56399D01*
X25399Y56401D01*
X25401Y56401D01*
X25401Y56399D01*
X25399Y56399D01*
G37*
%LPD*%
%LPC*%
G36*
X279399Y386599D02*
X279399Y386599D01*
X279399Y386601D01*
X279401Y386601D01*
X279401Y386599D01*
X279399Y386599D01*
G37*
%LPD*%
%LPC*%
G36*
X342899Y126999D02*
X342899Y126999D01*
X342899Y127001D01*
X342901Y127001D01*
X342901Y126999D01*
X342899Y126999D01*
G37*
%LPD*%
%LPC*%
G36*
X431799Y507999D02*
X431799Y507999D01*
X431799Y508001D01*
X431801Y508001D01*
X431801Y507999D01*
X431799Y507999D01*
G37*
%LPD*%
%LPC*%
G36*
X466839Y39459D02*
X466839Y39459D01*
X466839Y39461D01*
X466841Y39461D01*
X466841Y39459D01*
X466839Y39459D01*
G37*
%LPD*%
%LPC*%
G36*
X25399Y208799D02*
X25399Y208799D01*
X25399Y208801D01*
X25401Y208801D01*
X25401Y208799D01*
X25399Y208799D01*
G37*
%LPD*%
%LPC*%
G36*
X342899Y393699D02*
X342899Y393699D01*
X342899Y393701D01*
X342901Y393701D01*
X342901Y393699D01*
X342899Y393699D01*
G37*
%LPD*%
D10*
X342900Y419100D03*
D11*
X342900Y393700D03*
D10*
X342900Y254000D03*
D11*
X342900Y228600D03*
D10*
X342900Y203200D03*
D11*
X342900Y177800D03*
D12*
X355600Y508000D03*
X431800Y508000D03*
D13*
X431800Y482600D03*
X355600Y482600D03*
X431800Y457200D03*
X355600Y457200D03*
D12*
X355600Y342900D03*
X431800Y342900D03*
D13*
X431800Y317500D03*
X355600Y317500D03*
X431800Y292100D03*
X355600Y292100D03*
D14*
X342900Y134620D02*
X342900Y119380D01*
X368300Y119380D02*
X368300Y134620D01*
X393700Y134620D02*
X393700Y119380D01*
X419100Y119380D02*
X419100Y134620D01*
D15*
X279400Y56400D03*
D16*
X279400Y81800D03*
X279400Y513600D03*
X279400Y107200D03*
X279400Y132600D03*
X279400Y158000D03*
X279400Y183400D03*
X279400Y208800D03*
X279400Y234200D03*
X279400Y259600D03*
X279400Y285000D03*
X279400Y310400D03*
X279400Y335800D03*
X279400Y361200D03*
X279400Y386600D03*
X279400Y412000D03*
X279400Y437400D03*
X279400Y462800D03*
X279400Y488200D03*
X25400Y56400D03*
X25400Y81800D03*
X25400Y107200D03*
X25400Y132600D03*
X25400Y158000D03*
X25400Y183400D03*
X25400Y208800D03*
X25400Y234200D03*
X25400Y259600D03*
X25400Y285000D03*
X25400Y310400D03*
X25400Y335800D03*
X25400Y361200D03*
X25400Y386600D03*
X25400Y412000D03*
X25400Y437400D03*
X25400Y462800D03*
X25400Y488200D03*
X25400Y513600D03*
D14*
X866140Y124460D02*
X881380Y124460D01*
X881380Y99060D02*
X866140Y99060D01*
D17*
X802840Y159460D03*
X802840Y99460D03*
D18*
X466840Y219460D03*
X466840Y39460D03*
D19*
X475740Y421480D02*
X493740Y421480D01*
X525740Y471480D02*
X543740Y471480D01*
X493740Y446480D02*
X475740Y446480D01*
X475740Y496480D02*
X493740Y496480D01*
X493740Y521480D02*
X475740Y521480D01*
X475740Y279240D02*
X493740Y279240D01*
X525740Y329240D02*
X543740Y329240D01*
X493740Y304240D02*
X475740Y304240D01*
X475740Y354240D02*
X493740Y354240D01*
X493740Y379240D02*
X475740Y379240D01*
D20*
X444754Y337534D02*
X444500Y337280D01*
X444500Y330200D01*
X444754Y469646D02*
X431800Y482600D01*
X444754Y469646D02*
X444754Y337534D01*
X444500Y330200D02*
X431800Y317500D01*
X457200Y292100D01*
X457200Y101600D01*
X412000Y56400D01*
X279400Y56400D01*
X355600Y215900D02*
X355600Y292100D01*
X355600Y215900D02*
X342900Y203200D01*
X284525Y298028D02*
X291772Y305275D01*
X279400Y165903D02*
X279400Y158000D01*
X291772Y317172D02*
X431800Y457200D01*
X267028Y178275D02*
X279400Y165903D01*
X291772Y305275D02*
X291772Y317172D01*
X274931Y298028D02*
X267028Y290125D01*
X274931Y298028D02*
X284525Y298028D01*
X267028Y290125D02*
X267028Y178275D01*
X279400Y183400D02*
X323100Y183400D01*
X363220Y223520D02*
X431800Y292100D01*
X330327Y190627D02*
X323100Y183400D01*
X330327Y190627D02*
X348108Y190627D01*
X363220Y205739D01*
X363220Y223520D01*
M02*
