G04 EAGLE Gerber RS-274X export*
G75*
%MOMM*%
%FSLAX34Y34*%
%LPD*%
%INSilkscreen Top*%
%IPPOS*%
%AMOC8*
5,1,8,0,0,1.08239X$1,22.5*%
G01*
%ADD10C,0.127000*%
%ADD11C,0.076200*%
%ADD12C,0.152400*%
%ADD13C,0.609600*%
%ADD14R,0.381000X0.508000*%
%ADD15C,0.280000*%
%ADD16C,0.254000*%
%ADD17C,0.200000*%


D10*
X597535Y114935D02*
X597535Y130429D01*
X597535Y123543D02*
X606143Y123543D01*
X606143Y130429D02*
X606143Y114935D01*
X613419Y114935D02*
X613419Y130429D01*
X613419Y114935D02*
X620305Y114935D01*
X626472Y114935D02*
X626472Y130429D01*
X635080Y130429D02*
X626472Y120960D01*
X629916Y124404D02*
X635080Y114935D01*
X640776Y120960D02*
X651105Y120960D01*
X657494Y114935D02*
X662658Y114935D01*
X662773Y114937D01*
X662888Y114943D01*
X663003Y114952D01*
X663117Y114966D01*
X663231Y114983D01*
X663344Y115004D01*
X663456Y115029D01*
X663568Y115057D01*
X663678Y115090D01*
X663787Y115126D01*
X663895Y115165D01*
X664002Y115208D01*
X664107Y115255D01*
X664211Y115305D01*
X664313Y115359D01*
X664413Y115416D01*
X664511Y115476D01*
X664607Y115539D01*
X664700Y115606D01*
X664792Y115676D01*
X664881Y115749D01*
X664968Y115825D01*
X665052Y115903D01*
X665133Y115984D01*
X665212Y116069D01*
X665287Y116155D01*
X665360Y116244D01*
X665430Y116336D01*
X665497Y116429D01*
X665560Y116525D01*
X665620Y116623D01*
X665677Y116723D01*
X665731Y116825D01*
X665781Y116929D01*
X665828Y117034D01*
X665871Y117141D01*
X665911Y117249D01*
X665946Y117358D01*
X665979Y117468D01*
X666007Y117580D01*
X666032Y117692D01*
X666053Y117805D01*
X666070Y117919D01*
X666084Y118033D01*
X666093Y118148D01*
X666099Y118263D01*
X666101Y118378D01*
X666101Y120100D01*
X666099Y120215D01*
X666093Y120330D01*
X666084Y120445D01*
X666070Y120559D01*
X666053Y120673D01*
X666032Y120786D01*
X666007Y120898D01*
X665979Y121010D01*
X665946Y121120D01*
X665910Y121229D01*
X665871Y121337D01*
X665828Y121444D01*
X665781Y121549D01*
X665731Y121653D01*
X665677Y121755D01*
X665620Y121855D01*
X665560Y121953D01*
X665497Y122049D01*
X665430Y122142D01*
X665360Y122234D01*
X665287Y122323D01*
X665212Y122410D01*
X665133Y122494D01*
X665052Y122575D01*
X664968Y122654D01*
X664881Y122729D01*
X664792Y122802D01*
X664700Y122872D01*
X664607Y122939D01*
X664511Y123002D01*
X664413Y123062D01*
X664313Y123119D01*
X664211Y123173D01*
X664107Y123223D01*
X664002Y123270D01*
X663895Y123313D01*
X663787Y123352D01*
X663678Y123388D01*
X663568Y123421D01*
X663456Y123449D01*
X663344Y123474D01*
X663231Y123495D01*
X663117Y123512D01*
X663003Y123526D01*
X662888Y123535D01*
X662773Y123541D01*
X662658Y123543D01*
X657494Y123543D01*
X657494Y130429D01*
X666101Y130429D01*
X672985Y130429D02*
X672985Y114935D01*
X678150Y121821D02*
X672985Y130429D01*
X678150Y121821D02*
X683315Y130429D01*
X683315Y114935D01*
X690198Y122682D02*
X690202Y122987D01*
X690213Y123291D01*
X690231Y123596D01*
X690256Y123899D01*
X690289Y124202D01*
X690329Y124505D01*
X690376Y124806D01*
X690430Y125106D01*
X690492Y125404D01*
X690560Y125701D01*
X690636Y125997D01*
X690718Y126290D01*
X690808Y126581D01*
X690905Y126870D01*
X691008Y127157D01*
X691118Y127441D01*
X691235Y127723D01*
X691359Y128001D01*
X691489Y128277D01*
X691527Y128380D01*
X691567Y128482D01*
X691612Y128582D01*
X691660Y128681D01*
X691711Y128778D01*
X691765Y128873D01*
X691823Y128967D01*
X691884Y129058D01*
X691948Y129147D01*
X692015Y129234D01*
X692085Y129318D01*
X692158Y129401D01*
X692234Y129480D01*
X692312Y129557D01*
X692393Y129631D01*
X692477Y129702D01*
X692563Y129770D01*
X692651Y129836D01*
X692741Y129898D01*
X692834Y129957D01*
X692928Y130013D01*
X693024Y130066D01*
X693122Y130115D01*
X693222Y130161D01*
X693323Y130203D01*
X693426Y130242D01*
X693530Y130277D01*
X693635Y130309D01*
X693741Y130337D01*
X693848Y130361D01*
X693956Y130382D01*
X694064Y130399D01*
X694173Y130412D01*
X694283Y130421D01*
X694392Y130427D01*
X694502Y130429D01*
X694612Y130427D01*
X694721Y130421D01*
X694831Y130412D01*
X694940Y130399D01*
X695048Y130382D01*
X695156Y130361D01*
X695263Y130337D01*
X695369Y130309D01*
X695474Y130277D01*
X695578Y130242D01*
X695681Y130203D01*
X695782Y130161D01*
X695882Y130115D01*
X695980Y130066D01*
X696076Y130013D01*
X696170Y129957D01*
X696263Y129898D01*
X696353Y129836D01*
X696441Y129770D01*
X696527Y129702D01*
X696611Y129631D01*
X696692Y129557D01*
X696770Y129480D01*
X696846Y129400D01*
X696919Y129318D01*
X696989Y129234D01*
X697056Y129147D01*
X697120Y129058D01*
X697181Y128967D01*
X697239Y128873D01*
X697293Y128778D01*
X697344Y128681D01*
X697392Y128582D01*
X697437Y128482D01*
X697477Y128380D01*
X697515Y128277D01*
X697645Y128001D01*
X697769Y127723D01*
X697886Y127441D01*
X697996Y127157D01*
X698099Y126870D01*
X698196Y126581D01*
X698286Y126290D01*
X698368Y125997D01*
X698444Y125701D01*
X698512Y125404D01*
X698574Y125106D01*
X698628Y124806D01*
X698675Y124505D01*
X698715Y124202D01*
X698748Y123899D01*
X698773Y123596D01*
X698791Y123291D01*
X698802Y122987D01*
X698806Y122682D01*
X690199Y122682D02*
X690203Y122377D01*
X690214Y122073D01*
X690232Y121768D01*
X690257Y121465D01*
X690290Y121162D01*
X690330Y120859D01*
X690377Y120558D01*
X690431Y120258D01*
X690493Y119960D01*
X690561Y119663D01*
X690637Y119367D01*
X690719Y119074D01*
X690809Y118783D01*
X690906Y118494D01*
X691009Y118207D01*
X691119Y117923D01*
X691236Y117641D01*
X691360Y117363D01*
X691490Y117087D01*
X691489Y117087D02*
X691527Y116984D01*
X691567Y116882D01*
X691612Y116782D01*
X691660Y116683D01*
X691711Y116586D01*
X691765Y116491D01*
X691823Y116397D01*
X691884Y116306D01*
X691948Y116217D01*
X692015Y116130D01*
X692085Y116045D01*
X692158Y115963D01*
X692234Y115884D01*
X692312Y115807D01*
X692393Y115733D01*
X692477Y115662D01*
X692563Y115594D01*
X692651Y115528D01*
X692741Y115466D01*
X692834Y115407D01*
X692928Y115351D01*
X693024Y115298D01*
X693123Y115249D01*
X693222Y115203D01*
X693323Y115161D01*
X693426Y115122D01*
X693530Y115087D01*
X693635Y115055D01*
X693741Y115027D01*
X693848Y115003D01*
X693956Y114982D01*
X694064Y114965D01*
X694173Y114952D01*
X694283Y114943D01*
X694392Y114937D01*
X694502Y114935D01*
X697515Y117087D02*
X697645Y117363D01*
X697769Y117641D01*
X697886Y117923D01*
X697996Y118207D01*
X698099Y118494D01*
X698196Y118783D01*
X698286Y119074D01*
X698368Y119367D01*
X698444Y119663D01*
X698512Y119960D01*
X698574Y120258D01*
X698628Y120558D01*
X698675Y120859D01*
X698715Y121162D01*
X698748Y121465D01*
X698773Y121768D01*
X698791Y122073D01*
X698802Y122377D01*
X698806Y122682D01*
X697515Y117087D02*
X697477Y116984D01*
X697437Y116882D01*
X697392Y116782D01*
X697344Y116683D01*
X697293Y116586D01*
X697239Y116491D01*
X697181Y116397D01*
X697120Y116306D01*
X697056Y116217D01*
X696989Y116130D01*
X696919Y116046D01*
X696846Y115963D01*
X696770Y115884D01*
X696692Y115807D01*
X696611Y115733D01*
X696527Y115662D01*
X696441Y115594D01*
X696353Y115528D01*
X696263Y115466D01*
X696170Y115407D01*
X696076Y115351D01*
X695980Y115298D01*
X695882Y115249D01*
X695782Y115203D01*
X695681Y115161D01*
X695578Y115122D01*
X695474Y115087D01*
X695369Y115055D01*
X695263Y115027D01*
X695156Y115003D01*
X695048Y114982D01*
X694940Y114965D01*
X694831Y114952D01*
X694721Y114943D01*
X694612Y114937D01*
X694502Y114935D01*
X691059Y118378D02*
X697945Y126986D01*
X705064Y114935D02*
X710229Y114935D01*
X710344Y114937D01*
X710459Y114943D01*
X710574Y114952D01*
X710688Y114966D01*
X710802Y114983D01*
X710915Y115004D01*
X711027Y115029D01*
X711139Y115057D01*
X711249Y115090D01*
X711358Y115126D01*
X711466Y115165D01*
X711573Y115208D01*
X711678Y115255D01*
X711782Y115305D01*
X711884Y115359D01*
X711984Y115416D01*
X712082Y115476D01*
X712178Y115539D01*
X712271Y115606D01*
X712363Y115676D01*
X712452Y115749D01*
X712539Y115825D01*
X712623Y115903D01*
X712704Y115984D01*
X712783Y116069D01*
X712858Y116155D01*
X712931Y116244D01*
X713001Y116336D01*
X713068Y116429D01*
X713131Y116525D01*
X713191Y116623D01*
X713248Y116723D01*
X713302Y116825D01*
X713352Y116929D01*
X713399Y117034D01*
X713442Y117141D01*
X713482Y117249D01*
X713517Y117358D01*
X713550Y117468D01*
X713578Y117580D01*
X713603Y117692D01*
X713624Y117805D01*
X713641Y117919D01*
X713655Y118033D01*
X713664Y118148D01*
X713670Y118263D01*
X713672Y118378D01*
X713672Y120100D01*
X713670Y120215D01*
X713664Y120330D01*
X713655Y120445D01*
X713641Y120559D01*
X713624Y120673D01*
X713603Y120786D01*
X713578Y120898D01*
X713550Y121010D01*
X713517Y121120D01*
X713481Y121229D01*
X713442Y121337D01*
X713399Y121444D01*
X713352Y121549D01*
X713302Y121653D01*
X713248Y121755D01*
X713191Y121855D01*
X713131Y121953D01*
X713068Y122049D01*
X713001Y122142D01*
X712931Y122234D01*
X712858Y122323D01*
X712783Y122410D01*
X712704Y122494D01*
X712623Y122575D01*
X712539Y122654D01*
X712452Y122729D01*
X712363Y122802D01*
X712271Y122872D01*
X712178Y122939D01*
X712082Y123002D01*
X711984Y123062D01*
X711884Y123119D01*
X711782Y123173D01*
X711678Y123223D01*
X711573Y123270D01*
X711466Y123313D01*
X711358Y123352D01*
X711249Y123388D01*
X711139Y123421D01*
X711027Y123449D01*
X710915Y123474D01*
X710802Y123495D01*
X710688Y123512D01*
X710574Y123526D01*
X710459Y123535D01*
X710344Y123541D01*
X710229Y123543D01*
X705064Y123543D01*
X705064Y130429D01*
X713672Y130429D01*
D11*
X334758Y145161D02*
X332147Y145161D01*
X332070Y145163D01*
X331994Y145169D01*
X331917Y145178D01*
X331841Y145191D01*
X331766Y145208D01*
X331692Y145228D01*
X331619Y145253D01*
X331548Y145280D01*
X331477Y145311D01*
X331409Y145346D01*
X331342Y145384D01*
X331277Y145425D01*
X331214Y145469D01*
X331154Y145516D01*
X331095Y145567D01*
X331040Y145620D01*
X330987Y145675D01*
X330936Y145734D01*
X330889Y145794D01*
X330845Y145857D01*
X330804Y145922D01*
X330766Y145989D01*
X330731Y146057D01*
X330700Y146128D01*
X330673Y146199D01*
X330648Y146272D01*
X330628Y146346D01*
X330611Y146421D01*
X330598Y146497D01*
X330589Y146574D01*
X330583Y146650D01*
X330581Y146727D01*
X330581Y149860D01*
X330583Y149937D01*
X330589Y150013D01*
X330598Y150090D01*
X330611Y150166D01*
X330628Y150241D01*
X330648Y150315D01*
X330673Y150388D01*
X330700Y150459D01*
X330731Y150530D01*
X330766Y150598D01*
X330804Y150665D01*
X330845Y150730D01*
X330889Y150793D01*
X330936Y150853D01*
X330987Y150912D01*
X331040Y150967D01*
X331095Y151020D01*
X331154Y151071D01*
X331214Y151118D01*
X331277Y151162D01*
X331342Y151203D01*
X331409Y151241D01*
X331477Y151276D01*
X331548Y151307D01*
X331619Y151334D01*
X331692Y151359D01*
X331766Y151379D01*
X331841Y151396D01*
X331917Y151409D01*
X331994Y151418D01*
X332070Y151424D01*
X332147Y151426D01*
X334758Y151426D01*
X334758Y143595D01*
X334756Y143518D01*
X334750Y143442D01*
X334741Y143365D01*
X334728Y143289D01*
X334711Y143214D01*
X334691Y143140D01*
X334666Y143067D01*
X334639Y142996D01*
X334608Y142925D01*
X334573Y142857D01*
X334535Y142790D01*
X334494Y142725D01*
X334450Y142662D01*
X334403Y142602D01*
X334352Y142543D01*
X334299Y142488D01*
X334244Y142435D01*
X334185Y142384D01*
X334125Y142337D01*
X334062Y142293D01*
X333997Y142252D01*
X333930Y142214D01*
X333862Y142179D01*
X333791Y142148D01*
X333720Y142121D01*
X333647Y142096D01*
X333573Y142076D01*
X333498Y142059D01*
X333422Y142046D01*
X333346Y142037D01*
X333269Y142031D01*
X333192Y142029D01*
X333192Y142028D02*
X331103Y142028D01*
X339161Y145161D02*
X339161Y151426D01*
X341772Y151426D01*
X341849Y151424D01*
X341925Y151418D01*
X342002Y151409D01*
X342078Y151396D01*
X342153Y151379D01*
X342227Y151359D01*
X342300Y151334D01*
X342371Y151307D01*
X342442Y151276D01*
X342510Y151241D01*
X342577Y151203D01*
X342642Y151162D01*
X342705Y151118D01*
X342765Y151071D01*
X342824Y151020D01*
X342879Y150967D01*
X342932Y150912D01*
X342983Y150853D01*
X343030Y150793D01*
X343074Y150730D01*
X343115Y150665D01*
X343153Y150598D01*
X343188Y150530D01*
X343219Y150459D01*
X343246Y150388D01*
X343271Y150315D01*
X343291Y150241D01*
X343308Y150166D01*
X343321Y150090D01*
X343330Y150014D01*
X343336Y149937D01*
X343338Y149860D01*
X343338Y145161D01*
X351522Y145161D02*
X351522Y154559D01*
X351522Y145161D02*
X348911Y145161D01*
X348834Y145163D01*
X348758Y145169D01*
X348681Y145178D01*
X348605Y145191D01*
X348530Y145208D01*
X348456Y145228D01*
X348383Y145253D01*
X348312Y145280D01*
X348241Y145311D01*
X348173Y145346D01*
X348106Y145384D01*
X348041Y145425D01*
X347978Y145469D01*
X347918Y145516D01*
X347859Y145567D01*
X347804Y145620D01*
X347751Y145675D01*
X347700Y145734D01*
X347653Y145794D01*
X347609Y145857D01*
X347568Y145922D01*
X347530Y145989D01*
X347495Y146057D01*
X347464Y146128D01*
X347437Y146199D01*
X347412Y146272D01*
X347392Y146346D01*
X347375Y146421D01*
X347362Y146497D01*
X347353Y146574D01*
X347347Y146650D01*
X347345Y146727D01*
X347345Y149860D01*
X347347Y149937D01*
X347353Y150013D01*
X347362Y150090D01*
X347375Y150166D01*
X347392Y150241D01*
X347412Y150315D01*
X347437Y150388D01*
X347464Y150459D01*
X347495Y150530D01*
X347530Y150598D01*
X347568Y150665D01*
X347609Y150730D01*
X347653Y150793D01*
X347700Y150853D01*
X347751Y150912D01*
X347804Y150967D01*
X347859Y151020D01*
X347918Y151071D01*
X347978Y151118D01*
X348041Y151162D01*
X348106Y151203D01*
X348173Y151241D01*
X348241Y151276D01*
X348312Y151307D01*
X348383Y151334D01*
X348456Y151359D01*
X348530Y151379D01*
X348605Y151396D01*
X348681Y151409D01*
X348758Y151418D01*
X348834Y151424D01*
X348911Y151426D01*
X351522Y151426D01*
X358521Y151426D02*
X360609Y145161D01*
X362698Y151426D01*
X367718Y145161D02*
X369806Y145161D01*
X367718Y145161D02*
X367641Y145163D01*
X367565Y145169D01*
X367488Y145178D01*
X367412Y145191D01*
X367337Y145208D01*
X367263Y145228D01*
X367190Y145253D01*
X367119Y145280D01*
X367048Y145311D01*
X366980Y145346D01*
X366913Y145384D01*
X366848Y145425D01*
X366785Y145469D01*
X366725Y145516D01*
X366666Y145567D01*
X366611Y145620D01*
X366558Y145675D01*
X366507Y145734D01*
X366460Y145794D01*
X366416Y145857D01*
X366375Y145922D01*
X366337Y145989D01*
X366302Y146057D01*
X366271Y146128D01*
X366244Y146199D01*
X366219Y146272D01*
X366199Y146346D01*
X366182Y146421D01*
X366169Y146497D01*
X366160Y146574D01*
X366154Y146650D01*
X366152Y146727D01*
X366151Y146727D02*
X366151Y149860D01*
X366152Y149860D02*
X366154Y149937D01*
X366160Y150013D01*
X366169Y150090D01*
X366182Y150166D01*
X366199Y150241D01*
X366219Y150315D01*
X366244Y150388D01*
X366271Y150459D01*
X366302Y150530D01*
X366337Y150598D01*
X366375Y150665D01*
X366416Y150730D01*
X366460Y150793D01*
X366507Y150853D01*
X366558Y150912D01*
X366611Y150967D01*
X366666Y151020D01*
X366725Y151071D01*
X366785Y151118D01*
X366848Y151162D01*
X366913Y151203D01*
X366980Y151241D01*
X367048Y151276D01*
X367119Y151307D01*
X367190Y151334D01*
X367263Y151359D01*
X367337Y151379D01*
X367412Y151396D01*
X367488Y151409D01*
X367565Y151418D01*
X367641Y151424D01*
X367718Y151426D01*
X369806Y151426D01*
X374728Y145161D02*
X376816Y145161D01*
X374728Y145161D02*
X374651Y145163D01*
X374575Y145169D01*
X374498Y145178D01*
X374422Y145191D01*
X374347Y145208D01*
X374273Y145228D01*
X374200Y145253D01*
X374129Y145280D01*
X374058Y145311D01*
X373990Y145346D01*
X373923Y145384D01*
X373858Y145425D01*
X373795Y145469D01*
X373735Y145516D01*
X373676Y145567D01*
X373621Y145620D01*
X373568Y145675D01*
X373517Y145734D01*
X373470Y145794D01*
X373426Y145857D01*
X373385Y145922D01*
X373347Y145989D01*
X373312Y146057D01*
X373281Y146128D01*
X373254Y146199D01*
X373229Y146272D01*
X373209Y146346D01*
X373192Y146421D01*
X373179Y146497D01*
X373170Y146574D01*
X373164Y146650D01*
X373162Y146727D01*
X373162Y149860D01*
X373164Y149937D01*
X373170Y150013D01*
X373179Y150090D01*
X373192Y150166D01*
X373209Y150241D01*
X373229Y150315D01*
X373254Y150388D01*
X373281Y150459D01*
X373312Y150530D01*
X373347Y150598D01*
X373385Y150665D01*
X373426Y150730D01*
X373470Y150793D01*
X373517Y150853D01*
X373568Y150912D01*
X373621Y150967D01*
X373676Y151020D01*
X373735Y151071D01*
X373795Y151118D01*
X373858Y151162D01*
X373923Y151203D01*
X373990Y151241D01*
X374058Y151276D01*
X374129Y151307D01*
X374200Y151334D01*
X374273Y151359D01*
X374347Y151379D01*
X374422Y151396D01*
X374498Y151409D01*
X374575Y151418D01*
X374651Y151424D01*
X374728Y151426D01*
X376816Y151426D01*
X384965Y148816D02*
X387576Y147772D01*
X384965Y148816D02*
X384899Y148844D01*
X384834Y148877D01*
X384771Y148912D01*
X384710Y148951D01*
X384651Y148993D01*
X384595Y149038D01*
X384541Y149086D01*
X384490Y149137D01*
X384441Y149190D01*
X384396Y149247D01*
X384353Y149305D01*
X384314Y149365D01*
X384277Y149428D01*
X384245Y149493D01*
X384216Y149559D01*
X384190Y149626D01*
X384168Y149695D01*
X384150Y149765D01*
X384135Y149836D01*
X384124Y149907D01*
X384117Y149979D01*
X384114Y150051D01*
X384115Y150123D01*
X384120Y150196D01*
X384128Y150267D01*
X384140Y150339D01*
X384156Y150409D01*
X384176Y150478D01*
X384200Y150547D01*
X384227Y150614D01*
X384257Y150679D01*
X384291Y150743D01*
X384329Y150805D01*
X384369Y150865D01*
X384413Y150922D01*
X384460Y150977D01*
X384510Y151030D01*
X384562Y151079D01*
X384617Y151126D01*
X384674Y151170D01*
X384734Y151211D01*
X384796Y151248D01*
X384860Y151283D01*
X384925Y151313D01*
X384992Y151341D01*
X385060Y151364D01*
X385130Y151384D01*
X385200Y151400D01*
X385271Y151413D01*
X385343Y151421D01*
X385415Y151426D01*
X385487Y151427D01*
X385488Y151426D02*
X385639Y151422D01*
X385790Y151414D01*
X385941Y151403D01*
X386092Y151387D01*
X386242Y151367D01*
X386392Y151344D01*
X386541Y151317D01*
X386689Y151286D01*
X386837Y151251D01*
X386983Y151213D01*
X387129Y151170D01*
X387273Y151124D01*
X387416Y151075D01*
X387558Y151022D01*
X387698Y150965D01*
X387837Y150904D01*
X387576Y147772D02*
X387642Y147744D01*
X387707Y147711D01*
X387770Y147676D01*
X387831Y147637D01*
X387890Y147595D01*
X387946Y147550D01*
X388000Y147502D01*
X388051Y147451D01*
X388100Y147398D01*
X388145Y147341D01*
X388188Y147283D01*
X388227Y147223D01*
X388264Y147160D01*
X388296Y147095D01*
X388325Y147029D01*
X388351Y146962D01*
X388373Y146893D01*
X388391Y146823D01*
X388406Y146752D01*
X388417Y146681D01*
X388424Y146609D01*
X388427Y146537D01*
X388426Y146465D01*
X388421Y146392D01*
X388413Y146321D01*
X388401Y146249D01*
X388385Y146179D01*
X388365Y146110D01*
X388341Y146041D01*
X388314Y145974D01*
X388284Y145909D01*
X388250Y145845D01*
X388212Y145783D01*
X388172Y145723D01*
X388128Y145666D01*
X388081Y145611D01*
X388031Y145558D01*
X387979Y145509D01*
X387924Y145462D01*
X387867Y145418D01*
X387807Y145377D01*
X387745Y145340D01*
X387681Y145305D01*
X387616Y145275D01*
X387549Y145247D01*
X387481Y145224D01*
X387411Y145204D01*
X387341Y145188D01*
X387270Y145175D01*
X387198Y145167D01*
X387126Y145162D01*
X387054Y145161D01*
X386844Y145166D01*
X386635Y145177D01*
X386426Y145192D01*
X386218Y145212D01*
X386010Y145238D01*
X385803Y145268D01*
X385596Y145303D01*
X385391Y145343D01*
X385186Y145387D01*
X384983Y145437D01*
X384780Y145491D01*
X384579Y145551D01*
X384380Y145614D01*
X384182Y145683D01*
X396238Y145161D02*
X396238Y154559D01*
X396238Y145161D02*
X393627Y145161D01*
X393550Y145163D01*
X393474Y145169D01*
X393397Y145178D01*
X393321Y145191D01*
X393246Y145208D01*
X393172Y145228D01*
X393099Y145253D01*
X393028Y145280D01*
X392957Y145311D01*
X392889Y145346D01*
X392822Y145384D01*
X392757Y145425D01*
X392694Y145469D01*
X392634Y145516D01*
X392575Y145567D01*
X392520Y145620D01*
X392467Y145675D01*
X392416Y145734D01*
X392369Y145794D01*
X392325Y145857D01*
X392284Y145922D01*
X392246Y145989D01*
X392211Y146057D01*
X392180Y146128D01*
X392153Y146199D01*
X392128Y146272D01*
X392108Y146346D01*
X392091Y146421D01*
X392078Y146497D01*
X392069Y146574D01*
X392063Y146650D01*
X392061Y146727D01*
X392061Y149860D01*
X392063Y149937D01*
X392069Y150013D01*
X392078Y150090D01*
X392091Y150166D01*
X392108Y150241D01*
X392128Y150315D01*
X392153Y150388D01*
X392180Y150459D01*
X392211Y150530D01*
X392246Y150598D01*
X392284Y150665D01*
X392325Y150730D01*
X392369Y150793D01*
X392416Y150853D01*
X392467Y150912D01*
X392520Y150967D01*
X392575Y151020D01*
X392634Y151071D01*
X392694Y151118D01*
X392757Y151162D01*
X392822Y151203D01*
X392889Y151241D01*
X392957Y151276D01*
X393028Y151307D01*
X393099Y151334D01*
X393172Y151359D01*
X393246Y151379D01*
X393321Y151396D01*
X393397Y151409D01*
X393474Y151418D01*
X393550Y151424D01*
X393627Y151426D01*
X396238Y151426D01*
X402118Y148816D02*
X404468Y148816D01*
X402118Y148815D02*
X402034Y148813D01*
X401949Y148807D01*
X401866Y148797D01*
X401782Y148784D01*
X401700Y148766D01*
X401618Y148745D01*
X401537Y148720D01*
X401458Y148692D01*
X401380Y148659D01*
X401304Y148623D01*
X401229Y148584D01*
X401156Y148541D01*
X401085Y148495D01*
X401017Y148446D01*
X400951Y148394D01*
X400887Y148338D01*
X400826Y148280D01*
X400768Y148219D01*
X400712Y148155D01*
X400660Y148089D01*
X400611Y148021D01*
X400565Y147950D01*
X400522Y147877D01*
X400483Y147802D01*
X400447Y147726D01*
X400414Y147648D01*
X400386Y147569D01*
X400361Y147488D01*
X400340Y147406D01*
X400322Y147324D01*
X400309Y147240D01*
X400299Y147157D01*
X400293Y147072D01*
X400291Y146988D01*
X400293Y146904D01*
X400299Y146819D01*
X400309Y146736D01*
X400322Y146652D01*
X400340Y146570D01*
X400361Y146488D01*
X400386Y146407D01*
X400414Y146328D01*
X400447Y146250D01*
X400483Y146174D01*
X400522Y146099D01*
X400565Y146026D01*
X400611Y145955D01*
X400660Y145887D01*
X400712Y145821D01*
X400768Y145757D01*
X400826Y145696D01*
X400887Y145638D01*
X400951Y145582D01*
X401017Y145530D01*
X401085Y145481D01*
X401156Y145435D01*
X401229Y145392D01*
X401304Y145353D01*
X401380Y145317D01*
X401458Y145284D01*
X401537Y145256D01*
X401618Y145231D01*
X401700Y145210D01*
X401782Y145192D01*
X401866Y145179D01*
X401949Y145169D01*
X402034Y145163D01*
X402118Y145161D01*
X404468Y145161D01*
X404468Y149860D01*
X404467Y149860D02*
X404465Y149937D01*
X404459Y150013D01*
X404450Y150090D01*
X404437Y150166D01*
X404420Y150241D01*
X404400Y150315D01*
X404375Y150388D01*
X404348Y150459D01*
X404317Y150530D01*
X404282Y150598D01*
X404244Y150665D01*
X404203Y150730D01*
X404159Y150793D01*
X404112Y150853D01*
X404061Y150912D01*
X404008Y150967D01*
X403953Y151020D01*
X403894Y151071D01*
X403834Y151118D01*
X403771Y151162D01*
X403706Y151203D01*
X403639Y151241D01*
X403571Y151276D01*
X403500Y151307D01*
X403429Y151334D01*
X403356Y151359D01*
X403282Y151379D01*
X403207Y151396D01*
X403131Y151409D01*
X403054Y151418D01*
X402978Y151424D01*
X402901Y151426D01*
X400813Y151426D01*
X412905Y148816D02*
X415516Y147772D01*
X412905Y148816D02*
X412839Y148844D01*
X412774Y148877D01*
X412711Y148912D01*
X412650Y148951D01*
X412591Y148993D01*
X412535Y149038D01*
X412481Y149086D01*
X412430Y149137D01*
X412381Y149190D01*
X412336Y149247D01*
X412293Y149305D01*
X412254Y149365D01*
X412217Y149428D01*
X412185Y149493D01*
X412156Y149559D01*
X412130Y149626D01*
X412108Y149695D01*
X412090Y149765D01*
X412075Y149836D01*
X412064Y149907D01*
X412057Y149979D01*
X412054Y150051D01*
X412055Y150123D01*
X412060Y150196D01*
X412068Y150267D01*
X412080Y150339D01*
X412096Y150409D01*
X412116Y150478D01*
X412140Y150547D01*
X412167Y150614D01*
X412197Y150679D01*
X412231Y150743D01*
X412269Y150805D01*
X412309Y150865D01*
X412353Y150922D01*
X412400Y150977D01*
X412450Y151030D01*
X412502Y151079D01*
X412557Y151126D01*
X412614Y151170D01*
X412674Y151211D01*
X412736Y151248D01*
X412800Y151283D01*
X412865Y151313D01*
X412932Y151341D01*
X413000Y151364D01*
X413070Y151384D01*
X413140Y151400D01*
X413211Y151413D01*
X413283Y151421D01*
X413355Y151426D01*
X413427Y151427D01*
X413428Y151426D02*
X413579Y151422D01*
X413730Y151414D01*
X413881Y151403D01*
X414032Y151387D01*
X414182Y151367D01*
X414332Y151344D01*
X414481Y151317D01*
X414629Y151286D01*
X414777Y151251D01*
X414923Y151213D01*
X415069Y151170D01*
X415213Y151124D01*
X415356Y151075D01*
X415498Y151022D01*
X415638Y150965D01*
X415777Y150904D01*
X415516Y147772D02*
X415582Y147744D01*
X415647Y147711D01*
X415710Y147676D01*
X415771Y147637D01*
X415830Y147595D01*
X415886Y147550D01*
X415940Y147502D01*
X415991Y147451D01*
X416040Y147398D01*
X416085Y147341D01*
X416128Y147283D01*
X416167Y147223D01*
X416204Y147160D01*
X416236Y147095D01*
X416265Y147029D01*
X416291Y146962D01*
X416313Y146893D01*
X416331Y146823D01*
X416346Y146752D01*
X416357Y146681D01*
X416364Y146609D01*
X416367Y146537D01*
X416366Y146465D01*
X416361Y146392D01*
X416353Y146321D01*
X416341Y146249D01*
X416325Y146179D01*
X416305Y146110D01*
X416281Y146041D01*
X416254Y145974D01*
X416224Y145909D01*
X416190Y145845D01*
X416152Y145783D01*
X416112Y145723D01*
X416068Y145666D01*
X416021Y145611D01*
X415971Y145558D01*
X415919Y145509D01*
X415864Y145462D01*
X415807Y145418D01*
X415747Y145377D01*
X415685Y145340D01*
X415621Y145305D01*
X415556Y145275D01*
X415489Y145247D01*
X415421Y145224D01*
X415351Y145204D01*
X415281Y145188D01*
X415210Y145175D01*
X415138Y145167D01*
X415066Y145162D01*
X414994Y145161D01*
X414784Y145166D01*
X414575Y145177D01*
X414366Y145192D01*
X414158Y145212D01*
X413950Y145238D01*
X413743Y145268D01*
X413536Y145303D01*
X413331Y145343D01*
X413126Y145387D01*
X412923Y145437D01*
X412720Y145491D01*
X412519Y145551D01*
X412320Y145614D01*
X412122Y145683D01*
X421623Y145161D02*
X423712Y145161D01*
X421623Y145161D02*
X421546Y145163D01*
X421470Y145169D01*
X421393Y145178D01*
X421317Y145191D01*
X421242Y145208D01*
X421168Y145228D01*
X421095Y145253D01*
X421024Y145280D01*
X420953Y145311D01*
X420885Y145346D01*
X420818Y145384D01*
X420753Y145425D01*
X420690Y145469D01*
X420630Y145516D01*
X420571Y145567D01*
X420516Y145620D01*
X420463Y145675D01*
X420412Y145734D01*
X420365Y145794D01*
X420321Y145857D01*
X420280Y145922D01*
X420242Y145989D01*
X420207Y146057D01*
X420176Y146128D01*
X420149Y146199D01*
X420124Y146272D01*
X420104Y146346D01*
X420087Y146421D01*
X420074Y146497D01*
X420065Y146574D01*
X420059Y146650D01*
X420057Y146727D01*
X420057Y149860D01*
X420059Y149937D01*
X420065Y150013D01*
X420074Y150090D01*
X420087Y150166D01*
X420104Y150241D01*
X420124Y150315D01*
X420149Y150388D01*
X420176Y150459D01*
X420207Y150530D01*
X420242Y150598D01*
X420280Y150665D01*
X420321Y150730D01*
X420365Y150793D01*
X420412Y150853D01*
X420463Y150912D01*
X420516Y150967D01*
X420571Y151020D01*
X420630Y151071D01*
X420690Y151118D01*
X420753Y151162D01*
X420818Y151203D01*
X420885Y151241D01*
X420953Y151276D01*
X421024Y151307D01*
X421095Y151334D01*
X421168Y151359D01*
X421242Y151379D01*
X421317Y151396D01*
X421393Y151409D01*
X421470Y151418D01*
X421546Y151424D01*
X421623Y151426D01*
X423712Y151426D01*
X427183Y154559D02*
X427183Y146727D01*
X427185Y146650D01*
X427191Y146574D01*
X427200Y146497D01*
X427213Y146421D01*
X427230Y146346D01*
X427250Y146272D01*
X427275Y146199D01*
X427302Y146128D01*
X427333Y146057D01*
X427368Y145989D01*
X427406Y145922D01*
X427447Y145857D01*
X427491Y145794D01*
X427538Y145734D01*
X427589Y145675D01*
X427642Y145620D01*
X427697Y145567D01*
X427756Y145516D01*
X427816Y145469D01*
X427879Y145425D01*
X427944Y145384D01*
X428011Y145346D01*
X428079Y145311D01*
X428150Y145280D01*
X428221Y145253D01*
X428294Y145228D01*
X428368Y145208D01*
X428443Y145191D01*
X428519Y145178D01*
X428596Y145169D01*
X428672Y145163D01*
X428749Y145161D01*
D12*
X122287Y270002D02*
X115062Y270002D01*
X115062Y286258D01*
X122287Y286258D01*
X120481Y279033D02*
X115062Y279033D01*
X132956Y270002D02*
X133074Y270004D01*
X133192Y270010D01*
X133310Y270019D01*
X133427Y270033D01*
X133544Y270050D01*
X133661Y270071D01*
X133776Y270096D01*
X133891Y270125D01*
X134005Y270158D01*
X134117Y270194D01*
X134228Y270234D01*
X134338Y270277D01*
X134447Y270324D01*
X134554Y270374D01*
X134659Y270429D01*
X134762Y270486D01*
X134863Y270547D01*
X134963Y270611D01*
X135060Y270678D01*
X135155Y270748D01*
X135247Y270822D01*
X135338Y270898D01*
X135425Y270978D01*
X135510Y271060D01*
X135592Y271145D01*
X135672Y271232D01*
X135748Y271323D01*
X135822Y271415D01*
X135892Y271510D01*
X135959Y271607D01*
X136023Y271707D01*
X136084Y271808D01*
X136141Y271911D01*
X136196Y272016D01*
X136246Y272123D01*
X136293Y272232D01*
X136336Y272342D01*
X136376Y272453D01*
X136412Y272565D01*
X136445Y272679D01*
X136474Y272794D01*
X136499Y272909D01*
X136520Y273026D01*
X136537Y273143D01*
X136551Y273260D01*
X136560Y273378D01*
X136566Y273496D01*
X136568Y273614D01*
X132956Y270002D02*
X132773Y270004D01*
X132591Y270011D01*
X132409Y270022D01*
X132227Y270037D01*
X132045Y270057D01*
X131864Y270080D01*
X131684Y270109D01*
X131504Y270141D01*
X131325Y270178D01*
X131148Y270219D01*
X130971Y270265D01*
X130795Y270314D01*
X130621Y270368D01*
X130447Y270426D01*
X130276Y270488D01*
X130106Y270554D01*
X129937Y270625D01*
X129770Y270699D01*
X129605Y270777D01*
X129442Y270859D01*
X129281Y270945D01*
X129122Y271035D01*
X128965Y271129D01*
X128811Y271226D01*
X128659Y271327D01*
X128509Y271432D01*
X128362Y271540D01*
X128218Y271651D01*
X128076Y271766D01*
X127937Y271885D01*
X127801Y272007D01*
X127668Y272132D01*
X127538Y272260D01*
X127989Y282646D02*
X127991Y282764D01*
X127997Y282882D01*
X128006Y283000D01*
X128020Y283117D01*
X128037Y283234D01*
X128058Y283351D01*
X128083Y283466D01*
X128112Y283581D01*
X128145Y283695D01*
X128181Y283807D01*
X128221Y283918D01*
X128264Y284028D01*
X128311Y284137D01*
X128361Y284244D01*
X128416Y284349D01*
X128473Y284452D01*
X128534Y284553D01*
X128598Y284653D01*
X128665Y284750D01*
X128735Y284845D01*
X128809Y284937D01*
X128885Y285028D01*
X128965Y285115D01*
X129047Y285200D01*
X129132Y285282D01*
X129219Y285362D01*
X129310Y285438D01*
X129402Y285512D01*
X129497Y285582D01*
X129594Y285649D01*
X129694Y285713D01*
X129795Y285774D01*
X129898Y285832D01*
X130003Y285886D01*
X130110Y285936D01*
X130219Y285983D01*
X130329Y286027D01*
X130440Y286066D01*
X130553Y286102D01*
X130666Y286135D01*
X130781Y286164D01*
X130896Y286189D01*
X131013Y286210D01*
X131130Y286227D01*
X131247Y286241D01*
X131365Y286250D01*
X131483Y286256D01*
X131601Y286258D01*
X131762Y286256D01*
X131924Y286250D01*
X132085Y286241D01*
X132246Y286227D01*
X132406Y286210D01*
X132566Y286189D01*
X132726Y286164D01*
X132885Y286135D01*
X133043Y286103D01*
X133200Y286067D01*
X133356Y286027D01*
X133512Y285983D01*
X133666Y285935D01*
X133819Y285884D01*
X133971Y285830D01*
X134122Y285771D01*
X134271Y285710D01*
X134418Y285644D01*
X134564Y285575D01*
X134709Y285503D01*
X134851Y285427D01*
X134992Y285348D01*
X135131Y285266D01*
X135267Y285180D01*
X135402Y285091D01*
X135535Y284999D01*
X135665Y284903D01*
X129795Y279485D02*
X129694Y279547D01*
X129594Y279612D01*
X129497Y279681D01*
X129402Y279753D01*
X129309Y279827D01*
X129219Y279905D01*
X129131Y279986D01*
X129046Y280069D01*
X128964Y280155D01*
X128885Y280244D01*
X128808Y280335D01*
X128735Y280429D01*
X128664Y280525D01*
X128597Y280623D01*
X128533Y280723D01*
X128472Y280826D01*
X128415Y280930D01*
X128361Y281036D01*
X128311Y281144D01*
X128264Y281253D01*
X128220Y281364D01*
X128180Y281476D01*
X128144Y281590D01*
X128112Y281704D01*
X128083Y281820D01*
X128058Y281936D01*
X128037Y282053D01*
X128020Y282171D01*
X128006Y282289D01*
X127997Y282408D01*
X127991Y282527D01*
X127989Y282646D01*
X134762Y276775D02*
X134863Y276713D01*
X134963Y276648D01*
X135060Y276579D01*
X135155Y276507D01*
X135248Y276433D01*
X135338Y276355D01*
X135426Y276274D01*
X135511Y276191D01*
X135593Y276105D01*
X135672Y276016D01*
X135749Y275925D01*
X135822Y275831D01*
X135893Y275735D01*
X135960Y275637D01*
X136024Y275537D01*
X136085Y275434D01*
X136142Y275330D01*
X136196Y275224D01*
X136246Y275116D01*
X136293Y275007D01*
X136337Y274896D01*
X136377Y274784D01*
X136413Y274670D01*
X136445Y274556D01*
X136474Y274440D01*
X136499Y274324D01*
X136520Y274207D01*
X136537Y274089D01*
X136551Y273971D01*
X136560Y273852D01*
X136566Y273733D01*
X136568Y273614D01*
X134762Y276775D02*
X129795Y279485D01*
X143379Y286258D02*
X143379Y270002D01*
X143379Y286258D02*
X147895Y286258D01*
X148028Y286256D01*
X148160Y286250D01*
X148292Y286240D01*
X148424Y286227D01*
X148556Y286209D01*
X148686Y286188D01*
X148817Y286163D01*
X148946Y286134D01*
X149074Y286101D01*
X149202Y286065D01*
X149328Y286025D01*
X149453Y285981D01*
X149577Y285933D01*
X149699Y285882D01*
X149820Y285827D01*
X149939Y285769D01*
X150057Y285707D01*
X150172Y285642D01*
X150286Y285573D01*
X150397Y285502D01*
X150506Y285426D01*
X150613Y285348D01*
X150718Y285267D01*
X150820Y285182D01*
X150920Y285095D01*
X151017Y285005D01*
X151112Y284912D01*
X151203Y284816D01*
X151292Y284718D01*
X151378Y284617D01*
X151461Y284513D01*
X151541Y284407D01*
X151617Y284299D01*
X151691Y284189D01*
X151761Y284076D01*
X151828Y283962D01*
X151891Y283845D01*
X151951Y283727D01*
X152008Y283607D01*
X152061Y283485D01*
X152110Y283362D01*
X152156Y283238D01*
X152198Y283112D01*
X152236Y282985D01*
X152271Y282857D01*
X152302Y282728D01*
X152329Y282599D01*
X152352Y282468D01*
X152372Y282337D01*
X152387Y282205D01*
X152399Y282073D01*
X152407Y281941D01*
X152411Y281808D01*
X152411Y281676D01*
X152407Y281543D01*
X152399Y281411D01*
X152387Y281279D01*
X152372Y281147D01*
X152352Y281016D01*
X152329Y280885D01*
X152302Y280756D01*
X152271Y280627D01*
X152236Y280499D01*
X152198Y280372D01*
X152156Y280246D01*
X152110Y280122D01*
X152061Y279999D01*
X152008Y279877D01*
X151951Y279757D01*
X151891Y279639D01*
X151828Y279522D01*
X151761Y279408D01*
X151691Y279295D01*
X151617Y279185D01*
X151541Y279077D01*
X151461Y278971D01*
X151378Y278867D01*
X151292Y278766D01*
X151203Y278668D01*
X151112Y278572D01*
X151017Y278479D01*
X150920Y278389D01*
X150820Y278302D01*
X150718Y278217D01*
X150613Y278136D01*
X150506Y278058D01*
X150397Y277982D01*
X150286Y277911D01*
X150172Y277842D01*
X150057Y277777D01*
X149939Y277715D01*
X149820Y277657D01*
X149699Y277602D01*
X149577Y277551D01*
X149453Y277503D01*
X149328Y277459D01*
X149202Y277419D01*
X149074Y277383D01*
X148946Y277350D01*
X148817Y277321D01*
X148686Y277296D01*
X148556Y277275D01*
X148424Y277257D01*
X148292Y277244D01*
X148160Y277234D01*
X148028Y277228D01*
X147895Y277226D01*
X147895Y277227D02*
X143379Y277227D01*
X158279Y270002D02*
X162794Y270002D01*
X162927Y270004D01*
X163059Y270010D01*
X163191Y270020D01*
X163323Y270033D01*
X163455Y270051D01*
X163585Y270072D01*
X163716Y270097D01*
X163845Y270126D01*
X163973Y270159D01*
X164101Y270195D01*
X164227Y270235D01*
X164352Y270279D01*
X164476Y270327D01*
X164598Y270378D01*
X164719Y270433D01*
X164838Y270491D01*
X164956Y270553D01*
X165071Y270618D01*
X165185Y270687D01*
X165296Y270758D01*
X165405Y270834D01*
X165512Y270912D01*
X165617Y270993D01*
X165719Y271078D01*
X165819Y271165D01*
X165916Y271255D01*
X166011Y271348D01*
X166102Y271444D01*
X166191Y271542D01*
X166277Y271643D01*
X166360Y271747D01*
X166440Y271853D01*
X166516Y271961D01*
X166590Y272071D01*
X166660Y272184D01*
X166727Y272298D01*
X166790Y272415D01*
X166850Y272533D01*
X166907Y272653D01*
X166960Y272775D01*
X167009Y272898D01*
X167055Y273022D01*
X167097Y273148D01*
X167135Y273275D01*
X167170Y273403D01*
X167201Y273532D01*
X167228Y273661D01*
X167251Y273792D01*
X167271Y273923D01*
X167286Y274055D01*
X167298Y274187D01*
X167306Y274319D01*
X167310Y274452D01*
X167310Y274584D01*
X167306Y274717D01*
X167298Y274849D01*
X167286Y274981D01*
X167271Y275113D01*
X167251Y275244D01*
X167228Y275375D01*
X167201Y275504D01*
X167170Y275633D01*
X167135Y275761D01*
X167097Y275888D01*
X167055Y276014D01*
X167009Y276138D01*
X166960Y276261D01*
X166907Y276383D01*
X166850Y276503D01*
X166790Y276621D01*
X166727Y276738D01*
X166660Y276852D01*
X166590Y276965D01*
X166516Y277075D01*
X166440Y277183D01*
X166360Y277289D01*
X166277Y277393D01*
X166191Y277494D01*
X166102Y277592D01*
X166011Y277688D01*
X165916Y277781D01*
X165819Y277871D01*
X165719Y277958D01*
X165617Y278043D01*
X165512Y278124D01*
X165405Y278202D01*
X165296Y278278D01*
X165185Y278349D01*
X165071Y278418D01*
X164956Y278483D01*
X164838Y278545D01*
X164719Y278603D01*
X164598Y278658D01*
X164476Y278709D01*
X164352Y278757D01*
X164227Y278801D01*
X164101Y278841D01*
X163973Y278877D01*
X163845Y278910D01*
X163716Y278939D01*
X163585Y278964D01*
X163455Y278985D01*
X163323Y279003D01*
X163191Y279016D01*
X163059Y279026D01*
X162927Y279032D01*
X162794Y279034D01*
X163697Y286258D02*
X158279Y286258D01*
X163697Y286258D02*
X163816Y286256D01*
X163936Y286250D01*
X164055Y286240D01*
X164173Y286226D01*
X164292Y286209D01*
X164409Y286187D01*
X164526Y286162D01*
X164641Y286132D01*
X164756Y286099D01*
X164870Y286062D01*
X164982Y286022D01*
X165093Y285977D01*
X165202Y285929D01*
X165310Y285878D01*
X165416Y285823D01*
X165520Y285764D01*
X165622Y285702D01*
X165722Y285637D01*
X165820Y285568D01*
X165916Y285496D01*
X166009Y285421D01*
X166099Y285344D01*
X166187Y285263D01*
X166272Y285179D01*
X166354Y285092D01*
X166434Y285003D01*
X166510Y284911D01*
X166584Y284817D01*
X166654Y284720D01*
X166721Y284622D01*
X166785Y284521D01*
X166845Y284417D01*
X166902Y284312D01*
X166955Y284205D01*
X167005Y284097D01*
X167051Y283987D01*
X167093Y283875D01*
X167132Y283762D01*
X167167Y283648D01*
X167198Y283533D01*
X167226Y283416D01*
X167249Y283299D01*
X167269Y283182D01*
X167285Y283063D01*
X167297Y282944D01*
X167305Y282825D01*
X167309Y282706D01*
X167309Y282586D01*
X167305Y282467D01*
X167297Y282348D01*
X167285Y282229D01*
X167269Y282110D01*
X167249Y281993D01*
X167226Y281876D01*
X167198Y281759D01*
X167167Y281644D01*
X167132Y281530D01*
X167093Y281417D01*
X167051Y281305D01*
X167005Y281195D01*
X166955Y281087D01*
X166902Y280980D01*
X166845Y280875D01*
X166785Y280771D01*
X166721Y280670D01*
X166654Y280572D01*
X166584Y280475D01*
X166510Y280381D01*
X166434Y280289D01*
X166354Y280200D01*
X166272Y280113D01*
X166187Y280029D01*
X166099Y279948D01*
X166009Y279871D01*
X165916Y279796D01*
X165820Y279724D01*
X165722Y279655D01*
X165622Y279590D01*
X165520Y279528D01*
X165416Y279469D01*
X165310Y279414D01*
X165202Y279363D01*
X165093Y279315D01*
X164982Y279270D01*
X164870Y279230D01*
X164756Y279193D01*
X164641Y279160D01*
X164526Y279130D01*
X164409Y279105D01*
X164292Y279083D01*
X164173Y279066D01*
X164055Y279052D01*
X163936Y279042D01*
X163816Y279036D01*
X163697Y279034D01*
X163697Y279033D02*
X160085Y279033D01*
X178877Y286258D02*
X179002Y286256D01*
X179127Y286250D01*
X179252Y286241D01*
X179376Y286227D01*
X179500Y286210D01*
X179624Y286189D01*
X179746Y286164D01*
X179868Y286135D01*
X179989Y286103D01*
X180109Y286067D01*
X180228Y286027D01*
X180345Y285984D01*
X180461Y285937D01*
X180576Y285886D01*
X180688Y285832D01*
X180800Y285774D01*
X180909Y285714D01*
X181016Y285649D01*
X181122Y285582D01*
X181225Y285511D01*
X181326Y285437D01*
X181425Y285360D01*
X181521Y285280D01*
X181615Y285197D01*
X181706Y285112D01*
X181795Y285023D01*
X181880Y284932D01*
X181963Y284838D01*
X182043Y284742D01*
X182120Y284643D01*
X182194Y284542D01*
X182265Y284439D01*
X182332Y284333D01*
X182397Y284226D01*
X182457Y284117D01*
X182515Y284005D01*
X182569Y283893D01*
X182620Y283778D01*
X182667Y283662D01*
X182710Y283545D01*
X182750Y283426D01*
X182786Y283306D01*
X182818Y283185D01*
X182847Y283063D01*
X182872Y282941D01*
X182893Y282817D01*
X182910Y282693D01*
X182924Y282569D01*
X182933Y282444D01*
X182939Y282319D01*
X182941Y282194D01*
X178877Y286258D02*
X178734Y286256D01*
X178592Y286250D01*
X178449Y286240D01*
X178307Y286227D01*
X178166Y286209D01*
X178024Y286188D01*
X177884Y286163D01*
X177744Y286134D01*
X177605Y286101D01*
X177467Y286064D01*
X177330Y286024D01*
X177195Y285980D01*
X177060Y285932D01*
X176927Y285880D01*
X176795Y285825D01*
X176665Y285766D01*
X176537Y285704D01*
X176410Y285638D01*
X176285Y285569D01*
X176162Y285497D01*
X176042Y285421D01*
X175923Y285342D01*
X175806Y285259D01*
X175692Y285174D01*
X175580Y285085D01*
X175471Y284994D01*
X175364Y284899D01*
X175259Y284802D01*
X175158Y284701D01*
X175059Y284598D01*
X174963Y284493D01*
X174870Y284384D01*
X174780Y284273D01*
X174693Y284160D01*
X174609Y284045D01*
X174529Y283927D01*
X174451Y283807D01*
X174377Y283685D01*
X174307Y283561D01*
X174239Y283435D01*
X174176Y283307D01*
X174115Y283178D01*
X174058Y283047D01*
X174005Y282915D01*
X173956Y282781D01*
X173910Y282646D01*
X181586Y279033D02*
X181680Y279125D01*
X181770Y279219D01*
X181858Y279316D01*
X181943Y279416D01*
X182025Y279518D01*
X182104Y279623D01*
X182179Y279730D01*
X182251Y279839D01*
X182320Y279950D01*
X182386Y280064D01*
X182448Y280179D01*
X182507Y280296D01*
X182562Y280415D01*
X182613Y280535D01*
X182661Y280657D01*
X182706Y280780D01*
X182746Y280904D01*
X182783Y281030D01*
X182816Y281157D01*
X182845Y281284D01*
X182871Y281413D01*
X182892Y281542D01*
X182910Y281672D01*
X182923Y281802D01*
X182933Y281932D01*
X182939Y282063D01*
X182941Y282194D01*
X181586Y279033D02*
X173910Y270002D01*
X182941Y270002D01*
D13*
X121920Y485140D02*
X121920Y523240D01*
X121920Y485140D02*
X185420Y485140D01*
X185420Y523240D01*
D11*
X830453Y183176D02*
X836182Y183176D01*
X836260Y183174D01*
X836338Y183169D01*
X836415Y183159D01*
X836492Y183146D01*
X836568Y183130D01*
X836643Y183110D01*
X836717Y183086D01*
X836790Y183059D01*
X836862Y183028D01*
X836932Y182994D01*
X837001Y182957D01*
X837067Y182916D01*
X837132Y182872D01*
X837194Y182826D01*
X837254Y182776D01*
X837312Y182724D01*
X837367Y182669D01*
X837419Y182611D01*
X837469Y182551D01*
X837515Y182489D01*
X837559Y182424D01*
X837600Y182358D01*
X837637Y182289D01*
X837671Y182219D01*
X837702Y182147D01*
X837729Y182074D01*
X837753Y182000D01*
X837773Y181925D01*
X837789Y181849D01*
X837802Y181772D01*
X837812Y181695D01*
X837817Y181617D01*
X837819Y181539D01*
X837819Y180721D01*
X837819Y186870D02*
X830453Y186870D01*
X837819Y186870D02*
X837819Y190144D01*
X837819Y194564D02*
X837819Y196201D01*
X837819Y194564D02*
X837817Y194486D01*
X837812Y194408D01*
X837802Y194331D01*
X837789Y194254D01*
X837773Y194178D01*
X837753Y194103D01*
X837729Y194029D01*
X837702Y193956D01*
X837671Y193884D01*
X837637Y193814D01*
X837600Y193746D01*
X837559Y193679D01*
X837515Y193614D01*
X837469Y193552D01*
X837419Y193492D01*
X837367Y193434D01*
X837312Y193379D01*
X837254Y193327D01*
X837194Y193277D01*
X837132Y193231D01*
X837067Y193187D01*
X837001Y193146D01*
X836932Y193109D01*
X836862Y193075D01*
X836790Y193044D01*
X836717Y193017D01*
X836643Y192993D01*
X836568Y192973D01*
X836492Y192957D01*
X836415Y192944D01*
X836338Y192934D01*
X836260Y192929D01*
X836182Y192927D01*
X836182Y192928D02*
X832090Y192928D01*
X832090Y192927D02*
X832010Y192929D01*
X831930Y192935D01*
X831850Y192945D01*
X831771Y192958D01*
X831692Y192976D01*
X831615Y192997D01*
X831539Y193023D01*
X831464Y193052D01*
X831390Y193084D01*
X831318Y193120D01*
X831248Y193160D01*
X831181Y193203D01*
X831115Y193249D01*
X831052Y193299D01*
X830991Y193351D01*
X830932Y193406D01*
X830877Y193465D01*
X830825Y193525D01*
X830775Y193589D01*
X830729Y193654D01*
X830686Y193722D01*
X830646Y193792D01*
X830610Y193864D01*
X830578Y193938D01*
X830549Y194012D01*
X830524Y194089D01*
X830502Y194166D01*
X830484Y194245D01*
X830471Y194324D01*
X830461Y194403D01*
X830455Y194484D01*
X830453Y194564D01*
X830453Y196201D01*
X830453Y200733D02*
X836182Y200733D01*
X836260Y200731D01*
X836338Y200726D01*
X836415Y200716D01*
X836492Y200703D01*
X836568Y200687D01*
X836643Y200667D01*
X836717Y200643D01*
X836790Y200616D01*
X836862Y200585D01*
X836932Y200551D01*
X837001Y200514D01*
X837067Y200473D01*
X837132Y200429D01*
X837194Y200383D01*
X837254Y200333D01*
X837312Y200281D01*
X837367Y200226D01*
X837419Y200168D01*
X837469Y200108D01*
X837515Y200046D01*
X837559Y199981D01*
X837600Y199915D01*
X837637Y199846D01*
X837671Y199776D01*
X837702Y199704D01*
X837729Y199631D01*
X837753Y199557D01*
X837773Y199482D01*
X837789Y199406D01*
X837802Y199329D01*
X837812Y199252D01*
X837817Y199174D01*
X837819Y199096D01*
X837819Y198277D01*
X837819Y204427D02*
X830453Y204427D01*
X837819Y204427D02*
X837819Y207700D01*
X837819Y212121D02*
X837819Y213758D01*
X837819Y212121D02*
X837817Y212043D01*
X837812Y211965D01*
X837802Y211888D01*
X837789Y211811D01*
X837773Y211735D01*
X837753Y211660D01*
X837729Y211586D01*
X837702Y211513D01*
X837671Y211441D01*
X837637Y211371D01*
X837600Y211303D01*
X837559Y211236D01*
X837515Y211171D01*
X837469Y211109D01*
X837419Y211049D01*
X837367Y210991D01*
X837312Y210936D01*
X837254Y210884D01*
X837194Y210834D01*
X837132Y210788D01*
X837067Y210744D01*
X837001Y210703D01*
X836932Y210666D01*
X836862Y210632D01*
X836790Y210601D01*
X836717Y210574D01*
X836643Y210550D01*
X836568Y210530D01*
X836492Y210514D01*
X836415Y210501D01*
X836338Y210491D01*
X836260Y210486D01*
X836182Y210484D01*
X832090Y210484D01*
X832010Y210486D01*
X831930Y210492D01*
X831850Y210502D01*
X831771Y210515D01*
X831692Y210533D01*
X831615Y210554D01*
X831539Y210580D01*
X831464Y210609D01*
X831390Y210641D01*
X831318Y210677D01*
X831248Y210717D01*
X831181Y210760D01*
X831115Y210806D01*
X831052Y210856D01*
X830991Y210908D01*
X830932Y210963D01*
X830877Y211022D01*
X830825Y211082D01*
X830775Y211146D01*
X830729Y211211D01*
X830686Y211279D01*
X830646Y211349D01*
X830610Y211421D01*
X830578Y211495D01*
X830549Y211569D01*
X830524Y211646D01*
X830502Y211723D01*
X830484Y211802D01*
X830471Y211881D01*
X830461Y211960D01*
X830455Y212041D01*
X830453Y212121D01*
X830453Y213758D01*
X830453Y218289D02*
X836182Y218289D01*
X836260Y218287D01*
X836338Y218282D01*
X836415Y218272D01*
X836492Y218259D01*
X836568Y218243D01*
X836643Y218223D01*
X836717Y218199D01*
X836790Y218172D01*
X836862Y218141D01*
X836932Y218107D01*
X837001Y218070D01*
X837067Y218029D01*
X837132Y217985D01*
X837194Y217939D01*
X837254Y217889D01*
X837312Y217837D01*
X837367Y217782D01*
X837419Y217724D01*
X837469Y217664D01*
X837515Y217602D01*
X837559Y217537D01*
X837600Y217471D01*
X837637Y217402D01*
X837671Y217332D01*
X837702Y217260D01*
X837729Y217187D01*
X837753Y217113D01*
X837773Y217038D01*
X837789Y216962D01*
X837802Y216885D01*
X837812Y216808D01*
X837817Y216730D01*
X837819Y216652D01*
X837819Y215834D01*
X837819Y221983D02*
X830453Y221983D01*
X837819Y221983D02*
X837819Y225257D01*
X837819Y229677D02*
X837819Y231314D01*
X837819Y229677D02*
X837817Y229599D01*
X837812Y229521D01*
X837802Y229444D01*
X837789Y229367D01*
X837773Y229291D01*
X837753Y229216D01*
X837729Y229142D01*
X837702Y229069D01*
X837671Y228997D01*
X837637Y228927D01*
X837600Y228859D01*
X837559Y228792D01*
X837515Y228727D01*
X837469Y228665D01*
X837419Y228605D01*
X837367Y228547D01*
X837312Y228492D01*
X837254Y228440D01*
X837194Y228390D01*
X837132Y228344D01*
X837067Y228300D01*
X837001Y228259D01*
X836932Y228222D01*
X836862Y228188D01*
X836790Y228157D01*
X836717Y228130D01*
X836643Y228106D01*
X836568Y228086D01*
X836492Y228070D01*
X836415Y228057D01*
X836338Y228047D01*
X836260Y228042D01*
X836182Y228040D01*
X832090Y228040D01*
X832010Y228042D01*
X831930Y228048D01*
X831850Y228058D01*
X831771Y228071D01*
X831692Y228089D01*
X831615Y228110D01*
X831539Y228136D01*
X831464Y228165D01*
X831390Y228197D01*
X831318Y228233D01*
X831248Y228273D01*
X831181Y228316D01*
X831115Y228362D01*
X831052Y228412D01*
X830991Y228464D01*
X830932Y228519D01*
X830877Y228578D01*
X830825Y228638D01*
X830775Y228702D01*
X830729Y228767D01*
X830686Y228835D01*
X830646Y228905D01*
X830610Y228977D01*
X830578Y229051D01*
X830549Y229125D01*
X830524Y229202D01*
X830502Y229279D01*
X830484Y229358D01*
X830471Y229437D01*
X830461Y229516D01*
X830455Y229597D01*
X830453Y229677D01*
X830453Y231314D01*
X830453Y235845D02*
X836182Y235845D01*
X836182Y235846D02*
X836260Y235844D01*
X836338Y235839D01*
X836415Y235829D01*
X836492Y235816D01*
X836568Y235800D01*
X836643Y235780D01*
X836717Y235756D01*
X836790Y235729D01*
X836862Y235698D01*
X836932Y235664D01*
X837001Y235627D01*
X837067Y235586D01*
X837132Y235542D01*
X837194Y235496D01*
X837254Y235446D01*
X837312Y235394D01*
X837367Y235339D01*
X837419Y235281D01*
X837469Y235221D01*
X837515Y235159D01*
X837559Y235094D01*
X837600Y235028D01*
X837637Y234959D01*
X837671Y234889D01*
X837702Y234817D01*
X837729Y234744D01*
X837753Y234670D01*
X837773Y234595D01*
X837789Y234519D01*
X837802Y234442D01*
X837812Y234365D01*
X837817Y234287D01*
X837819Y234209D01*
X837819Y233390D01*
X837819Y239539D02*
X830453Y239539D01*
X837819Y239539D02*
X837819Y242813D01*
X837819Y247234D02*
X837819Y248870D01*
X837819Y247234D02*
X837817Y247156D01*
X837812Y247078D01*
X837802Y247001D01*
X837789Y246924D01*
X837773Y246848D01*
X837753Y246773D01*
X837729Y246699D01*
X837702Y246626D01*
X837671Y246554D01*
X837637Y246484D01*
X837600Y246416D01*
X837559Y246349D01*
X837515Y246284D01*
X837469Y246222D01*
X837419Y246162D01*
X837367Y246104D01*
X837312Y246049D01*
X837254Y245997D01*
X837194Y245947D01*
X837132Y245901D01*
X837067Y245857D01*
X837001Y245816D01*
X836932Y245779D01*
X836862Y245745D01*
X836790Y245714D01*
X836717Y245687D01*
X836643Y245663D01*
X836568Y245643D01*
X836492Y245627D01*
X836415Y245614D01*
X836338Y245604D01*
X836260Y245599D01*
X836182Y245597D01*
X832090Y245597D01*
X832010Y245599D01*
X831930Y245605D01*
X831850Y245615D01*
X831771Y245628D01*
X831692Y245646D01*
X831615Y245667D01*
X831539Y245693D01*
X831464Y245722D01*
X831390Y245754D01*
X831318Y245790D01*
X831248Y245830D01*
X831181Y245873D01*
X831115Y245919D01*
X831052Y245969D01*
X830991Y246021D01*
X830932Y246076D01*
X830877Y246135D01*
X830825Y246195D01*
X830775Y246259D01*
X830729Y246324D01*
X830686Y246392D01*
X830646Y246462D01*
X830610Y246534D01*
X830578Y246608D01*
X830549Y246682D01*
X830524Y246759D01*
X830502Y246836D01*
X830484Y246915D01*
X830471Y246994D01*
X830461Y247073D01*
X830455Y247154D01*
X830453Y247234D01*
X830453Y248870D01*
D12*
X586542Y384302D02*
X579318Y384302D01*
X579185Y384304D01*
X579053Y384310D01*
X578921Y384320D01*
X578789Y384333D01*
X578657Y384351D01*
X578527Y384372D01*
X578396Y384397D01*
X578267Y384426D01*
X578139Y384459D01*
X578011Y384495D01*
X577885Y384535D01*
X577760Y384579D01*
X577636Y384627D01*
X577514Y384678D01*
X577393Y384733D01*
X577274Y384791D01*
X577156Y384853D01*
X577041Y384918D01*
X576927Y384987D01*
X576816Y385058D01*
X576707Y385134D01*
X576600Y385212D01*
X576495Y385293D01*
X576393Y385378D01*
X576293Y385465D01*
X576196Y385555D01*
X576101Y385648D01*
X576010Y385744D01*
X575921Y385842D01*
X575835Y385943D01*
X575752Y386047D01*
X575672Y386153D01*
X575596Y386261D01*
X575522Y386371D01*
X575452Y386484D01*
X575385Y386598D01*
X575322Y386715D01*
X575262Y386833D01*
X575205Y386953D01*
X575152Y387075D01*
X575103Y387198D01*
X575057Y387322D01*
X575015Y387448D01*
X574977Y387575D01*
X574942Y387703D01*
X574911Y387832D01*
X574884Y387961D01*
X574861Y388092D01*
X574841Y388223D01*
X574826Y388355D01*
X574814Y388487D01*
X574806Y388619D01*
X574802Y388752D01*
X574802Y388884D01*
X574806Y389017D01*
X574814Y389149D01*
X574826Y389281D01*
X574841Y389413D01*
X574861Y389544D01*
X574884Y389675D01*
X574911Y389804D01*
X574942Y389933D01*
X574977Y390061D01*
X575015Y390188D01*
X575057Y390314D01*
X575103Y390438D01*
X575152Y390561D01*
X575205Y390683D01*
X575262Y390803D01*
X575322Y390921D01*
X575385Y391038D01*
X575452Y391152D01*
X575522Y391265D01*
X575596Y391375D01*
X575672Y391483D01*
X575752Y391589D01*
X575835Y391693D01*
X575921Y391794D01*
X576010Y391892D01*
X576101Y391988D01*
X576196Y392081D01*
X576293Y392171D01*
X576393Y392258D01*
X576495Y392343D01*
X576600Y392424D01*
X576707Y392502D01*
X576816Y392578D01*
X576927Y392649D01*
X577041Y392718D01*
X577156Y392783D01*
X577274Y392845D01*
X577393Y392903D01*
X577514Y392958D01*
X577636Y393009D01*
X577760Y393057D01*
X577885Y393101D01*
X578011Y393141D01*
X578139Y393177D01*
X578267Y393210D01*
X578396Y393239D01*
X578527Y393264D01*
X578657Y393285D01*
X578789Y393303D01*
X578921Y393316D01*
X579053Y393326D01*
X579185Y393332D01*
X579318Y393334D01*
X579318Y393333D02*
X586542Y393333D01*
X586542Y393334D02*
X586675Y393332D01*
X586807Y393326D01*
X586939Y393316D01*
X587071Y393303D01*
X587203Y393285D01*
X587333Y393264D01*
X587464Y393239D01*
X587593Y393210D01*
X587721Y393177D01*
X587849Y393141D01*
X587975Y393101D01*
X588100Y393057D01*
X588224Y393009D01*
X588346Y392958D01*
X588467Y392903D01*
X588586Y392845D01*
X588704Y392783D01*
X588819Y392718D01*
X588933Y392649D01*
X589044Y392578D01*
X589153Y392502D01*
X589260Y392424D01*
X589365Y392343D01*
X589467Y392258D01*
X589567Y392171D01*
X589664Y392081D01*
X589759Y391988D01*
X589850Y391892D01*
X589939Y391794D01*
X590025Y391693D01*
X590108Y391589D01*
X590188Y391483D01*
X590264Y391375D01*
X590338Y391265D01*
X590408Y391152D01*
X590475Y391038D01*
X590538Y390921D01*
X590598Y390803D01*
X590655Y390683D01*
X590708Y390561D01*
X590757Y390438D01*
X590803Y390314D01*
X590845Y390188D01*
X590883Y390061D01*
X590918Y389933D01*
X590949Y389804D01*
X590976Y389675D01*
X590999Y389544D01*
X591019Y389413D01*
X591034Y389281D01*
X591046Y389149D01*
X591054Y389017D01*
X591058Y388884D01*
X591058Y388752D01*
X591054Y388619D01*
X591046Y388487D01*
X591034Y388355D01*
X591019Y388223D01*
X590999Y388092D01*
X590976Y387961D01*
X590949Y387832D01*
X590918Y387703D01*
X590883Y387575D01*
X590845Y387448D01*
X590803Y387322D01*
X590757Y387198D01*
X590708Y387075D01*
X590655Y386953D01*
X590598Y386833D01*
X590538Y386715D01*
X590475Y386598D01*
X590408Y386484D01*
X590338Y386371D01*
X590264Y386261D01*
X590188Y386153D01*
X590108Y386047D01*
X590025Y385943D01*
X589939Y385842D01*
X589850Y385744D01*
X589759Y385648D01*
X589664Y385555D01*
X589567Y385465D01*
X589467Y385378D01*
X589365Y385293D01*
X589260Y385212D01*
X589153Y385134D01*
X589044Y385058D01*
X588933Y384987D01*
X588819Y384918D01*
X588704Y384853D01*
X588586Y384791D01*
X588467Y384733D01*
X588346Y384678D01*
X588224Y384627D01*
X588100Y384579D01*
X587975Y384535D01*
X587849Y384495D01*
X587721Y384459D01*
X587593Y384426D01*
X587464Y384397D01*
X587333Y384372D01*
X587203Y384351D01*
X587071Y384333D01*
X586939Y384320D01*
X586807Y384310D01*
X586675Y384304D01*
X586542Y384302D01*
X586542Y400454D02*
X574802Y400454D01*
X586542Y400454D02*
X586675Y400456D01*
X586807Y400462D01*
X586939Y400472D01*
X587071Y400485D01*
X587203Y400503D01*
X587333Y400524D01*
X587464Y400549D01*
X587593Y400578D01*
X587721Y400611D01*
X587849Y400647D01*
X587975Y400687D01*
X588100Y400731D01*
X588224Y400779D01*
X588346Y400830D01*
X588467Y400885D01*
X588586Y400943D01*
X588704Y401005D01*
X588819Y401070D01*
X588933Y401139D01*
X589044Y401210D01*
X589153Y401286D01*
X589260Y401364D01*
X589365Y401445D01*
X589467Y401530D01*
X589567Y401617D01*
X589664Y401707D01*
X589759Y401800D01*
X589850Y401896D01*
X589939Y401994D01*
X590025Y402095D01*
X590108Y402199D01*
X590188Y402305D01*
X590264Y402413D01*
X590338Y402523D01*
X590408Y402636D01*
X590475Y402750D01*
X590538Y402867D01*
X590598Y402985D01*
X590655Y403105D01*
X590708Y403227D01*
X590757Y403350D01*
X590803Y403474D01*
X590845Y403600D01*
X590883Y403727D01*
X590918Y403855D01*
X590949Y403984D01*
X590976Y404113D01*
X590999Y404244D01*
X591019Y404375D01*
X591034Y404507D01*
X591046Y404639D01*
X591054Y404771D01*
X591058Y404904D01*
X591058Y405036D01*
X591054Y405169D01*
X591046Y405301D01*
X591034Y405433D01*
X591019Y405565D01*
X590999Y405696D01*
X590976Y405827D01*
X590949Y405956D01*
X590918Y406085D01*
X590883Y406213D01*
X590845Y406340D01*
X590803Y406466D01*
X590757Y406590D01*
X590708Y406713D01*
X590655Y406835D01*
X590598Y406955D01*
X590538Y407073D01*
X590475Y407190D01*
X590408Y407304D01*
X590338Y407417D01*
X590264Y407527D01*
X590188Y407635D01*
X590108Y407741D01*
X590025Y407845D01*
X589939Y407946D01*
X589850Y408044D01*
X589759Y408140D01*
X589664Y408233D01*
X589567Y408323D01*
X589467Y408410D01*
X589365Y408495D01*
X589260Y408576D01*
X589153Y408654D01*
X589044Y408730D01*
X588933Y408801D01*
X588819Y408870D01*
X588704Y408935D01*
X588586Y408997D01*
X588467Y409055D01*
X588346Y409110D01*
X588224Y409161D01*
X588100Y409209D01*
X587975Y409253D01*
X587849Y409293D01*
X587721Y409329D01*
X587593Y409362D01*
X587464Y409391D01*
X587333Y409416D01*
X587203Y409437D01*
X587071Y409455D01*
X586939Y409468D01*
X586807Y409478D01*
X586675Y409484D01*
X586542Y409486D01*
X586542Y409485D02*
X574802Y409485D01*
X574802Y420080D02*
X591058Y420080D01*
X574802Y415565D02*
X574802Y424596D01*
X574802Y259108D02*
X591058Y259108D01*
X591058Y257302D02*
X591058Y260914D01*
X574802Y260914D02*
X574802Y257302D01*
X574802Y267619D02*
X591058Y267619D01*
X591058Y276650D02*
X574802Y267619D01*
X574802Y276650D02*
X591058Y276650D01*
X365760Y386080D02*
X365760Y422910D01*
X361950Y382270D02*
X323850Y382270D01*
X320040Y386080D02*
X320040Y422910D01*
X358140Y430530D02*
X365760Y422910D01*
X359664Y424180D02*
X353314Y424180D01*
X356616Y420878D02*
X356616Y427482D01*
X327660Y430530D02*
X320040Y422910D01*
X327660Y430530D02*
X358140Y430530D01*
X365760Y386080D02*
X365758Y385958D01*
X365752Y385836D01*
X365742Y385714D01*
X365729Y385593D01*
X365711Y385472D01*
X365690Y385352D01*
X365664Y385232D01*
X365635Y385114D01*
X365603Y384996D01*
X365566Y384879D01*
X365526Y384764D01*
X365482Y384650D01*
X365434Y384538D01*
X365383Y384427D01*
X365328Y384318D01*
X365270Y384210D01*
X365208Y384105D01*
X365143Y384002D01*
X365075Y383900D01*
X365003Y383801D01*
X364929Y383705D01*
X364851Y383610D01*
X364770Y383519D01*
X364687Y383429D01*
X364601Y383343D01*
X364511Y383260D01*
X364420Y383179D01*
X364325Y383101D01*
X364229Y383027D01*
X364130Y382955D01*
X364028Y382887D01*
X363925Y382822D01*
X363820Y382760D01*
X363712Y382702D01*
X363603Y382647D01*
X363492Y382596D01*
X363380Y382548D01*
X363266Y382504D01*
X363151Y382464D01*
X363034Y382427D01*
X362916Y382395D01*
X362798Y382366D01*
X362678Y382340D01*
X362558Y382319D01*
X362437Y382301D01*
X362316Y382288D01*
X362194Y382278D01*
X362072Y382272D01*
X361950Y382270D01*
X323850Y382270D02*
X323728Y382272D01*
X323606Y382278D01*
X323484Y382288D01*
X323363Y382301D01*
X323242Y382319D01*
X323122Y382340D01*
X323002Y382366D01*
X322884Y382395D01*
X322766Y382427D01*
X322649Y382464D01*
X322534Y382504D01*
X322420Y382548D01*
X322308Y382596D01*
X322197Y382647D01*
X322088Y382702D01*
X321980Y382760D01*
X321875Y382822D01*
X321772Y382887D01*
X321670Y382955D01*
X321571Y383027D01*
X321475Y383101D01*
X321380Y383179D01*
X321289Y383260D01*
X321199Y383343D01*
X321113Y383429D01*
X321030Y383519D01*
X320949Y383610D01*
X320871Y383705D01*
X320797Y383801D01*
X320725Y383900D01*
X320657Y384002D01*
X320592Y384105D01*
X320530Y384210D01*
X320472Y384318D01*
X320417Y384427D01*
X320366Y384538D01*
X320318Y384650D01*
X320274Y384764D01*
X320234Y384879D01*
X320197Y384996D01*
X320165Y385114D01*
X320136Y385232D01*
X320110Y385352D01*
X320089Y385472D01*
X320071Y385593D01*
X320058Y385714D01*
X320048Y385836D01*
X320042Y385958D01*
X320040Y386080D01*
D10*
X380365Y411443D02*
X380365Y413983D01*
X380365Y411443D02*
X380363Y411343D01*
X380357Y411244D01*
X380347Y411144D01*
X380334Y411046D01*
X380316Y410947D01*
X380295Y410850D01*
X380270Y410754D01*
X380241Y410658D01*
X380208Y410564D01*
X380172Y410471D01*
X380132Y410380D01*
X380088Y410290D01*
X380041Y410202D01*
X379991Y410116D01*
X379937Y410032D01*
X379880Y409950D01*
X379820Y409871D01*
X379756Y409793D01*
X379690Y409719D01*
X379621Y409647D01*
X379549Y409578D01*
X379475Y409512D01*
X379397Y409448D01*
X379318Y409388D01*
X379236Y409331D01*
X379152Y409277D01*
X379066Y409227D01*
X378978Y409180D01*
X378888Y409136D01*
X378797Y409096D01*
X378704Y409060D01*
X378610Y409027D01*
X378514Y408998D01*
X378418Y408973D01*
X378321Y408952D01*
X378222Y408934D01*
X378124Y408921D01*
X378024Y408911D01*
X377925Y408905D01*
X377825Y408903D01*
X371475Y408903D01*
X371375Y408905D01*
X371276Y408911D01*
X371176Y408921D01*
X371078Y408934D01*
X370979Y408952D01*
X370882Y408973D01*
X370786Y408998D01*
X370690Y409027D01*
X370596Y409060D01*
X370503Y409096D01*
X370412Y409136D01*
X370322Y409180D01*
X370234Y409227D01*
X370148Y409277D01*
X370064Y409331D01*
X369982Y409388D01*
X369903Y409448D01*
X369825Y409512D01*
X369751Y409578D01*
X369679Y409647D01*
X369610Y409719D01*
X369544Y409793D01*
X369480Y409871D01*
X369420Y409950D01*
X369363Y410032D01*
X369309Y410116D01*
X369259Y410202D01*
X369212Y410290D01*
X369168Y410380D01*
X369128Y410471D01*
X369092Y410564D01*
X369059Y410658D01*
X369030Y410754D01*
X369005Y410850D01*
X368984Y410947D01*
X368966Y411046D01*
X368953Y411144D01*
X368943Y411244D01*
X368937Y411343D01*
X368935Y411443D01*
X368935Y413983D01*
X371475Y418465D02*
X368935Y421640D01*
X380365Y421640D01*
X380365Y418465D02*
X380365Y424815D01*
X316865Y387071D02*
X314325Y390246D01*
X325755Y390246D01*
X325755Y387071D02*
X325755Y393421D01*
X320040Y398501D02*
X319815Y398504D01*
X319590Y398512D01*
X319366Y398525D01*
X319142Y398544D01*
X318918Y398568D01*
X318695Y398597D01*
X318473Y398632D01*
X318252Y398672D01*
X318032Y398718D01*
X317813Y398768D01*
X317595Y398824D01*
X317378Y398885D01*
X317163Y398951D01*
X316950Y399022D01*
X316739Y399099D01*
X316529Y399180D01*
X316321Y399266D01*
X316116Y399357D01*
X315913Y399453D01*
X315825Y399485D01*
X315738Y399521D01*
X315652Y399560D01*
X315568Y399603D01*
X315486Y399649D01*
X315406Y399698D01*
X315328Y399750D01*
X315252Y399806D01*
X315178Y399864D01*
X315107Y399926D01*
X315038Y399990D01*
X314972Y400057D01*
X314909Y400126D01*
X314848Y400198D01*
X314790Y400272D01*
X314736Y400349D01*
X314684Y400427D01*
X314636Y400508D01*
X314591Y400590D01*
X314549Y400675D01*
X314511Y400761D01*
X314476Y400848D01*
X314444Y400936D01*
X314417Y401026D01*
X314392Y401117D01*
X314372Y401209D01*
X314355Y401301D01*
X314342Y401395D01*
X314333Y401488D01*
X314327Y401582D01*
X314325Y401676D01*
X314327Y401770D01*
X314333Y401864D01*
X314342Y401957D01*
X314355Y402051D01*
X314372Y402143D01*
X314392Y402235D01*
X314417Y402326D01*
X314444Y402416D01*
X314476Y402504D01*
X314511Y402591D01*
X314549Y402677D01*
X314591Y402762D01*
X314636Y402844D01*
X314684Y402925D01*
X314736Y403003D01*
X314790Y403080D01*
X314848Y403154D01*
X314909Y403226D01*
X314972Y403295D01*
X315038Y403362D01*
X315107Y403426D01*
X315178Y403488D01*
X315252Y403546D01*
X315328Y403602D01*
X315406Y403654D01*
X315486Y403703D01*
X315568Y403749D01*
X315652Y403792D01*
X315738Y403831D01*
X315825Y403867D01*
X315913Y403899D01*
X315913Y403898D02*
X316116Y403994D01*
X316321Y404085D01*
X316529Y404171D01*
X316739Y404252D01*
X316950Y404329D01*
X317163Y404400D01*
X317378Y404466D01*
X317595Y404527D01*
X317813Y404583D01*
X318032Y404633D01*
X318252Y404679D01*
X318473Y404719D01*
X318695Y404754D01*
X318918Y404783D01*
X319142Y404807D01*
X319366Y404826D01*
X319590Y404839D01*
X319815Y404847D01*
X320040Y404850D01*
X320040Y398501D02*
X320265Y398504D01*
X320490Y398512D01*
X320714Y398525D01*
X320938Y398544D01*
X321162Y398568D01*
X321385Y398597D01*
X321607Y398632D01*
X321828Y398672D01*
X322048Y398718D01*
X322267Y398768D01*
X322485Y398824D01*
X322702Y398885D01*
X322917Y398951D01*
X323130Y399022D01*
X323341Y399099D01*
X323551Y399180D01*
X323759Y399266D01*
X323964Y399357D01*
X324167Y399453D01*
X324168Y399453D02*
X324256Y399485D01*
X324343Y399521D01*
X324429Y399560D01*
X324513Y399603D01*
X324595Y399649D01*
X324675Y399698D01*
X324753Y399750D01*
X324829Y399806D01*
X324903Y399864D01*
X324974Y399926D01*
X325043Y399990D01*
X325109Y400057D01*
X325172Y400126D01*
X325233Y400198D01*
X325291Y400272D01*
X325345Y400349D01*
X325397Y400427D01*
X325445Y400508D01*
X325490Y400590D01*
X325532Y400675D01*
X325570Y400761D01*
X325605Y400848D01*
X325637Y400936D01*
X325664Y401026D01*
X325689Y401117D01*
X325709Y401209D01*
X325726Y401301D01*
X325739Y401395D01*
X325748Y401488D01*
X325754Y401582D01*
X325756Y401676D01*
X324167Y403898D02*
X323964Y403994D01*
X323759Y404085D01*
X323551Y404171D01*
X323341Y404252D01*
X323130Y404329D01*
X322917Y404400D01*
X322702Y404466D01*
X322485Y404527D01*
X322267Y404583D01*
X322048Y404633D01*
X321828Y404679D01*
X321607Y404719D01*
X321385Y404754D01*
X321162Y404783D01*
X320938Y404807D01*
X320714Y404826D01*
X320490Y404839D01*
X320265Y404847D01*
X320040Y404850D01*
X324168Y403899D02*
X324256Y403867D01*
X324343Y403831D01*
X324429Y403792D01*
X324513Y403749D01*
X324595Y403703D01*
X324675Y403654D01*
X324753Y403602D01*
X324829Y403546D01*
X324903Y403488D01*
X324974Y403426D01*
X325043Y403362D01*
X325109Y403295D01*
X325172Y403226D01*
X325233Y403154D01*
X325291Y403080D01*
X325345Y403003D01*
X325397Y402925D01*
X325445Y402844D01*
X325490Y402762D01*
X325532Y402677D01*
X325570Y402591D01*
X325605Y402504D01*
X325637Y402416D01*
X325664Y402326D01*
X325689Y402235D01*
X325709Y402143D01*
X325726Y402051D01*
X325739Y401957D01*
X325748Y401864D01*
X325754Y401770D01*
X325756Y401676D01*
X323215Y399136D02*
X316865Y404216D01*
X318135Y410185D02*
X323850Y410185D01*
X323935Y410187D01*
X324021Y410193D01*
X324106Y410202D01*
X324190Y410216D01*
X324274Y410233D01*
X324357Y410254D01*
X324439Y410278D01*
X324519Y410306D01*
X324599Y410338D01*
X324677Y410374D01*
X324753Y410412D01*
X324827Y410455D01*
X324899Y410500D01*
X324970Y410549D01*
X325038Y410601D01*
X325103Y410655D01*
X325166Y410713D01*
X325227Y410774D01*
X325285Y410837D01*
X325339Y410902D01*
X325391Y410970D01*
X325440Y411041D01*
X325485Y411113D01*
X325528Y411187D01*
X325566Y411263D01*
X325602Y411341D01*
X325634Y411421D01*
X325662Y411501D01*
X325686Y411583D01*
X325707Y411666D01*
X325724Y411750D01*
X325738Y411834D01*
X325747Y411919D01*
X325753Y412005D01*
X325755Y412090D01*
X325755Y415265D01*
X318135Y415265D01*
X314325Y421005D02*
X325755Y421005D01*
X314325Y421005D02*
X314325Y426085D01*
X319405Y426085D02*
X319405Y421005D01*
D12*
X365760Y257810D02*
X365760Y220980D01*
X361950Y217170D02*
X323850Y217170D01*
X320040Y220980D02*
X320040Y257810D01*
X358140Y265430D02*
X365760Y257810D01*
X359664Y259080D02*
X353314Y259080D01*
X356616Y255778D02*
X356616Y262382D01*
X327660Y265430D02*
X320040Y257810D01*
X327660Y265430D02*
X358140Y265430D01*
X365760Y220980D02*
X365758Y220858D01*
X365752Y220736D01*
X365742Y220614D01*
X365729Y220493D01*
X365711Y220372D01*
X365690Y220252D01*
X365664Y220132D01*
X365635Y220014D01*
X365603Y219896D01*
X365566Y219779D01*
X365526Y219664D01*
X365482Y219550D01*
X365434Y219438D01*
X365383Y219327D01*
X365328Y219218D01*
X365270Y219110D01*
X365208Y219005D01*
X365143Y218902D01*
X365075Y218800D01*
X365003Y218701D01*
X364929Y218605D01*
X364851Y218510D01*
X364770Y218419D01*
X364687Y218329D01*
X364601Y218243D01*
X364511Y218160D01*
X364420Y218079D01*
X364325Y218001D01*
X364229Y217927D01*
X364130Y217855D01*
X364028Y217787D01*
X363925Y217722D01*
X363820Y217660D01*
X363712Y217602D01*
X363603Y217547D01*
X363492Y217496D01*
X363380Y217448D01*
X363266Y217404D01*
X363151Y217364D01*
X363034Y217327D01*
X362916Y217295D01*
X362798Y217266D01*
X362678Y217240D01*
X362558Y217219D01*
X362437Y217201D01*
X362316Y217188D01*
X362194Y217178D01*
X362072Y217172D01*
X361950Y217170D01*
X323850Y217170D02*
X323728Y217172D01*
X323606Y217178D01*
X323484Y217188D01*
X323363Y217201D01*
X323242Y217219D01*
X323122Y217240D01*
X323002Y217266D01*
X322884Y217295D01*
X322766Y217327D01*
X322649Y217364D01*
X322534Y217404D01*
X322420Y217448D01*
X322308Y217496D01*
X322197Y217547D01*
X322088Y217602D01*
X321980Y217660D01*
X321875Y217722D01*
X321772Y217787D01*
X321670Y217855D01*
X321571Y217927D01*
X321475Y218001D01*
X321380Y218079D01*
X321289Y218160D01*
X321199Y218243D01*
X321113Y218329D01*
X321030Y218419D01*
X320949Y218510D01*
X320871Y218605D01*
X320797Y218701D01*
X320725Y218800D01*
X320657Y218902D01*
X320592Y219005D01*
X320530Y219110D01*
X320472Y219218D01*
X320417Y219327D01*
X320366Y219438D01*
X320318Y219550D01*
X320274Y219664D01*
X320234Y219779D01*
X320197Y219896D01*
X320165Y220014D01*
X320136Y220132D01*
X320110Y220252D01*
X320089Y220372D01*
X320071Y220493D01*
X320058Y220614D01*
X320048Y220736D01*
X320042Y220858D01*
X320040Y220980D01*
D10*
X380365Y246343D02*
X380365Y248883D01*
X380365Y246343D02*
X380363Y246243D01*
X380357Y246144D01*
X380347Y246044D01*
X380334Y245946D01*
X380316Y245847D01*
X380295Y245750D01*
X380270Y245654D01*
X380241Y245558D01*
X380208Y245464D01*
X380172Y245371D01*
X380132Y245280D01*
X380088Y245190D01*
X380041Y245102D01*
X379991Y245016D01*
X379937Y244932D01*
X379880Y244850D01*
X379820Y244771D01*
X379756Y244693D01*
X379690Y244619D01*
X379621Y244547D01*
X379549Y244478D01*
X379475Y244412D01*
X379397Y244348D01*
X379318Y244288D01*
X379236Y244231D01*
X379152Y244177D01*
X379066Y244127D01*
X378978Y244080D01*
X378888Y244036D01*
X378797Y243996D01*
X378704Y243960D01*
X378610Y243927D01*
X378514Y243898D01*
X378418Y243873D01*
X378321Y243852D01*
X378222Y243834D01*
X378124Y243821D01*
X378024Y243811D01*
X377925Y243805D01*
X377825Y243803D01*
X371475Y243803D01*
X371375Y243805D01*
X371276Y243811D01*
X371176Y243821D01*
X371078Y243834D01*
X370979Y243852D01*
X370882Y243873D01*
X370786Y243898D01*
X370690Y243927D01*
X370596Y243960D01*
X370503Y243996D01*
X370412Y244036D01*
X370322Y244080D01*
X370234Y244127D01*
X370148Y244177D01*
X370064Y244231D01*
X369982Y244288D01*
X369903Y244348D01*
X369825Y244412D01*
X369751Y244478D01*
X369679Y244547D01*
X369610Y244619D01*
X369544Y244693D01*
X369480Y244771D01*
X369420Y244850D01*
X369363Y244932D01*
X369309Y245016D01*
X369259Y245102D01*
X369212Y245190D01*
X369168Y245280D01*
X369128Y245371D01*
X369092Y245464D01*
X369059Y245558D01*
X369030Y245654D01*
X369005Y245750D01*
X368984Y245847D01*
X368966Y245946D01*
X368953Y246044D01*
X368943Y246144D01*
X368937Y246243D01*
X368935Y246343D01*
X368935Y248883D01*
X368935Y256858D02*
X368937Y256962D01*
X368943Y257067D01*
X368952Y257171D01*
X368965Y257274D01*
X368983Y257377D01*
X369003Y257479D01*
X369028Y257581D01*
X369056Y257681D01*
X369088Y257781D01*
X369124Y257879D01*
X369163Y257976D01*
X369205Y258071D01*
X369251Y258165D01*
X369301Y258257D01*
X369353Y258347D01*
X369409Y258435D01*
X369469Y258521D01*
X369531Y258605D01*
X369596Y258686D01*
X369664Y258765D01*
X369736Y258842D01*
X369809Y258915D01*
X369886Y258987D01*
X369965Y259055D01*
X370046Y259120D01*
X370130Y259182D01*
X370216Y259242D01*
X370304Y259298D01*
X370394Y259350D01*
X370486Y259400D01*
X370580Y259446D01*
X370675Y259488D01*
X370772Y259527D01*
X370870Y259563D01*
X370970Y259595D01*
X371070Y259623D01*
X371172Y259648D01*
X371274Y259668D01*
X371377Y259686D01*
X371480Y259699D01*
X371584Y259708D01*
X371689Y259714D01*
X371793Y259716D01*
X368935Y256858D02*
X368937Y256740D01*
X368943Y256621D01*
X368952Y256503D01*
X368965Y256386D01*
X368983Y256269D01*
X369003Y256152D01*
X369028Y256036D01*
X369056Y255921D01*
X369089Y255808D01*
X369124Y255695D01*
X369164Y255583D01*
X369206Y255473D01*
X369253Y255364D01*
X369303Y255256D01*
X369356Y255151D01*
X369413Y255047D01*
X369473Y254945D01*
X369536Y254845D01*
X369603Y254747D01*
X369672Y254651D01*
X369745Y254558D01*
X369821Y254467D01*
X369899Y254378D01*
X369981Y254292D01*
X370065Y254209D01*
X370151Y254128D01*
X370241Y254051D01*
X370332Y253976D01*
X370426Y253904D01*
X370523Y253835D01*
X370621Y253770D01*
X370722Y253707D01*
X370825Y253648D01*
X370929Y253592D01*
X371035Y253540D01*
X371143Y253491D01*
X371252Y253446D01*
X371363Y253404D01*
X371475Y253366D01*
X374015Y258763D02*
X373940Y258839D01*
X373861Y258914D01*
X373780Y258985D01*
X373696Y259054D01*
X373610Y259119D01*
X373522Y259181D01*
X373432Y259241D01*
X373340Y259297D01*
X373245Y259350D01*
X373149Y259399D01*
X373051Y259445D01*
X372952Y259488D01*
X372851Y259527D01*
X372749Y259562D01*
X372646Y259594D01*
X372542Y259622D01*
X372437Y259647D01*
X372330Y259668D01*
X372224Y259685D01*
X372117Y259698D01*
X372009Y259707D01*
X371901Y259713D01*
X371793Y259715D01*
X374015Y258763D02*
X380365Y253365D01*
X380365Y259715D01*
X316865Y221971D02*
X314325Y225146D01*
X325755Y225146D01*
X325755Y221971D02*
X325755Y228321D01*
X320040Y233401D02*
X319815Y233404D01*
X319590Y233412D01*
X319366Y233425D01*
X319142Y233444D01*
X318918Y233468D01*
X318695Y233497D01*
X318473Y233532D01*
X318252Y233572D01*
X318032Y233618D01*
X317813Y233668D01*
X317595Y233724D01*
X317378Y233785D01*
X317163Y233851D01*
X316950Y233922D01*
X316739Y233999D01*
X316529Y234080D01*
X316321Y234166D01*
X316116Y234257D01*
X315913Y234353D01*
X315825Y234385D01*
X315738Y234421D01*
X315652Y234460D01*
X315568Y234503D01*
X315486Y234549D01*
X315406Y234598D01*
X315328Y234650D01*
X315252Y234706D01*
X315178Y234764D01*
X315107Y234826D01*
X315038Y234890D01*
X314972Y234957D01*
X314909Y235026D01*
X314848Y235098D01*
X314790Y235172D01*
X314736Y235249D01*
X314684Y235327D01*
X314636Y235408D01*
X314591Y235490D01*
X314549Y235575D01*
X314511Y235661D01*
X314476Y235748D01*
X314444Y235836D01*
X314417Y235926D01*
X314392Y236017D01*
X314372Y236109D01*
X314355Y236201D01*
X314342Y236295D01*
X314333Y236388D01*
X314327Y236482D01*
X314325Y236576D01*
X314327Y236670D01*
X314333Y236764D01*
X314342Y236857D01*
X314355Y236951D01*
X314372Y237043D01*
X314392Y237135D01*
X314417Y237226D01*
X314444Y237316D01*
X314476Y237404D01*
X314511Y237491D01*
X314549Y237577D01*
X314591Y237662D01*
X314636Y237744D01*
X314684Y237825D01*
X314736Y237903D01*
X314790Y237980D01*
X314848Y238054D01*
X314909Y238126D01*
X314972Y238195D01*
X315038Y238262D01*
X315107Y238326D01*
X315178Y238388D01*
X315252Y238446D01*
X315328Y238502D01*
X315406Y238554D01*
X315486Y238603D01*
X315568Y238649D01*
X315652Y238692D01*
X315738Y238731D01*
X315825Y238767D01*
X315913Y238799D01*
X315913Y238798D02*
X316116Y238894D01*
X316321Y238985D01*
X316529Y239071D01*
X316739Y239152D01*
X316950Y239229D01*
X317163Y239300D01*
X317378Y239366D01*
X317595Y239427D01*
X317813Y239483D01*
X318032Y239533D01*
X318252Y239579D01*
X318473Y239619D01*
X318695Y239654D01*
X318918Y239683D01*
X319142Y239707D01*
X319366Y239726D01*
X319590Y239739D01*
X319815Y239747D01*
X320040Y239750D01*
X320040Y233401D02*
X320265Y233404D01*
X320490Y233412D01*
X320714Y233425D01*
X320938Y233444D01*
X321162Y233468D01*
X321385Y233497D01*
X321607Y233532D01*
X321828Y233572D01*
X322048Y233618D01*
X322267Y233668D01*
X322485Y233724D01*
X322702Y233785D01*
X322917Y233851D01*
X323130Y233922D01*
X323341Y233999D01*
X323551Y234080D01*
X323759Y234166D01*
X323964Y234257D01*
X324167Y234353D01*
X324168Y234353D02*
X324256Y234385D01*
X324343Y234421D01*
X324429Y234460D01*
X324513Y234503D01*
X324595Y234549D01*
X324675Y234598D01*
X324753Y234650D01*
X324829Y234706D01*
X324903Y234764D01*
X324974Y234826D01*
X325043Y234890D01*
X325109Y234957D01*
X325172Y235026D01*
X325233Y235098D01*
X325291Y235172D01*
X325345Y235249D01*
X325397Y235327D01*
X325445Y235408D01*
X325490Y235490D01*
X325532Y235575D01*
X325570Y235661D01*
X325605Y235748D01*
X325637Y235836D01*
X325664Y235926D01*
X325689Y236017D01*
X325709Y236109D01*
X325726Y236201D01*
X325739Y236295D01*
X325748Y236388D01*
X325754Y236482D01*
X325756Y236576D01*
X324167Y238798D02*
X323964Y238894D01*
X323759Y238985D01*
X323551Y239071D01*
X323341Y239152D01*
X323130Y239229D01*
X322917Y239300D01*
X322702Y239366D01*
X322485Y239427D01*
X322267Y239483D01*
X322048Y239533D01*
X321828Y239579D01*
X321607Y239619D01*
X321385Y239654D01*
X321162Y239683D01*
X320938Y239707D01*
X320714Y239726D01*
X320490Y239739D01*
X320265Y239747D01*
X320040Y239750D01*
X324168Y238799D02*
X324256Y238767D01*
X324343Y238731D01*
X324429Y238692D01*
X324513Y238649D01*
X324595Y238603D01*
X324675Y238554D01*
X324753Y238502D01*
X324829Y238446D01*
X324903Y238388D01*
X324974Y238326D01*
X325043Y238262D01*
X325109Y238195D01*
X325172Y238126D01*
X325233Y238054D01*
X325291Y237980D01*
X325345Y237903D01*
X325397Y237825D01*
X325445Y237744D01*
X325490Y237662D01*
X325532Y237577D01*
X325570Y237491D01*
X325605Y237404D01*
X325637Y237316D01*
X325664Y237226D01*
X325689Y237135D01*
X325709Y237043D01*
X325726Y236951D01*
X325739Y236857D01*
X325748Y236764D01*
X325754Y236670D01*
X325756Y236576D01*
X323215Y234036D02*
X316865Y239116D01*
X318135Y245085D02*
X323850Y245085D01*
X323935Y245087D01*
X324021Y245093D01*
X324106Y245102D01*
X324190Y245116D01*
X324274Y245133D01*
X324357Y245154D01*
X324439Y245178D01*
X324519Y245206D01*
X324599Y245238D01*
X324677Y245274D01*
X324753Y245312D01*
X324827Y245355D01*
X324899Y245400D01*
X324970Y245449D01*
X325038Y245501D01*
X325103Y245555D01*
X325166Y245613D01*
X325227Y245674D01*
X325285Y245737D01*
X325339Y245802D01*
X325391Y245870D01*
X325440Y245941D01*
X325485Y246013D01*
X325528Y246087D01*
X325566Y246163D01*
X325602Y246241D01*
X325634Y246321D01*
X325662Y246401D01*
X325686Y246483D01*
X325707Y246566D01*
X325724Y246650D01*
X325738Y246734D01*
X325747Y246819D01*
X325753Y246905D01*
X325755Y246990D01*
X325755Y250165D01*
X318135Y250165D01*
X314325Y255905D02*
X325755Y255905D01*
X314325Y255905D02*
X314325Y260985D01*
X319405Y260985D02*
X319405Y255905D01*
D12*
X365760Y207010D02*
X365760Y170180D01*
X361950Y166370D02*
X323850Y166370D01*
X320040Y170180D02*
X320040Y207010D01*
X358140Y214630D02*
X365760Y207010D01*
X359664Y208280D02*
X353314Y208280D01*
X356616Y204978D02*
X356616Y211582D01*
X327660Y214630D02*
X320040Y207010D01*
X327660Y214630D02*
X358140Y214630D01*
X365760Y170180D02*
X365758Y170058D01*
X365752Y169936D01*
X365742Y169814D01*
X365729Y169693D01*
X365711Y169572D01*
X365690Y169452D01*
X365664Y169332D01*
X365635Y169214D01*
X365603Y169096D01*
X365566Y168979D01*
X365526Y168864D01*
X365482Y168750D01*
X365434Y168638D01*
X365383Y168527D01*
X365328Y168418D01*
X365270Y168310D01*
X365208Y168205D01*
X365143Y168102D01*
X365075Y168000D01*
X365003Y167901D01*
X364929Y167805D01*
X364851Y167710D01*
X364770Y167619D01*
X364687Y167529D01*
X364601Y167443D01*
X364511Y167360D01*
X364420Y167279D01*
X364325Y167201D01*
X364229Y167127D01*
X364130Y167055D01*
X364028Y166987D01*
X363925Y166922D01*
X363820Y166860D01*
X363712Y166802D01*
X363603Y166747D01*
X363492Y166696D01*
X363380Y166648D01*
X363266Y166604D01*
X363151Y166564D01*
X363034Y166527D01*
X362916Y166495D01*
X362798Y166466D01*
X362678Y166440D01*
X362558Y166419D01*
X362437Y166401D01*
X362316Y166388D01*
X362194Y166378D01*
X362072Y166372D01*
X361950Y166370D01*
X323850Y166370D02*
X323728Y166372D01*
X323606Y166378D01*
X323484Y166388D01*
X323363Y166401D01*
X323242Y166419D01*
X323122Y166440D01*
X323002Y166466D01*
X322884Y166495D01*
X322766Y166527D01*
X322649Y166564D01*
X322534Y166604D01*
X322420Y166648D01*
X322308Y166696D01*
X322197Y166747D01*
X322088Y166802D01*
X321980Y166860D01*
X321875Y166922D01*
X321772Y166987D01*
X321670Y167055D01*
X321571Y167127D01*
X321475Y167201D01*
X321380Y167279D01*
X321289Y167360D01*
X321199Y167443D01*
X321113Y167529D01*
X321030Y167619D01*
X320949Y167710D01*
X320871Y167805D01*
X320797Y167901D01*
X320725Y168000D01*
X320657Y168102D01*
X320592Y168205D01*
X320530Y168310D01*
X320472Y168418D01*
X320417Y168527D01*
X320366Y168638D01*
X320318Y168750D01*
X320274Y168864D01*
X320234Y168979D01*
X320197Y169096D01*
X320165Y169214D01*
X320136Y169332D01*
X320110Y169452D01*
X320089Y169572D01*
X320071Y169693D01*
X320058Y169814D01*
X320048Y169936D01*
X320042Y170058D01*
X320040Y170180D01*
D10*
X380365Y195543D02*
X380365Y198083D01*
X380365Y195543D02*
X380363Y195443D01*
X380357Y195344D01*
X380347Y195244D01*
X380334Y195146D01*
X380316Y195047D01*
X380295Y194950D01*
X380270Y194854D01*
X380241Y194758D01*
X380208Y194664D01*
X380172Y194571D01*
X380132Y194480D01*
X380088Y194390D01*
X380041Y194302D01*
X379991Y194216D01*
X379937Y194132D01*
X379880Y194050D01*
X379820Y193971D01*
X379756Y193893D01*
X379690Y193819D01*
X379621Y193747D01*
X379549Y193678D01*
X379475Y193612D01*
X379397Y193548D01*
X379318Y193488D01*
X379236Y193431D01*
X379152Y193377D01*
X379066Y193327D01*
X378978Y193280D01*
X378888Y193236D01*
X378797Y193196D01*
X378704Y193160D01*
X378610Y193127D01*
X378514Y193098D01*
X378418Y193073D01*
X378321Y193052D01*
X378222Y193034D01*
X378124Y193021D01*
X378024Y193011D01*
X377925Y193005D01*
X377825Y193003D01*
X371475Y193003D01*
X371375Y193005D01*
X371276Y193011D01*
X371176Y193021D01*
X371078Y193034D01*
X370979Y193052D01*
X370882Y193073D01*
X370786Y193098D01*
X370690Y193127D01*
X370596Y193160D01*
X370503Y193196D01*
X370412Y193236D01*
X370322Y193280D01*
X370234Y193327D01*
X370148Y193377D01*
X370064Y193431D01*
X369982Y193488D01*
X369903Y193548D01*
X369825Y193612D01*
X369751Y193678D01*
X369679Y193747D01*
X369610Y193819D01*
X369544Y193893D01*
X369480Y193971D01*
X369420Y194050D01*
X369363Y194132D01*
X369309Y194216D01*
X369259Y194302D01*
X369212Y194390D01*
X369168Y194480D01*
X369128Y194571D01*
X369092Y194664D01*
X369059Y194758D01*
X369030Y194854D01*
X369005Y194950D01*
X368984Y195047D01*
X368966Y195146D01*
X368953Y195244D01*
X368943Y195344D01*
X368937Y195443D01*
X368935Y195543D01*
X368935Y198083D01*
X380365Y202565D02*
X380365Y205740D01*
X380363Y205851D01*
X380357Y205961D01*
X380348Y206072D01*
X380334Y206182D01*
X380317Y206291D01*
X380296Y206400D01*
X380271Y206508D01*
X380242Y206615D01*
X380210Y206721D01*
X380174Y206826D01*
X380134Y206929D01*
X380091Y207031D01*
X380044Y207132D01*
X379993Y207231D01*
X379940Y207328D01*
X379883Y207422D01*
X379822Y207515D01*
X379759Y207606D01*
X379692Y207695D01*
X379622Y207781D01*
X379549Y207864D01*
X379474Y207946D01*
X379396Y208024D01*
X379314Y208099D01*
X379231Y208172D01*
X379145Y208242D01*
X379056Y208309D01*
X378965Y208372D01*
X378872Y208433D01*
X378778Y208490D01*
X378681Y208543D01*
X378582Y208594D01*
X378481Y208641D01*
X378379Y208684D01*
X378276Y208724D01*
X378171Y208760D01*
X378065Y208792D01*
X377958Y208821D01*
X377850Y208846D01*
X377741Y208867D01*
X377632Y208884D01*
X377522Y208898D01*
X377411Y208907D01*
X377301Y208913D01*
X377190Y208915D01*
X377079Y208913D01*
X376969Y208907D01*
X376858Y208898D01*
X376748Y208884D01*
X376639Y208867D01*
X376530Y208846D01*
X376422Y208821D01*
X376315Y208792D01*
X376209Y208760D01*
X376104Y208724D01*
X376001Y208684D01*
X375899Y208641D01*
X375798Y208594D01*
X375699Y208543D01*
X375603Y208490D01*
X375508Y208433D01*
X375415Y208372D01*
X375324Y208309D01*
X375235Y208242D01*
X375149Y208172D01*
X375066Y208099D01*
X374984Y208024D01*
X374906Y207946D01*
X374831Y207864D01*
X374758Y207781D01*
X374688Y207695D01*
X374621Y207606D01*
X374558Y207515D01*
X374497Y207422D01*
X374440Y207328D01*
X374387Y207231D01*
X374336Y207132D01*
X374289Y207031D01*
X374246Y206929D01*
X374206Y206826D01*
X374170Y206721D01*
X374138Y206615D01*
X374109Y206508D01*
X374084Y206400D01*
X374063Y206291D01*
X374046Y206182D01*
X374032Y206072D01*
X374023Y205961D01*
X374017Y205851D01*
X374015Y205740D01*
X368935Y206375D02*
X368935Y202565D01*
X368935Y206375D02*
X368937Y206475D01*
X368943Y206574D01*
X368953Y206674D01*
X368966Y206772D01*
X368984Y206871D01*
X369005Y206968D01*
X369030Y207064D01*
X369059Y207160D01*
X369092Y207254D01*
X369128Y207347D01*
X369168Y207438D01*
X369212Y207528D01*
X369259Y207616D01*
X369309Y207702D01*
X369363Y207786D01*
X369420Y207868D01*
X369480Y207947D01*
X369544Y208025D01*
X369610Y208099D01*
X369679Y208171D01*
X369751Y208240D01*
X369825Y208306D01*
X369903Y208370D01*
X369982Y208430D01*
X370064Y208487D01*
X370148Y208541D01*
X370234Y208591D01*
X370322Y208638D01*
X370412Y208682D01*
X370503Y208722D01*
X370596Y208758D01*
X370690Y208791D01*
X370786Y208820D01*
X370882Y208845D01*
X370979Y208866D01*
X371078Y208884D01*
X371176Y208897D01*
X371276Y208907D01*
X371375Y208913D01*
X371475Y208915D01*
X371575Y208913D01*
X371674Y208907D01*
X371774Y208897D01*
X371872Y208884D01*
X371971Y208866D01*
X372068Y208845D01*
X372164Y208820D01*
X372260Y208791D01*
X372354Y208758D01*
X372447Y208722D01*
X372538Y208682D01*
X372628Y208638D01*
X372716Y208591D01*
X372802Y208541D01*
X372886Y208487D01*
X372968Y208430D01*
X373047Y208370D01*
X373125Y208306D01*
X373199Y208240D01*
X373271Y208171D01*
X373340Y208099D01*
X373406Y208025D01*
X373470Y207947D01*
X373530Y207868D01*
X373587Y207786D01*
X373641Y207702D01*
X373691Y207616D01*
X373738Y207528D01*
X373782Y207438D01*
X373822Y207347D01*
X373858Y207254D01*
X373891Y207160D01*
X373920Y207064D01*
X373945Y206968D01*
X373966Y206871D01*
X373984Y206772D01*
X373997Y206674D01*
X374007Y206574D01*
X374013Y206475D01*
X374015Y206375D01*
X374015Y203835D01*
X316865Y171171D02*
X314325Y174346D01*
X325755Y174346D01*
X325755Y171171D02*
X325755Y177521D01*
X320040Y182601D02*
X319815Y182604D01*
X319590Y182612D01*
X319366Y182625D01*
X319142Y182644D01*
X318918Y182668D01*
X318695Y182697D01*
X318473Y182732D01*
X318252Y182772D01*
X318032Y182818D01*
X317813Y182868D01*
X317595Y182924D01*
X317378Y182985D01*
X317163Y183051D01*
X316950Y183122D01*
X316739Y183199D01*
X316529Y183280D01*
X316321Y183366D01*
X316116Y183457D01*
X315913Y183553D01*
X315825Y183585D01*
X315738Y183621D01*
X315652Y183660D01*
X315568Y183703D01*
X315486Y183749D01*
X315406Y183798D01*
X315328Y183850D01*
X315252Y183906D01*
X315178Y183964D01*
X315107Y184026D01*
X315038Y184090D01*
X314972Y184157D01*
X314909Y184226D01*
X314848Y184298D01*
X314790Y184372D01*
X314736Y184449D01*
X314684Y184527D01*
X314636Y184608D01*
X314591Y184690D01*
X314549Y184775D01*
X314511Y184861D01*
X314476Y184948D01*
X314444Y185036D01*
X314417Y185126D01*
X314392Y185217D01*
X314372Y185309D01*
X314355Y185401D01*
X314342Y185495D01*
X314333Y185588D01*
X314327Y185682D01*
X314325Y185776D01*
X314327Y185870D01*
X314333Y185964D01*
X314342Y186057D01*
X314355Y186151D01*
X314372Y186243D01*
X314392Y186335D01*
X314417Y186426D01*
X314444Y186516D01*
X314476Y186604D01*
X314511Y186691D01*
X314549Y186777D01*
X314591Y186862D01*
X314636Y186944D01*
X314684Y187025D01*
X314736Y187103D01*
X314790Y187180D01*
X314848Y187254D01*
X314909Y187326D01*
X314972Y187395D01*
X315038Y187462D01*
X315107Y187526D01*
X315178Y187588D01*
X315252Y187646D01*
X315328Y187702D01*
X315406Y187754D01*
X315486Y187803D01*
X315568Y187849D01*
X315652Y187892D01*
X315738Y187931D01*
X315825Y187967D01*
X315913Y187999D01*
X315913Y187998D02*
X316116Y188094D01*
X316321Y188185D01*
X316529Y188271D01*
X316739Y188352D01*
X316950Y188429D01*
X317163Y188500D01*
X317378Y188566D01*
X317595Y188627D01*
X317813Y188683D01*
X318032Y188733D01*
X318252Y188779D01*
X318473Y188819D01*
X318695Y188854D01*
X318918Y188883D01*
X319142Y188907D01*
X319366Y188926D01*
X319590Y188939D01*
X319815Y188947D01*
X320040Y188950D01*
X320040Y182601D02*
X320265Y182604D01*
X320490Y182612D01*
X320714Y182625D01*
X320938Y182644D01*
X321162Y182668D01*
X321385Y182697D01*
X321607Y182732D01*
X321828Y182772D01*
X322048Y182818D01*
X322267Y182868D01*
X322485Y182924D01*
X322702Y182985D01*
X322917Y183051D01*
X323130Y183122D01*
X323341Y183199D01*
X323551Y183280D01*
X323759Y183366D01*
X323964Y183457D01*
X324167Y183553D01*
X324168Y183553D02*
X324256Y183585D01*
X324343Y183621D01*
X324429Y183660D01*
X324513Y183703D01*
X324595Y183749D01*
X324675Y183798D01*
X324753Y183850D01*
X324829Y183906D01*
X324903Y183964D01*
X324974Y184026D01*
X325043Y184090D01*
X325109Y184157D01*
X325172Y184226D01*
X325233Y184298D01*
X325291Y184372D01*
X325345Y184449D01*
X325397Y184527D01*
X325445Y184608D01*
X325490Y184690D01*
X325532Y184775D01*
X325570Y184861D01*
X325605Y184948D01*
X325637Y185036D01*
X325664Y185126D01*
X325689Y185217D01*
X325709Y185309D01*
X325726Y185401D01*
X325739Y185495D01*
X325748Y185588D01*
X325754Y185682D01*
X325756Y185776D01*
X324167Y187998D02*
X323964Y188094D01*
X323759Y188185D01*
X323551Y188271D01*
X323341Y188352D01*
X323130Y188429D01*
X322917Y188500D01*
X322702Y188566D01*
X322485Y188627D01*
X322267Y188683D01*
X322048Y188733D01*
X321828Y188779D01*
X321607Y188819D01*
X321385Y188854D01*
X321162Y188883D01*
X320938Y188907D01*
X320714Y188926D01*
X320490Y188939D01*
X320265Y188947D01*
X320040Y188950D01*
X324168Y187999D02*
X324256Y187967D01*
X324343Y187931D01*
X324429Y187892D01*
X324513Y187849D01*
X324595Y187803D01*
X324675Y187754D01*
X324753Y187702D01*
X324829Y187646D01*
X324903Y187588D01*
X324974Y187526D01*
X325043Y187462D01*
X325109Y187395D01*
X325172Y187326D01*
X325233Y187254D01*
X325291Y187180D01*
X325345Y187103D01*
X325397Y187025D01*
X325445Y186944D01*
X325490Y186862D01*
X325532Y186777D01*
X325570Y186691D01*
X325605Y186604D01*
X325637Y186516D01*
X325664Y186426D01*
X325689Y186335D01*
X325709Y186243D01*
X325726Y186151D01*
X325739Y186057D01*
X325748Y185964D01*
X325754Y185870D01*
X325756Y185776D01*
X323215Y183236D02*
X316865Y188316D01*
X318135Y194285D02*
X323850Y194285D01*
X323935Y194287D01*
X324021Y194293D01*
X324106Y194302D01*
X324190Y194316D01*
X324274Y194333D01*
X324357Y194354D01*
X324439Y194378D01*
X324519Y194406D01*
X324599Y194438D01*
X324677Y194474D01*
X324753Y194512D01*
X324827Y194555D01*
X324899Y194600D01*
X324970Y194649D01*
X325038Y194701D01*
X325103Y194755D01*
X325166Y194813D01*
X325227Y194874D01*
X325285Y194937D01*
X325339Y195002D01*
X325391Y195070D01*
X325440Y195141D01*
X325485Y195213D01*
X325528Y195287D01*
X325566Y195363D01*
X325602Y195441D01*
X325634Y195521D01*
X325662Y195601D01*
X325686Y195683D01*
X325707Y195766D01*
X325724Y195850D01*
X325738Y195934D01*
X325747Y196019D01*
X325753Y196105D01*
X325755Y196190D01*
X325755Y199365D01*
X318135Y199365D01*
X314325Y205105D02*
X325755Y205105D01*
X314325Y205105D02*
X314325Y210185D01*
X319405Y210185D02*
X319405Y205105D01*
D12*
X368300Y515620D02*
X368302Y515720D01*
X368308Y515819D01*
X368318Y515919D01*
X368331Y516017D01*
X368349Y516116D01*
X368370Y516213D01*
X368395Y516309D01*
X368424Y516405D01*
X368457Y516499D01*
X368493Y516592D01*
X368533Y516683D01*
X368577Y516773D01*
X368624Y516861D01*
X368674Y516947D01*
X368728Y517031D01*
X368785Y517113D01*
X368845Y517192D01*
X368909Y517270D01*
X368975Y517344D01*
X369044Y517416D01*
X369116Y517485D01*
X369190Y517551D01*
X369268Y517615D01*
X369347Y517675D01*
X369429Y517732D01*
X369513Y517786D01*
X369599Y517836D01*
X369687Y517883D01*
X369777Y517927D01*
X369868Y517967D01*
X369961Y518003D01*
X370055Y518036D01*
X370151Y518065D01*
X370247Y518090D01*
X370344Y518111D01*
X370443Y518129D01*
X370541Y518142D01*
X370641Y518152D01*
X370740Y518158D01*
X370840Y518160D01*
X368300Y500380D02*
X368302Y500280D01*
X368308Y500181D01*
X368318Y500081D01*
X368331Y499983D01*
X368349Y499884D01*
X368370Y499787D01*
X368395Y499691D01*
X368424Y499595D01*
X368457Y499501D01*
X368493Y499408D01*
X368533Y499317D01*
X368577Y499227D01*
X368624Y499139D01*
X368674Y499053D01*
X368728Y498969D01*
X368785Y498887D01*
X368845Y498808D01*
X368909Y498730D01*
X368975Y498656D01*
X369044Y498584D01*
X369116Y498515D01*
X369190Y498449D01*
X369268Y498385D01*
X369347Y498325D01*
X369429Y498268D01*
X369513Y498214D01*
X369599Y498164D01*
X369687Y498117D01*
X369777Y498073D01*
X369868Y498033D01*
X369961Y497997D01*
X370055Y497964D01*
X370151Y497935D01*
X370247Y497910D01*
X370344Y497889D01*
X370443Y497871D01*
X370541Y497858D01*
X370641Y497848D01*
X370740Y497842D01*
X370840Y497840D01*
X416560Y497840D02*
X416660Y497842D01*
X416759Y497848D01*
X416859Y497858D01*
X416957Y497871D01*
X417056Y497889D01*
X417153Y497910D01*
X417249Y497935D01*
X417345Y497964D01*
X417439Y497997D01*
X417532Y498033D01*
X417623Y498073D01*
X417713Y498117D01*
X417801Y498164D01*
X417887Y498214D01*
X417971Y498268D01*
X418053Y498325D01*
X418132Y498385D01*
X418210Y498449D01*
X418284Y498515D01*
X418356Y498584D01*
X418425Y498656D01*
X418491Y498730D01*
X418555Y498808D01*
X418615Y498887D01*
X418672Y498969D01*
X418726Y499053D01*
X418776Y499139D01*
X418823Y499227D01*
X418867Y499317D01*
X418907Y499408D01*
X418943Y499501D01*
X418976Y499595D01*
X419005Y499691D01*
X419030Y499787D01*
X419051Y499884D01*
X419069Y499983D01*
X419082Y500081D01*
X419092Y500181D01*
X419098Y500280D01*
X419100Y500380D01*
X419100Y515620D02*
X419098Y515720D01*
X419092Y515819D01*
X419082Y515919D01*
X419069Y516017D01*
X419051Y516116D01*
X419030Y516213D01*
X419005Y516309D01*
X418976Y516405D01*
X418943Y516499D01*
X418907Y516592D01*
X418867Y516683D01*
X418823Y516773D01*
X418776Y516861D01*
X418726Y516947D01*
X418672Y517031D01*
X418615Y517113D01*
X418555Y517192D01*
X418491Y517270D01*
X418425Y517344D01*
X418356Y517416D01*
X418284Y517485D01*
X418210Y517551D01*
X418132Y517615D01*
X418053Y517675D01*
X417971Y517732D01*
X417887Y517786D01*
X417801Y517836D01*
X417713Y517883D01*
X417623Y517927D01*
X417532Y517967D01*
X417439Y518003D01*
X417345Y518036D01*
X417249Y518065D01*
X417153Y518090D01*
X417056Y518111D01*
X416957Y518129D01*
X416859Y518142D01*
X416759Y518152D01*
X416660Y518158D01*
X416560Y518160D01*
X368300Y515620D02*
X368300Y500380D01*
X370840Y518160D02*
X374650Y518160D01*
X375920Y516890D01*
X374650Y497840D02*
X370840Y497840D01*
X374650Y497840D02*
X375920Y499110D01*
X411480Y516890D02*
X412750Y518160D01*
X411480Y516890D02*
X375920Y516890D01*
X411480Y499110D02*
X412750Y497840D01*
X411480Y499110D02*
X375920Y499110D01*
X412750Y518160D02*
X416560Y518160D01*
X416560Y497840D02*
X412750Y497840D01*
X419100Y500380D02*
X419100Y515620D01*
D14*
X421005Y508000D03*
X366395Y508000D03*
D10*
X368935Y521589D02*
X368935Y530225D01*
X371334Y530225D01*
X371431Y530223D01*
X371527Y530217D01*
X371623Y530208D01*
X371719Y530194D01*
X371814Y530177D01*
X371908Y530155D01*
X372001Y530130D01*
X372094Y530102D01*
X372185Y530069D01*
X372274Y530033D01*
X372362Y529993D01*
X372449Y529950D01*
X372534Y529904D01*
X372616Y529854D01*
X372697Y529800D01*
X372775Y529744D01*
X372851Y529684D01*
X372925Y529622D01*
X372996Y529556D01*
X373064Y529488D01*
X373130Y529417D01*
X373192Y529343D01*
X373252Y529267D01*
X373308Y529189D01*
X373362Y529108D01*
X373412Y529026D01*
X373458Y528941D01*
X373501Y528854D01*
X373541Y528766D01*
X373577Y528677D01*
X373610Y528586D01*
X373638Y528493D01*
X373663Y528400D01*
X373685Y528306D01*
X373702Y528211D01*
X373716Y528115D01*
X373725Y528019D01*
X373731Y527923D01*
X373733Y527826D01*
X373731Y527729D01*
X373725Y527633D01*
X373716Y527537D01*
X373702Y527441D01*
X373685Y527346D01*
X373663Y527252D01*
X373638Y527159D01*
X373610Y527066D01*
X373577Y526975D01*
X373541Y526886D01*
X373501Y526798D01*
X373458Y526711D01*
X373412Y526627D01*
X373362Y526544D01*
X373308Y526463D01*
X373252Y526385D01*
X373192Y526309D01*
X373130Y526235D01*
X373064Y526164D01*
X372996Y526096D01*
X372925Y526030D01*
X372851Y525968D01*
X372775Y525908D01*
X372697Y525852D01*
X372616Y525798D01*
X372534Y525748D01*
X372449Y525702D01*
X372362Y525659D01*
X372274Y525619D01*
X372185Y525583D01*
X372094Y525550D01*
X372001Y525522D01*
X371908Y525497D01*
X371814Y525475D01*
X371719Y525458D01*
X371623Y525444D01*
X371527Y525435D01*
X371431Y525429D01*
X371334Y525427D01*
X368935Y525427D01*
X371814Y525427D02*
X373733Y521589D01*
X377776Y528306D02*
X380175Y530225D01*
X380175Y521589D01*
X382573Y521589D02*
X377776Y521589D01*
X380478Y512445D02*
X378079Y510526D01*
X380478Y512445D02*
X380478Y503809D01*
X378079Y503809D02*
X382877Y503809D01*
X386994Y508127D02*
X386996Y508297D01*
X387002Y508467D01*
X387012Y508636D01*
X387026Y508806D01*
X387045Y508975D01*
X387067Y509143D01*
X387093Y509311D01*
X387123Y509478D01*
X387158Y509644D01*
X387196Y509810D01*
X387238Y509975D01*
X387284Y510138D01*
X387334Y510301D01*
X387388Y510462D01*
X387445Y510622D01*
X387507Y510780D01*
X387572Y510937D01*
X387641Y511092D01*
X387714Y511246D01*
X387742Y511322D01*
X387774Y511397D01*
X387809Y511471D01*
X387847Y511543D01*
X387889Y511613D01*
X387934Y511681D01*
X387982Y511747D01*
X388033Y511811D01*
X388087Y511872D01*
X388143Y511931D01*
X388203Y511987D01*
X388264Y512040D01*
X388328Y512090D01*
X388395Y512138D01*
X388463Y512182D01*
X388534Y512223D01*
X388606Y512261D01*
X388680Y512295D01*
X388755Y512326D01*
X388832Y512354D01*
X388910Y512378D01*
X388989Y512398D01*
X389069Y512415D01*
X389149Y512428D01*
X389230Y512438D01*
X389311Y512443D01*
X389393Y512445D01*
X389475Y512443D01*
X389556Y512438D01*
X389637Y512428D01*
X389717Y512415D01*
X389797Y512398D01*
X389876Y512378D01*
X389954Y512354D01*
X390031Y512326D01*
X390106Y512295D01*
X390180Y512261D01*
X390252Y512223D01*
X390323Y512182D01*
X390391Y512138D01*
X390458Y512090D01*
X390522Y512040D01*
X390583Y511987D01*
X390643Y511931D01*
X390699Y511872D01*
X390753Y511811D01*
X390804Y511747D01*
X390852Y511681D01*
X390897Y511613D01*
X390939Y511543D01*
X390977Y511471D01*
X391012Y511397D01*
X391044Y511322D01*
X391072Y511246D01*
X391073Y511246D02*
X391146Y511092D01*
X391215Y510937D01*
X391280Y510780D01*
X391342Y510622D01*
X391399Y510462D01*
X391453Y510301D01*
X391503Y510138D01*
X391549Y509975D01*
X391591Y509810D01*
X391629Y509644D01*
X391664Y509478D01*
X391694Y509311D01*
X391720Y509143D01*
X391742Y508975D01*
X391761Y508806D01*
X391775Y508636D01*
X391785Y508467D01*
X391791Y508297D01*
X391793Y508127D01*
X386994Y508127D02*
X386996Y507957D01*
X387002Y507787D01*
X387012Y507618D01*
X387026Y507448D01*
X387045Y507279D01*
X387067Y507111D01*
X387093Y506943D01*
X387123Y506776D01*
X387158Y506610D01*
X387196Y506444D01*
X387238Y506279D01*
X387284Y506116D01*
X387334Y505954D01*
X387388Y505792D01*
X387445Y505633D01*
X387507Y505474D01*
X387572Y505317D01*
X387641Y505162D01*
X387714Y505008D01*
X387742Y504932D01*
X387774Y504857D01*
X387809Y504783D01*
X387847Y504711D01*
X387889Y504641D01*
X387934Y504573D01*
X387982Y504507D01*
X388033Y504443D01*
X388087Y504382D01*
X388143Y504323D01*
X388203Y504267D01*
X388264Y504214D01*
X388328Y504164D01*
X388395Y504116D01*
X388463Y504072D01*
X388534Y504031D01*
X388606Y503993D01*
X388680Y503959D01*
X388755Y503928D01*
X388832Y503900D01*
X388910Y503876D01*
X388989Y503856D01*
X389069Y503839D01*
X389149Y503826D01*
X389230Y503816D01*
X389311Y503811D01*
X389393Y503809D01*
X391072Y505008D02*
X391145Y505162D01*
X391214Y505317D01*
X391279Y505474D01*
X391341Y505633D01*
X391398Y505792D01*
X391452Y505954D01*
X391502Y506116D01*
X391548Y506279D01*
X391590Y506444D01*
X391628Y506610D01*
X391663Y506776D01*
X391693Y506943D01*
X391719Y507111D01*
X391741Y507279D01*
X391760Y507448D01*
X391774Y507618D01*
X391784Y507787D01*
X391790Y507957D01*
X391792Y508127D01*
X391072Y505008D02*
X391044Y504932D01*
X391012Y504857D01*
X390977Y504783D01*
X390939Y504711D01*
X390897Y504641D01*
X390852Y504573D01*
X390804Y504507D01*
X390753Y504443D01*
X390699Y504382D01*
X390643Y504323D01*
X390583Y504267D01*
X390522Y504214D01*
X390458Y504164D01*
X390391Y504116D01*
X390323Y504072D01*
X390252Y504031D01*
X390180Y503993D01*
X390106Y503959D01*
X390031Y503928D01*
X389954Y503900D01*
X389876Y503876D01*
X389797Y503856D01*
X389717Y503839D01*
X389637Y503826D01*
X389556Y503816D01*
X389475Y503811D01*
X389393Y503809D01*
X387474Y505728D02*
X391312Y510526D01*
X396230Y512445D02*
X396230Y503809D01*
X396230Y506688D02*
X400068Y509566D01*
X397909Y507887D02*
X400068Y503809D01*
D12*
X419100Y474980D02*
X419098Y474880D01*
X419092Y474781D01*
X419082Y474681D01*
X419069Y474583D01*
X419051Y474484D01*
X419030Y474387D01*
X419005Y474291D01*
X418976Y474195D01*
X418943Y474101D01*
X418907Y474008D01*
X418867Y473917D01*
X418823Y473827D01*
X418776Y473739D01*
X418726Y473653D01*
X418672Y473569D01*
X418615Y473487D01*
X418555Y473408D01*
X418491Y473330D01*
X418425Y473256D01*
X418356Y473184D01*
X418284Y473115D01*
X418210Y473049D01*
X418132Y472985D01*
X418053Y472925D01*
X417971Y472868D01*
X417887Y472814D01*
X417801Y472764D01*
X417713Y472717D01*
X417623Y472673D01*
X417532Y472633D01*
X417439Y472597D01*
X417345Y472564D01*
X417249Y472535D01*
X417153Y472510D01*
X417056Y472489D01*
X416957Y472471D01*
X416859Y472458D01*
X416759Y472448D01*
X416660Y472442D01*
X416560Y472440D01*
X419100Y490220D02*
X419098Y490320D01*
X419092Y490419D01*
X419082Y490519D01*
X419069Y490617D01*
X419051Y490716D01*
X419030Y490813D01*
X419005Y490909D01*
X418976Y491005D01*
X418943Y491099D01*
X418907Y491192D01*
X418867Y491283D01*
X418823Y491373D01*
X418776Y491461D01*
X418726Y491547D01*
X418672Y491631D01*
X418615Y491713D01*
X418555Y491792D01*
X418491Y491870D01*
X418425Y491944D01*
X418356Y492016D01*
X418284Y492085D01*
X418210Y492151D01*
X418132Y492215D01*
X418053Y492275D01*
X417971Y492332D01*
X417887Y492386D01*
X417801Y492436D01*
X417713Y492483D01*
X417623Y492527D01*
X417532Y492567D01*
X417439Y492603D01*
X417345Y492636D01*
X417249Y492665D01*
X417153Y492690D01*
X417056Y492711D01*
X416957Y492729D01*
X416859Y492742D01*
X416759Y492752D01*
X416660Y492758D01*
X416560Y492760D01*
X370840Y492760D02*
X370740Y492758D01*
X370641Y492752D01*
X370541Y492742D01*
X370443Y492729D01*
X370344Y492711D01*
X370247Y492690D01*
X370151Y492665D01*
X370055Y492636D01*
X369961Y492603D01*
X369868Y492567D01*
X369777Y492527D01*
X369687Y492483D01*
X369599Y492436D01*
X369513Y492386D01*
X369429Y492332D01*
X369347Y492275D01*
X369268Y492215D01*
X369190Y492151D01*
X369116Y492085D01*
X369044Y492016D01*
X368975Y491944D01*
X368909Y491870D01*
X368845Y491792D01*
X368785Y491713D01*
X368728Y491631D01*
X368674Y491547D01*
X368624Y491461D01*
X368577Y491373D01*
X368533Y491283D01*
X368493Y491192D01*
X368457Y491099D01*
X368424Y491005D01*
X368395Y490909D01*
X368370Y490813D01*
X368349Y490716D01*
X368331Y490617D01*
X368318Y490519D01*
X368308Y490419D01*
X368302Y490320D01*
X368300Y490220D01*
X368300Y474980D02*
X368302Y474880D01*
X368308Y474781D01*
X368318Y474681D01*
X368331Y474583D01*
X368349Y474484D01*
X368370Y474387D01*
X368395Y474291D01*
X368424Y474195D01*
X368457Y474101D01*
X368493Y474008D01*
X368533Y473917D01*
X368577Y473827D01*
X368624Y473739D01*
X368674Y473653D01*
X368728Y473569D01*
X368785Y473487D01*
X368845Y473408D01*
X368909Y473330D01*
X368975Y473256D01*
X369044Y473184D01*
X369116Y473115D01*
X369190Y473049D01*
X369268Y472985D01*
X369347Y472925D01*
X369429Y472868D01*
X369513Y472814D01*
X369599Y472764D01*
X369687Y472717D01*
X369777Y472673D01*
X369868Y472633D01*
X369961Y472597D01*
X370055Y472564D01*
X370151Y472535D01*
X370247Y472510D01*
X370344Y472489D01*
X370443Y472471D01*
X370541Y472458D01*
X370641Y472448D01*
X370740Y472442D01*
X370840Y472440D01*
X419100Y474980D02*
X419100Y490220D01*
X416560Y472440D02*
X412750Y472440D01*
X411480Y473710D01*
X412750Y492760D02*
X416560Y492760D01*
X412750Y492760D02*
X411480Y491490D01*
X375920Y473710D02*
X374650Y472440D01*
X375920Y473710D02*
X411480Y473710D01*
X375920Y491490D02*
X374650Y492760D01*
X375920Y491490D02*
X411480Y491490D01*
X374650Y472440D02*
X370840Y472440D01*
X370840Y492760D02*
X374650Y492760D01*
X368300Y490220D02*
X368300Y474980D01*
D14*
X366395Y482600D03*
X421005Y482600D03*
D10*
X404827Y469011D02*
X404827Y460375D01*
X404827Y469011D02*
X407226Y469011D01*
X407323Y469009D01*
X407419Y469003D01*
X407515Y468994D01*
X407611Y468980D01*
X407706Y468963D01*
X407800Y468941D01*
X407893Y468916D01*
X407986Y468888D01*
X408077Y468855D01*
X408166Y468819D01*
X408254Y468779D01*
X408341Y468736D01*
X408426Y468690D01*
X408508Y468640D01*
X408589Y468586D01*
X408667Y468530D01*
X408743Y468470D01*
X408817Y468408D01*
X408888Y468342D01*
X408956Y468274D01*
X409022Y468203D01*
X409084Y468129D01*
X409144Y468053D01*
X409200Y467975D01*
X409254Y467894D01*
X409304Y467812D01*
X409350Y467727D01*
X409393Y467640D01*
X409433Y467552D01*
X409469Y467463D01*
X409502Y467372D01*
X409530Y467279D01*
X409555Y467186D01*
X409577Y467092D01*
X409594Y466997D01*
X409608Y466901D01*
X409617Y466805D01*
X409623Y466709D01*
X409625Y466612D01*
X409623Y466515D01*
X409617Y466419D01*
X409608Y466323D01*
X409594Y466227D01*
X409577Y466132D01*
X409555Y466038D01*
X409530Y465945D01*
X409502Y465852D01*
X409469Y465761D01*
X409433Y465672D01*
X409393Y465584D01*
X409350Y465497D01*
X409304Y465413D01*
X409254Y465330D01*
X409200Y465249D01*
X409144Y465171D01*
X409084Y465095D01*
X409022Y465021D01*
X408956Y464950D01*
X408888Y464882D01*
X408817Y464816D01*
X408743Y464754D01*
X408667Y464694D01*
X408589Y464638D01*
X408508Y464584D01*
X408426Y464534D01*
X408341Y464488D01*
X408254Y464445D01*
X408166Y464405D01*
X408077Y464369D01*
X407986Y464336D01*
X407893Y464308D01*
X407800Y464283D01*
X407706Y464261D01*
X407611Y464244D01*
X407515Y464230D01*
X407419Y464221D01*
X407323Y464215D01*
X407226Y464213D01*
X404827Y464213D01*
X407705Y464213D02*
X409624Y460375D01*
X416306Y469011D02*
X416398Y469009D01*
X416489Y469003D01*
X416580Y468994D01*
X416671Y468980D01*
X416761Y468963D01*
X416850Y468941D01*
X416938Y468916D01*
X417025Y468888D01*
X417111Y468855D01*
X417195Y468819D01*
X417278Y468780D01*
X417359Y468737D01*
X417438Y468690D01*
X417515Y468641D01*
X417590Y468588D01*
X417662Y468532D01*
X417732Y468473D01*
X417800Y468411D01*
X417865Y468346D01*
X417927Y468278D01*
X417986Y468208D01*
X418042Y468136D01*
X418095Y468061D01*
X418144Y467984D01*
X418191Y467905D01*
X418234Y467824D01*
X418273Y467741D01*
X418309Y467657D01*
X418342Y467571D01*
X418370Y467484D01*
X418395Y467396D01*
X418417Y467307D01*
X418434Y467217D01*
X418448Y467126D01*
X418457Y467035D01*
X418463Y466944D01*
X418465Y466852D01*
X416306Y469011D02*
X416203Y469009D01*
X416101Y469003D01*
X415999Y468994D01*
X415897Y468981D01*
X415796Y468964D01*
X415695Y468943D01*
X415596Y468919D01*
X415497Y468890D01*
X415400Y468859D01*
X415303Y468823D01*
X415208Y468785D01*
X415115Y468742D01*
X415023Y468696D01*
X414933Y468647D01*
X414845Y468595D01*
X414758Y468539D01*
X414674Y468480D01*
X414593Y468419D01*
X414513Y468354D01*
X414436Y468286D01*
X414361Y468215D01*
X414290Y468142D01*
X414221Y468066D01*
X414154Y467988D01*
X414091Y467907D01*
X414031Y467824D01*
X413974Y467739D01*
X413920Y467652D01*
X413869Y467562D01*
X413822Y467471D01*
X413778Y467379D01*
X413737Y467284D01*
X413700Y467189D01*
X413667Y467092D01*
X417745Y465173D02*
X417812Y465239D01*
X417876Y465308D01*
X417937Y465379D01*
X417995Y465453D01*
X418050Y465529D01*
X418102Y465607D01*
X418151Y465687D01*
X418197Y465769D01*
X418239Y465853D01*
X418278Y465939D01*
X418313Y466026D01*
X418344Y466114D01*
X418372Y466204D01*
X418397Y466294D01*
X418418Y466386D01*
X418435Y466478D01*
X418448Y466571D01*
X418457Y466664D01*
X418463Y466758D01*
X418465Y466852D01*
X417745Y465173D02*
X413667Y460375D01*
X418465Y460375D01*
X389731Y486791D02*
X387332Y484872D01*
X389731Y486791D02*
X389731Y478155D01*
X387332Y478155D02*
X392130Y478155D01*
X396247Y482473D02*
X396249Y482643D01*
X396255Y482813D01*
X396265Y482982D01*
X396279Y483152D01*
X396298Y483321D01*
X396320Y483489D01*
X396346Y483657D01*
X396376Y483824D01*
X396411Y483990D01*
X396449Y484156D01*
X396491Y484321D01*
X396537Y484484D01*
X396587Y484647D01*
X396641Y484808D01*
X396698Y484968D01*
X396760Y485126D01*
X396825Y485283D01*
X396894Y485438D01*
X396967Y485592D01*
X396995Y485668D01*
X397027Y485743D01*
X397062Y485817D01*
X397100Y485889D01*
X397142Y485959D01*
X397187Y486027D01*
X397235Y486093D01*
X397286Y486157D01*
X397340Y486218D01*
X397396Y486277D01*
X397456Y486333D01*
X397517Y486386D01*
X397581Y486436D01*
X397648Y486484D01*
X397716Y486528D01*
X397787Y486569D01*
X397859Y486607D01*
X397933Y486641D01*
X398008Y486672D01*
X398085Y486700D01*
X398163Y486724D01*
X398242Y486744D01*
X398322Y486761D01*
X398402Y486774D01*
X398483Y486784D01*
X398564Y486789D01*
X398646Y486791D01*
X398728Y486789D01*
X398809Y486784D01*
X398890Y486774D01*
X398970Y486761D01*
X399050Y486744D01*
X399129Y486724D01*
X399207Y486700D01*
X399284Y486672D01*
X399359Y486641D01*
X399433Y486607D01*
X399505Y486569D01*
X399576Y486528D01*
X399644Y486484D01*
X399711Y486436D01*
X399775Y486386D01*
X399836Y486333D01*
X399896Y486277D01*
X399952Y486218D01*
X400006Y486157D01*
X400057Y486093D01*
X400105Y486027D01*
X400150Y485959D01*
X400192Y485889D01*
X400230Y485817D01*
X400265Y485743D01*
X400297Y485668D01*
X400325Y485592D01*
X400398Y485438D01*
X400467Y485283D01*
X400532Y485126D01*
X400594Y484968D01*
X400651Y484808D01*
X400705Y484647D01*
X400755Y484484D01*
X400801Y484321D01*
X400843Y484156D01*
X400881Y483990D01*
X400916Y483824D01*
X400946Y483657D01*
X400972Y483489D01*
X400994Y483321D01*
X401013Y483152D01*
X401027Y482982D01*
X401037Y482813D01*
X401043Y482643D01*
X401045Y482473D01*
X396247Y482473D02*
X396249Y482303D01*
X396255Y482133D01*
X396265Y481964D01*
X396279Y481794D01*
X396298Y481625D01*
X396320Y481457D01*
X396346Y481289D01*
X396376Y481122D01*
X396411Y480956D01*
X396449Y480790D01*
X396491Y480625D01*
X396537Y480462D01*
X396587Y480300D01*
X396641Y480138D01*
X396698Y479979D01*
X396760Y479820D01*
X396825Y479663D01*
X396894Y479508D01*
X396967Y479354D01*
X396995Y479278D01*
X397027Y479203D01*
X397062Y479129D01*
X397100Y479057D01*
X397142Y478987D01*
X397187Y478919D01*
X397235Y478853D01*
X397286Y478789D01*
X397340Y478728D01*
X397396Y478669D01*
X397456Y478613D01*
X397517Y478560D01*
X397581Y478510D01*
X397648Y478462D01*
X397716Y478418D01*
X397787Y478377D01*
X397859Y478339D01*
X397933Y478305D01*
X398008Y478274D01*
X398085Y478246D01*
X398163Y478222D01*
X398242Y478202D01*
X398322Y478185D01*
X398402Y478172D01*
X398483Y478162D01*
X398564Y478157D01*
X398646Y478155D01*
X400325Y479354D02*
X400398Y479508D01*
X400467Y479663D01*
X400532Y479820D01*
X400594Y479979D01*
X400651Y480138D01*
X400705Y480300D01*
X400755Y480462D01*
X400801Y480625D01*
X400843Y480790D01*
X400881Y480956D01*
X400916Y481122D01*
X400946Y481289D01*
X400972Y481457D01*
X400994Y481625D01*
X401013Y481794D01*
X401027Y481964D01*
X401037Y482133D01*
X401043Y482303D01*
X401045Y482473D01*
X400325Y479354D02*
X400297Y479278D01*
X400265Y479203D01*
X400230Y479129D01*
X400192Y479057D01*
X400150Y478987D01*
X400105Y478919D01*
X400057Y478853D01*
X400006Y478789D01*
X399952Y478728D01*
X399896Y478669D01*
X399836Y478613D01*
X399775Y478560D01*
X399711Y478510D01*
X399644Y478462D01*
X399576Y478418D01*
X399505Y478377D01*
X399433Y478339D01*
X399359Y478305D01*
X399284Y478274D01*
X399207Y478246D01*
X399129Y478222D01*
X399050Y478202D01*
X398970Y478185D01*
X398890Y478172D01*
X398809Y478162D01*
X398728Y478157D01*
X398646Y478155D01*
X396727Y480074D02*
X400565Y484872D01*
X405483Y486791D02*
X405483Y478155D01*
X405483Y481034D02*
X409321Y483912D01*
X407162Y482233D02*
X409321Y478155D01*
D12*
X419100Y449580D02*
X419098Y449480D01*
X419092Y449381D01*
X419082Y449281D01*
X419069Y449183D01*
X419051Y449084D01*
X419030Y448987D01*
X419005Y448891D01*
X418976Y448795D01*
X418943Y448701D01*
X418907Y448608D01*
X418867Y448517D01*
X418823Y448427D01*
X418776Y448339D01*
X418726Y448253D01*
X418672Y448169D01*
X418615Y448087D01*
X418555Y448008D01*
X418491Y447930D01*
X418425Y447856D01*
X418356Y447784D01*
X418284Y447715D01*
X418210Y447649D01*
X418132Y447585D01*
X418053Y447525D01*
X417971Y447468D01*
X417887Y447414D01*
X417801Y447364D01*
X417713Y447317D01*
X417623Y447273D01*
X417532Y447233D01*
X417439Y447197D01*
X417345Y447164D01*
X417249Y447135D01*
X417153Y447110D01*
X417056Y447089D01*
X416957Y447071D01*
X416859Y447058D01*
X416759Y447048D01*
X416660Y447042D01*
X416560Y447040D01*
X419100Y464820D02*
X419098Y464920D01*
X419092Y465019D01*
X419082Y465119D01*
X419069Y465217D01*
X419051Y465316D01*
X419030Y465413D01*
X419005Y465509D01*
X418976Y465605D01*
X418943Y465699D01*
X418907Y465792D01*
X418867Y465883D01*
X418823Y465973D01*
X418776Y466061D01*
X418726Y466147D01*
X418672Y466231D01*
X418615Y466313D01*
X418555Y466392D01*
X418491Y466470D01*
X418425Y466544D01*
X418356Y466616D01*
X418284Y466685D01*
X418210Y466751D01*
X418132Y466815D01*
X418053Y466875D01*
X417971Y466932D01*
X417887Y466986D01*
X417801Y467036D01*
X417713Y467083D01*
X417623Y467127D01*
X417532Y467167D01*
X417439Y467203D01*
X417345Y467236D01*
X417249Y467265D01*
X417153Y467290D01*
X417056Y467311D01*
X416957Y467329D01*
X416859Y467342D01*
X416759Y467352D01*
X416660Y467358D01*
X416560Y467360D01*
X370840Y467360D02*
X370740Y467358D01*
X370641Y467352D01*
X370541Y467342D01*
X370443Y467329D01*
X370344Y467311D01*
X370247Y467290D01*
X370151Y467265D01*
X370055Y467236D01*
X369961Y467203D01*
X369868Y467167D01*
X369777Y467127D01*
X369687Y467083D01*
X369599Y467036D01*
X369513Y466986D01*
X369429Y466932D01*
X369347Y466875D01*
X369268Y466815D01*
X369190Y466751D01*
X369116Y466685D01*
X369044Y466616D01*
X368975Y466544D01*
X368909Y466470D01*
X368845Y466392D01*
X368785Y466313D01*
X368728Y466231D01*
X368674Y466147D01*
X368624Y466061D01*
X368577Y465973D01*
X368533Y465883D01*
X368493Y465792D01*
X368457Y465699D01*
X368424Y465605D01*
X368395Y465509D01*
X368370Y465413D01*
X368349Y465316D01*
X368331Y465217D01*
X368318Y465119D01*
X368308Y465019D01*
X368302Y464920D01*
X368300Y464820D01*
X368300Y449580D02*
X368302Y449480D01*
X368308Y449381D01*
X368318Y449281D01*
X368331Y449183D01*
X368349Y449084D01*
X368370Y448987D01*
X368395Y448891D01*
X368424Y448795D01*
X368457Y448701D01*
X368493Y448608D01*
X368533Y448517D01*
X368577Y448427D01*
X368624Y448339D01*
X368674Y448253D01*
X368728Y448169D01*
X368785Y448087D01*
X368845Y448008D01*
X368909Y447930D01*
X368975Y447856D01*
X369044Y447784D01*
X369116Y447715D01*
X369190Y447649D01*
X369268Y447585D01*
X369347Y447525D01*
X369429Y447468D01*
X369513Y447414D01*
X369599Y447364D01*
X369687Y447317D01*
X369777Y447273D01*
X369868Y447233D01*
X369961Y447197D01*
X370055Y447164D01*
X370151Y447135D01*
X370247Y447110D01*
X370344Y447089D01*
X370443Y447071D01*
X370541Y447058D01*
X370641Y447048D01*
X370740Y447042D01*
X370840Y447040D01*
X419100Y449580D02*
X419100Y464820D01*
X416560Y447040D02*
X412750Y447040D01*
X411480Y448310D01*
X412750Y467360D02*
X416560Y467360D01*
X412750Y467360D02*
X411480Y466090D01*
X375920Y448310D02*
X374650Y447040D01*
X375920Y448310D02*
X411480Y448310D01*
X375920Y466090D02*
X374650Y467360D01*
X375920Y466090D02*
X411480Y466090D01*
X374650Y447040D02*
X370840Y447040D01*
X370840Y467360D02*
X374650Y467360D01*
X368300Y464820D02*
X368300Y449580D01*
D14*
X366395Y457200D03*
X421005Y457200D03*
D10*
X404827Y443611D02*
X404827Y434975D01*
X404827Y443611D02*
X407226Y443611D01*
X407323Y443609D01*
X407419Y443603D01*
X407515Y443594D01*
X407611Y443580D01*
X407706Y443563D01*
X407800Y443541D01*
X407893Y443516D01*
X407986Y443488D01*
X408077Y443455D01*
X408166Y443419D01*
X408254Y443379D01*
X408341Y443336D01*
X408426Y443290D01*
X408508Y443240D01*
X408589Y443186D01*
X408667Y443130D01*
X408743Y443070D01*
X408817Y443008D01*
X408888Y442942D01*
X408956Y442874D01*
X409022Y442803D01*
X409084Y442729D01*
X409144Y442653D01*
X409200Y442575D01*
X409254Y442494D01*
X409304Y442412D01*
X409350Y442327D01*
X409393Y442240D01*
X409433Y442152D01*
X409469Y442063D01*
X409502Y441972D01*
X409530Y441879D01*
X409555Y441786D01*
X409577Y441692D01*
X409594Y441597D01*
X409608Y441501D01*
X409617Y441405D01*
X409623Y441309D01*
X409625Y441212D01*
X409623Y441115D01*
X409617Y441019D01*
X409608Y440923D01*
X409594Y440827D01*
X409577Y440732D01*
X409555Y440638D01*
X409530Y440545D01*
X409502Y440452D01*
X409469Y440361D01*
X409433Y440272D01*
X409393Y440184D01*
X409350Y440097D01*
X409304Y440013D01*
X409254Y439930D01*
X409200Y439849D01*
X409144Y439771D01*
X409084Y439695D01*
X409022Y439621D01*
X408956Y439550D01*
X408888Y439482D01*
X408817Y439416D01*
X408743Y439354D01*
X408667Y439294D01*
X408589Y439238D01*
X408508Y439184D01*
X408426Y439134D01*
X408341Y439088D01*
X408254Y439045D01*
X408166Y439005D01*
X408077Y438969D01*
X407986Y438936D01*
X407893Y438908D01*
X407800Y438883D01*
X407706Y438861D01*
X407611Y438844D01*
X407515Y438830D01*
X407419Y438821D01*
X407323Y438815D01*
X407226Y438813D01*
X404827Y438813D01*
X407705Y438813D02*
X409624Y434975D01*
X413667Y434975D02*
X416066Y434975D01*
X416163Y434977D01*
X416259Y434983D01*
X416355Y434992D01*
X416451Y435006D01*
X416546Y435023D01*
X416640Y435045D01*
X416733Y435070D01*
X416826Y435098D01*
X416917Y435131D01*
X417006Y435167D01*
X417094Y435207D01*
X417181Y435250D01*
X417266Y435296D01*
X417348Y435346D01*
X417429Y435400D01*
X417507Y435456D01*
X417583Y435516D01*
X417657Y435578D01*
X417728Y435644D01*
X417796Y435712D01*
X417862Y435783D01*
X417924Y435857D01*
X417984Y435933D01*
X418040Y436011D01*
X418094Y436092D01*
X418144Y436175D01*
X418190Y436259D01*
X418233Y436346D01*
X418273Y436434D01*
X418309Y436523D01*
X418342Y436614D01*
X418370Y436707D01*
X418395Y436800D01*
X418417Y436894D01*
X418434Y436989D01*
X418448Y437085D01*
X418457Y437181D01*
X418463Y437277D01*
X418465Y437374D01*
X418463Y437471D01*
X418457Y437567D01*
X418448Y437663D01*
X418434Y437759D01*
X418417Y437854D01*
X418395Y437948D01*
X418370Y438041D01*
X418342Y438134D01*
X418309Y438225D01*
X418273Y438314D01*
X418233Y438402D01*
X418190Y438489D01*
X418144Y438574D01*
X418094Y438656D01*
X418040Y438737D01*
X417984Y438815D01*
X417924Y438891D01*
X417862Y438965D01*
X417796Y439036D01*
X417728Y439104D01*
X417657Y439170D01*
X417583Y439232D01*
X417507Y439292D01*
X417429Y439348D01*
X417348Y439402D01*
X417266Y439452D01*
X417181Y439498D01*
X417094Y439541D01*
X417006Y439581D01*
X416917Y439617D01*
X416826Y439650D01*
X416733Y439678D01*
X416640Y439703D01*
X416546Y439725D01*
X416451Y439742D01*
X416355Y439756D01*
X416259Y439765D01*
X416163Y439771D01*
X416066Y439773D01*
X416546Y443611D02*
X413667Y443611D01*
X416546Y443611D02*
X416632Y443609D01*
X416718Y443603D01*
X416804Y443594D01*
X416889Y443580D01*
X416973Y443563D01*
X417057Y443542D01*
X417139Y443517D01*
X417220Y443489D01*
X417300Y443457D01*
X417379Y443421D01*
X417455Y443382D01*
X417530Y443339D01*
X417603Y443294D01*
X417674Y443245D01*
X417742Y443192D01*
X417809Y443137D01*
X417872Y443079D01*
X417933Y443018D01*
X417991Y442955D01*
X418046Y442888D01*
X418099Y442820D01*
X418148Y442749D01*
X418193Y442676D01*
X418236Y442601D01*
X418275Y442525D01*
X418311Y442446D01*
X418343Y442366D01*
X418371Y442285D01*
X418396Y442203D01*
X418417Y442119D01*
X418434Y442035D01*
X418448Y441950D01*
X418457Y441864D01*
X418463Y441778D01*
X418465Y441692D01*
X418463Y441606D01*
X418457Y441520D01*
X418448Y441434D01*
X418434Y441349D01*
X418417Y441265D01*
X418396Y441181D01*
X418371Y441099D01*
X418343Y441018D01*
X418311Y440938D01*
X418275Y440859D01*
X418236Y440783D01*
X418193Y440708D01*
X418148Y440635D01*
X418099Y440564D01*
X418046Y440496D01*
X417991Y440429D01*
X417933Y440366D01*
X417872Y440305D01*
X417809Y440247D01*
X417742Y440192D01*
X417674Y440139D01*
X417603Y440090D01*
X417530Y440045D01*
X417455Y440002D01*
X417379Y439963D01*
X417300Y439927D01*
X417220Y439895D01*
X417139Y439867D01*
X417057Y439842D01*
X416973Y439821D01*
X416889Y439804D01*
X416804Y439790D01*
X416718Y439781D01*
X416632Y439775D01*
X416546Y439773D01*
X414627Y439773D01*
X389091Y461391D02*
X386693Y459472D01*
X389091Y461391D02*
X389091Y452755D01*
X386693Y452755D02*
X391490Y452755D01*
X395607Y457073D02*
X395609Y457243D01*
X395615Y457413D01*
X395625Y457582D01*
X395639Y457752D01*
X395658Y457921D01*
X395680Y458089D01*
X395706Y458257D01*
X395736Y458424D01*
X395771Y458590D01*
X395809Y458756D01*
X395851Y458921D01*
X395897Y459084D01*
X395947Y459247D01*
X396001Y459408D01*
X396058Y459568D01*
X396120Y459726D01*
X396185Y459883D01*
X396254Y460038D01*
X396327Y460192D01*
X396328Y460192D02*
X396356Y460268D01*
X396388Y460343D01*
X396423Y460417D01*
X396461Y460489D01*
X396503Y460559D01*
X396548Y460627D01*
X396596Y460693D01*
X396647Y460757D01*
X396701Y460818D01*
X396757Y460877D01*
X396817Y460933D01*
X396878Y460986D01*
X396942Y461036D01*
X397009Y461084D01*
X397077Y461128D01*
X397148Y461169D01*
X397220Y461207D01*
X397294Y461241D01*
X397369Y461272D01*
X397446Y461300D01*
X397524Y461324D01*
X397603Y461344D01*
X397683Y461361D01*
X397763Y461374D01*
X397844Y461384D01*
X397925Y461389D01*
X398007Y461391D01*
X398089Y461389D01*
X398170Y461384D01*
X398251Y461374D01*
X398331Y461361D01*
X398411Y461344D01*
X398490Y461324D01*
X398568Y461300D01*
X398645Y461272D01*
X398720Y461241D01*
X398794Y461207D01*
X398866Y461169D01*
X398937Y461128D01*
X399005Y461084D01*
X399072Y461036D01*
X399136Y460986D01*
X399197Y460933D01*
X399257Y460877D01*
X399313Y460818D01*
X399367Y460757D01*
X399418Y460693D01*
X399466Y460627D01*
X399511Y460559D01*
X399553Y460489D01*
X399591Y460417D01*
X399626Y460343D01*
X399658Y460268D01*
X399686Y460192D01*
X399759Y460038D01*
X399828Y459883D01*
X399893Y459726D01*
X399955Y459568D01*
X400012Y459408D01*
X400066Y459247D01*
X400116Y459084D01*
X400162Y458921D01*
X400204Y458756D01*
X400242Y458590D01*
X400277Y458424D01*
X400307Y458257D01*
X400333Y458089D01*
X400355Y457921D01*
X400374Y457752D01*
X400388Y457582D01*
X400398Y457413D01*
X400404Y457243D01*
X400406Y457073D01*
X395608Y457073D02*
X395610Y456903D01*
X395616Y456733D01*
X395626Y456564D01*
X395640Y456394D01*
X395659Y456225D01*
X395681Y456057D01*
X395707Y455889D01*
X395737Y455722D01*
X395772Y455556D01*
X395810Y455390D01*
X395852Y455225D01*
X395898Y455062D01*
X395948Y454900D01*
X396002Y454738D01*
X396059Y454579D01*
X396121Y454420D01*
X396186Y454263D01*
X396255Y454108D01*
X396328Y453954D01*
X396356Y453878D01*
X396388Y453803D01*
X396423Y453729D01*
X396461Y453657D01*
X396503Y453587D01*
X396548Y453519D01*
X396596Y453453D01*
X396647Y453389D01*
X396701Y453328D01*
X396757Y453269D01*
X396817Y453213D01*
X396878Y453160D01*
X396942Y453110D01*
X397009Y453062D01*
X397077Y453018D01*
X397148Y452977D01*
X397220Y452939D01*
X397294Y452905D01*
X397369Y452874D01*
X397446Y452846D01*
X397524Y452822D01*
X397603Y452802D01*
X397683Y452785D01*
X397763Y452772D01*
X397844Y452762D01*
X397925Y452757D01*
X398007Y452755D01*
X399686Y453954D02*
X399759Y454108D01*
X399828Y454263D01*
X399893Y454420D01*
X399955Y454579D01*
X400012Y454738D01*
X400066Y454900D01*
X400116Y455062D01*
X400162Y455225D01*
X400204Y455390D01*
X400242Y455556D01*
X400277Y455722D01*
X400307Y455889D01*
X400333Y456057D01*
X400355Y456225D01*
X400374Y456394D01*
X400388Y456564D01*
X400398Y456733D01*
X400404Y456903D01*
X400406Y457073D01*
X399686Y453954D02*
X399658Y453878D01*
X399626Y453803D01*
X399591Y453729D01*
X399553Y453657D01*
X399511Y453587D01*
X399466Y453519D01*
X399418Y453453D01*
X399367Y453389D01*
X399313Y453328D01*
X399257Y453269D01*
X399197Y453213D01*
X399136Y453160D01*
X399072Y453110D01*
X399005Y453062D01*
X398937Y453018D01*
X398866Y452977D01*
X398794Y452939D01*
X398720Y452905D01*
X398645Y452874D01*
X398568Y452846D01*
X398490Y452822D01*
X398411Y452802D01*
X398331Y452785D01*
X398251Y452772D01*
X398170Y452762D01*
X398089Y452757D01*
X398007Y452755D01*
X396088Y454674D02*
X399926Y459472D01*
X404523Y457073D02*
X404525Y457243D01*
X404531Y457413D01*
X404541Y457582D01*
X404555Y457752D01*
X404574Y457921D01*
X404596Y458089D01*
X404622Y458257D01*
X404652Y458424D01*
X404687Y458590D01*
X404725Y458756D01*
X404767Y458921D01*
X404813Y459084D01*
X404863Y459247D01*
X404917Y459408D01*
X404974Y459568D01*
X405036Y459726D01*
X405101Y459883D01*
X405170Y460038D01*
X405243Y460192D01*
X405271Y460268D01*
X405303Y460343D01*
X405338Y460417D01*
X405376Y460489D01*
X405418Y460559D01*
X405463Y460627D01*
X405511Y460693D01*
X405562Y460757D01*
X405616Y460818D01*
X405672Y460877D01*
X405732Y460933D01*
X405793Y460986D01*
X405857Y461036D01*
X405924Y461084D01*
X405992Y461128D01*
X406063Y461169D01*
X406135Y461207D01*
X406209Y461241D01*
X406284Y461272D01*
X406361Y461300D01*
X406439Y461324D01*
X406518Y461344D01*
X406598Y461361D01*
X406678Y461374D01*
X406759Y461384D01*
X406840Y461389D01*
X406922Y461391D01*
X407004Y461389D01*
X407085Y461384D01*
X407166Y461374D01*
X407246Y461361D01*
X407326Y461344D01*
X407405Y461324D01*
X407483Y461300D01*
X407560Y461272D01*
X407635Y461241D01*
X407709Y461207D01*
X407781Y461169D01*
X407852Y461128D01*
X407920Y461084D01*
X407987Y461036D01*
X408051Y460986D01*
X408112Y460933D01*
X408172Y460877D01*
X408228Y460818D01*
X408282Y460757D01*
X408333Y460693D01*
X408381Y460627D01*
X408426Y460559D01*
X408468Y460489D01*
X408506Y460417D01*
X408541Y460343D01*
X408573Y460268D01*
X408601Y460192D01*
X408674Y460038D01*
X408743Y459883D01*
X408808Y459726D01*
X408870Y459568D01*
X408927Y459408D01*
X408981Y459247D01*
X409031Y459084D01*
X409077Y458921D01*
X409119Y458756D01*
X409157Y458590D01*
X409192Y458424D01*
X409222Y458257D01*
X409248Y458089D01*
X409270Y457921D01*
X409289Y457752D01*
X409303Y457582D01*
X409313Y457413D01*
X409319Y457243D01*
X409321Y457073D01*
X404523Y457073D02*
X404525Y456903D01*
X404531Y456733D01*
X404541Y456564D01*
X404555Y456394D01*
X404574Y456225D01*
X404596Y456057D01*
X404622Y455889D01*
X404652Y455722D01*
X404687Y455556D01*
X404725Y455390D01*
X404767Y455225D01*
X404813Y455062D01*
X404863Y454900D01*
X404917Y454738D01*
X404974Y454579D01*
X405036Y454420D01*
X405101Y454263D01*
X405170Y454108D01*
X405243Y453954D01*
X405271Y453878D01*
X405303Y453803D01*
X405338Y453729D01*
X405376Y453657D01*
X405418Y453587D01*
X405463Y453519D01*
X405511Y453453D01*
X405562Y453389D01*
X405616Y453328D01*
X405672Y453269D01*
X405732Y453213D01*
X405793Y453160D01*
X405857Y453110D01*
X405924Y453062D01*
X405992Y453018D01*
X406063Y452977D01*
X406135Y452939D01*
X406209Y452905D01*
X406284Y452874D01*
X406361Y452846D01*
X406439Y452822D01*
X406518Y452802D01*
X406598Y452785D01*
X406678Y452772D01*
X406759Y452762D01*
X406840Y452757D01*
X406922Y452755D01*
X408601Y453954D02*
X408674Y454108D01*
X408743Y454263D01*
X408808Y454420D01*
X408870Y454579D01*
X408927Y454738D01*
X408981Y454900D01*
X409031Y455062D01*
X409077Y455225D01*
X409119Y455390D01*
X409157Y455556D01*
X409192Y455722D01*
X409222Y455889D01*
X409248Y456057D01*
X409270Y456225D01*
X409289Y456394D01*
X409303Y456564D01*
X409313Y456733D01*
X409319Y456903D01*
X409321Y457073D01*
X408601Y453954D02*
X408573Y453878D01*
X408541Y453803D01*
X408506Y453729D01*
X408468Y453657D01*
X408426Y453587D01*
X408381Y453519D01*
X408333Y453453D01*
X408282Y453389D01*
X408228Y453328D01*
X408172Y453269D01*
X408112Y453213D01*
X408051Y453160D01*
X407987Y453110D01*
X407920Y453062D01*
X407852Y453018D01*
X407781Y452977D01*
X407709Y452939D01*
X407635Y452905D01*
X407560Y452874D01*
X407483Y452846D01*
X407405Y452822D01*
X407326Y452802D01*
X407246Y452785D01*
X407166Y452772D01*
X407085Y452762D01*
X407004Y452757D01*
X406922Y452755D01*
X405003Y454674D02*
X408841Y459472D01*
D12*
X370840Y353060D02*
X370740Y353058D01*
X370641Y353052D01*
X370541Y353042D01*
X370443Y353029D01*
X370344Y353011D01*
X370247Y352990D01*
X370151Y352965D01*
X370055Y352936D01*
X369961Y352903D01*
X369868Y352867D01*
X369777Y352827D01*
X369687Y352783D01*
X369599Y352736D01*
X369513Y352686D01*
X369429Y352632D01*
X369347Y352575D01*
X369268Y352515D01*
X369190Y352451D01*
X369116Y352385D01*
X369044Y352316D01*
X368975Y352244D01*
X368909Y352170D01*
X368845Y352092D01*
X368785Y352013D01*
X368728Y351931D01*
X368674Y351847D01*
X368624Y351761D01*
X368577Y351673D01*
X368533Y351583D01*
X368493Y351492D01*
X368457Y351399D01*
X368424Y351305D01*
X368395Y351209D01*
X368370Y351113D01*
X368349Y351016D01*
X368331Y350917D01*
X368318Y350819D01*
X368308Y350719D01*
X368302Y350620D01*
X368300Y350520D01*
X368300Y335280D02*
X368302Y335180D01*
X368308Y335081D01*
X368318Y334981D01*
X368331Y334883D01*
X368349Y334784D01*
X368370Y334687D01*
X368395Y334591D01*
X368424Y334495D01*
X368457Y334401D01*
X368493Y334308D01*
X368533Y334217D01*
X368577Y334127D01*
X368624Y334039D01*
X368674Y333953D01*
X368728Y333869D01*
X368785Y333787D01*
X368845Y333708D01*
X368909Y333630D01*
X368975Y333556D01*
X369044Y333484D01*
X369116Y333415D01*
X369190Y333349D01*
X369268Y333285D01*
X369347Y333225D01*
X369429Y333168D01*
X369513Y333114D01*
X369599Y333064D01*
X369687Y333017D01*
X369777Y332973D01*
X369868Y332933D01*
X369961Y332897D01*
X370055Y332864D01*
X370151Y332835D01*
X370247Y332810D01*
X370344Y332789D01*
X370443Y332771D01*
X370541Y332758D01*
X370641Y332748D01*
X370740Y332742D01*
X370840Y332740D01*
X416560Y332740D02*
X416660Y332742D01*
X416759Y332748D01*
X416859Y332758D01*
X416957Y332771D01*
X417056Y332789D01*
X417153Y332810D01*
X417249Y332835D01*
X417345Y332864D01*
X417439Y332897D01*
X417532Y332933D01*
X417623Y332973D01*
X417713Y333017D01*
X417801Y333064D01*
X417887Y333114D01*
X417971Y333168D01*
X418053Y333225D01*
X418132Y333285D01*
X418210Y333349D01*
X418284Y333415D01*
X418356Y333484D01*
X418425Y333556D01*
X418491Y333630D01*
X418555Y333708D01*
X418615Y333787D01*
X418672Y333869D01*
X418726Y333953D01*
X418776Y334039D01*
X418823Y334127D01*
X418867Y334217D01*
X418907Y334308D01*
X418943Y334401D01*
X418976Y334495D01*
X419005Y334591D01*
X419030Y334687D01*
X419051Y334784D01*
X419069Y334883D01*
X419082Y334981D01*
X419092Y335081D01*
X419098Y335180D01*
X419100Y335280D01*
X419100Y350520D02*
X419098Y350620D01*
X419092Y350719D01*
X419082Y350819D01*
X419069Y350917D01*
X419051Y351016D01*
X419030Y351113D01*
X419005Y351209D01*
X418976Y351305D01*
X418943Y351399D01*
X418907Y351492D01*
X418867Y351583D01*
X418823Y351673D01*
X418776Y351761D01*
X418726Y351847D01*
X418672Y351931D01*
X418615Y352013D01*
X418555Y352092D01*
X418491Y352170D01*
X418425Y352244D01*
X418356Y352316D01*
X418284Y352385D01*
X418210Y352451D01*
X418132Y352515D01*
X418053Y352575D01*
X417971Y352632D01*
X417887Y352686D01*
X417801Y352736D01*
X417713Y352783D01*
X417623Y352827D01*
X417532Y352867D01*
X417439Y352903D01*
X417345Y352936D01*
X417249Y352965D01*
X417153Y352990D01*
X417056Y353011D01*
X416957Y353029D01*
X416859Y353042D01*
X416759Y353052D01*
X416660Y353058D01*
X416560Y353060D01*
X368300Y350520D02*
X368300Y335280D01*
X370840Y353060D02*
X374650Y353060D01*
X375920Y351790D01*
X374650Y332740D02*
X370840Y332740D01*
X374650Y332740D02*
X375920Y334010D01*
X411480Y351790D02*
X412750Y353060D01*
X411480Y351790D02*
X375920Y351790D01*
X411480Y334010D02*
X412750Y332740D01*
X411480Y334010D02*
X375920Y334010D01*
X412750Y353060D02*
X416560Y353060D01*
X416560Y332740D02*
X412750Y332740D01*
X419100Y335280D02*
X419100Y350520D01*
D14*
X421005Y342900D03*
X366395Y342900D03*
D10*
X330835Y339725D02*
X330835Y331089D01*
X330835Y339725D02*
X333234Y339725D01*
X333331Y339723D01*
X333427Y339717D01*
X333523Y339708D01*
X333619Y339694D01*
X333714Y339677D01*
X333808Y339655D01*
X333901Y339630D01*
X333994Y339602D01*
X334085Y339569D01*
X334174Y339533D01*
X334262Y339493D01*
X334349Y339450D01*
X334434Y339404D01*
X334516Y339354D01*
X334597Y339300D01*
X334675Y339244D01*
X334751Y339184D01*
X334825Y339122D01*
X334896Y339056D01*
X334964Y338988D01*
X335030Y338917D01*
X335092Y338843D01*
X335152Y338767D01*
X335208Y338689D01*
X335262Y338608D01*
X335312Y338526D01*
X335358Y338441D01*
X335401Y338354D01*
X335441Y338266D01*
X335477Y338177D01*
X335510Y338086D01*
X335538Y337993D01*
X335563Y337900D01*
X335585Y337806D01*
X335602Y337711D01*
X335616Y337615D01*
X335625Y337519D01*
X335631Y337423D01*
X335633Y337326D01*
X335631Y337229D01*
X335625Y337133D01*
X335616Y337037D01*
X335602Y336941D01*
X335585Y336846D01*
X335563Y336752D01*
X335538Y336659D01*
X335510Y336566D01*
X335477Y336475D01*
X335441Y336386D01*
X335401Y336298D01*
X335358Y336211D01*
X335312Y336127D01*
X335262Y336044D01*
X335208Y335963D01*
X335152Y335885D01*
X335092Y335809D01*
X335030Y335735D01*
X334964Y335664D01*
X334896Y335596D01*
X334825Y335530D01*
X334751Y335468D01*
X334675Y335408D01*
X334597Y335352D01*
X334516Y335298D01*
X334434Y335248D01*
X334349Y335202D01*
X334262Y335159D01*
X334174Y335119D01*
X334085Y335083D01*
X333994Y335050D01*
X333901Y335022D01*
X333808Y334997D01*
X333714Y334975D01*
X333619Y334958D01*
X333523Y334944D01*
X333427Y334935D01*
X333331Y334929D01*
X333234Y334927D01*
X330835Y334927D01*
X333714Y334927D02*
X335633Y331089D01*
X339676Y333008D02*
X341595Y339725D01*
X339676Y333008D02*
X344473Y333008D01*
X343034Y334927D02*
X343034Y331089D01*
X378079Y345426D02*
X380478Y347345D01*
X380478Y338709D01*
X378079Y338709D02*
X382877Y338709D01*
X386994Y343027D02*
X386996Y343197D01*
X387002Y343367D01*
X387012Y343536D01*
X387026Y343706D01*
X387045Y343875D01*
X387067Y344043D01*
X387093Y344211D01*
X387123Y344378D01*
X387158Y344544D01*
X387196Y344710D01*
X387238Y344875D01*
X387284Y345038D01*
X387334Y345201D01*
X387388Y345362D01*
X387445Y345522D01*
X387507Y345680D01*
X387572Y345837D01*
X387641Y345992D01*
X387714Y346146D01*
X387742Y346222D01*
X387774Y346297D01*
X387809Y346371D01*
X387847Y346443D01*
X387889Y346513D01*
X387934Y346581D01*
X387982Y346647D01*
X388033Y346711D01*
X388087Y346772D01*
X388143Y346831D01*
X388203Y346887D01*
X388264Y346940D01*
X388328Y346990D01*
X388395Y347038D01*
X388463Y347082D01*
X388534Y347123D01*
X388606Y347161D01*
X388680Y347195D01*
X388755Y347226D01*
X388832Y347254D01*
X388910Y347278D01*
X388989Y347298D01*
X389069Y347315D01*
X389149Y347328D01*
X389230Y347338D01*
X389311Y347343D01*
X389393Y347345D01*
X389475Y347343D01*
X389556Y347338D01*
X389637Y347328D01*
X389717Y347315D01*
X389797Y347298D01*
X389876Y347278D01*
X389954Y347254D01*
X390031Y347226D01*
X390106Y347195D01*
X390180Y347161D01*
X390252Y347123D01*
X390323Y347082D01*
X390391Y347038D01*
X390458Y346990D01*
X390522Y346940D01*
X390583Y346887D01*
X390643Y346831D01*
X390699Y346772D01*
X390753Y346711D01*
X390804Y346647D01*
X390852Y346581D01*
X390897Y346513D01*
X390939Y346443D01*
X390977Y346371D01*
X391012Y346297D01*
X391044Y346222D01*
X391072Y346146D01*
X391073Y346146D02*
X391146Y345992D01*
X391215Y345837D01*
X391280Y345680D01*
X391342Y345522D01*
X391399Y345362D01*
X391453Y345201D01*
X391503Y345038D01*
X391549Y344875D01*
X391591Y344710D01*
X391629Y344544D01*
X391664Y344378D01*
X391694Y344211D01*
X391720Y344043D01*
X391742Y343875D01*
X391761Y343706D01*
X391775Y343536D01*
X391785Y343367D01*
X391791Y343197D01*
X391793Y343027D01*
X386994Y343027D02*
X386996Y342857D01*
X387002Y342687D01*
X387012Y342518D01*
X387026Y342348D01*
X387045Y342179D01*
X387067Y342011D01*
X387093Y341843D01*
X387123Y341676D01*
X387158Y341510D01*
X387196Y341344D01*
X387238Y341179D01*
X387284Y341016D01*
X387334Y340854D01*
X387388Y340692D01*
X387445Y340533D01*
X387507Y340374D01*
X387572Y340217D01*
X387641Y340062D01*
X387714Y339908D01*
X387742Y339832D01*
X387774Y339757D01*
X387809Y339683D01*
X387847Y339611D01*
X387889Y339541D01*
X387934Y339473D01*
X387982Y339407D01*
X388033Y339343D01*
X388087Y339282D01*
X388143Y339223D01*
X388203Y339167D01*
X388264Y339114D01*
X388328Y339064D01*
X388395Y339016D01*
X388463Y338972D01*
X388534Y338931D01*
X388606Y338893D01*
X388680Y338859D01*
X388755Y338828D01*
X388832Y338800D01*
X388910Y338776D01*
X388989Y338756D01*
X389069Y338739D01*
X389149Y338726D01*
X389230Y338716D01*
X389311Y338711D01*
X389393Y338709D01*
X391072Y339908D02*
X391145Y340062D01*
X391214Y340217D01*
X391279Y340374D01*
X391341Y340533D01*
X391398Y340692D01*
X391452Y340854D01*
X391502Y341016D01*
X391548Y341179D01*
X391590Y341344D01*
X391628Y341510D01*
X391663Y341676D01*
X391693Y341843D01*
X391719Y342011D01*
X391741Y342179D01*
X391760Y342348D01*
X391774Y342518D01*
X391784Y342687D01*
X391790Y342857D01*
X391792Y343027D01*
X391072Y339908D02*
X391044Y339832D01*
X391012Y339757D01*
X390977Y339683D01*
X390939Y339611D01*
X390897Y339541D01*
X390852Y339473D01*
X390804Y339407D01*
X390753Y339343D01*
X390699Y339282D01*
X390643Y339223D01*
X390583Y339167D01*
X390522Y339114D01*
X390458Y339064D01*
X390391Y339016D01*
X390323Y338972D01*
X390252Y338931D01*
X390180Y338893D01*
X390106Y338859D01*
X390031Y338828D01*
X389954Y338800D01*
X389876Y338776D01*
X389797Y338756D01*
X389717Y338739D01*
X389637Y338726D01*
X389556Y338716D01*
X389475Y338711D01*
X389393Y338709D01*
X387474Y340628D02*
X391312Y345426D01*
X396230Y347345D02*
X396230Y338709D01*
X396230Y341588D02*
X400068Y344466D01*
X397909Y342787D02*
X400068Y338709D01*
D12*
X419100Y309880D02*
X419098Y309780D01*
X419092Y309681D01*
X419082Y309581D01*
X419069Y309483D01*
X419051Y309384D01*
X419030Y309287D01*
X419005Y309191D01*
X418976Y309095D01*
X418943Y309001D01*
X418907Y308908D01*
X418867Y308817D01*
X418823Y308727D01*
X418776Y308639D01*
X418726Y308553D01*
X418672Y308469D01*
X418615Y308387D01*
X418555Y308308D01*
X418491Y308230D01*
X418425Y308156D01*
X418356Y308084D01*
X418284Y308015D01*
X418210Y307949D01*
X418132Y307885D01*
X418053Y307825D01*
X417971Y307768D01*
X417887Y307714D01*
X417801Y307664D01*
X417713Y307617D01*
X417623Y307573D01*
X417532Y307533D01*
X417439Y307497D01*
X417345Y307464D01*
X417249Y307435D01*
X417153Y307410D01*
X417056Y307389D01*
X416957Y307371D01*
X416859Y307358D01*
X416759Y307348D01*
X416660Y307342D01*
X416560Y307340D01*
X419100Y325120D02*
X419098Y325220D01*
X419092Y325319D01*
X419082Y325419D01*
X419069Y325517D01*
X419051Y325616D01*
X419030Y325713D01*
X419005Y325809D01*
X418976Y325905D01*
X418943Y325999D01*
X418907Y326092D01*
X418867Y326183D01*
X418823Y326273D01*
X418776Y326361D01*
X418726Y326447D01*
X418672Y326531D01*
X418615Y326613D01*
X418555Y326692D01*
X418491Y326770D01*
X418425Y326844D01*
X418356Y326916D01*
X418284Y326985D01*
X418210Y327051D01*
X418132Y327115D01*
X418053Y327175D01*
X417971Y327232D01*
X417887Y327286D01*
X417801Y327336D01*
X417713Y327383D01*
X417623Y327427D01*
X417532Y327467D01*
X417439Y327503D01*
X417345Y327536D01*
X417249Y327565D01*
X417153Y327590D01*
X417056Y327611D01*
X416957Y327629D01*
X416859Y327642D01*
X416759Y327652D01*
X416660Y327658D01*
X416560Y327660D01*
X370840Y327660D02*
X370740Y327658D01*
X370641Y327652D01*
X370541Y327642D01*
X370443Y327629D01*
X370344Y327611D01*
X370247Y327590D01*
X370151Y327565D01*
X370055Y327536D01*
X369961Y327503D01*
X369868Y327467D01*
X369777Y327427D01*
X369687Y327383D01*
X369599Y327336D01*
X369513Y327286D01*
X369429Y327232D01*
X369347Y327175D01*
X369268Y327115D01*
X369190Y327051D01*
X369116Y326985D01*
X369044Y326916D01*
X368975Y326844D01*
X368909Y326770D01*
X368845Y326692D01*
X368785Y326613D01*
X368728Y326531D01*
X368674Y326447D01*
X368624Y326361D01*
X368577Y326273D01*
X368533Y326183D01*
X368493Y326092D01*
X368457Y325999D01*
X368424Y325905D01*
X368395Y325809D01*
X368370Y325713D01*
X368349Y325616D01*
X368331Y325517D01*
X368318Y325419D01*
X368308Y325319D01*
X368302Y325220D01*
X368300Y325120D01*
X368300Y309880D02*
X368302Y309780D01*
X368308Y309681D01*
X368318Y309581D01*
X368331Y309483D01*
X368349Y309384D01*
X368370Y309287D01*
X368395Y309191D01*
X368424Y309095D01*
X368457Y309001D01*
X368493Y308908D01*
X368533Y308817D01*
X368577Y308727D01*
X368624Y308639D01*
X368674Y308553D01*
X368728Y308469D01*
X368785Y308387D01*
X368845Y308308D01*
X368909Y308230D01*
X368975Y308156D01*
X369044Y308084D01*
X369116Y308015D01*
X369190Y307949D01*
X369268Y307885D01*
X369347Y307825D01*
X369429Y307768D01*
X369513Y307714D01*
X369599Y307664D01*
X369687Y307617D01*
X369777Y307573D01*
X369868Y307533D01*
X369961Y307497D01*
X370055Y307464D01*
X370151Y307435D01*
X370247Y307410D01*
X370344Y307389D01*
X370443Y307371D01*
X370541Y307358D01*
X370641Y307348D01*
X370740Y307342D01*
X370840Y307340D01*
X419100Y309880D02*
X419100Y325120D01*
X416560Y307340D02*
X412750Y307340D01*
X411480Y308610D01*
X412750Y327660D02*
X416560Y327660D01*
X412750Y327660D02*
X411480Y326390D01*
X375920Y308610D02*
X374650Y307340D01*
X375920Y308610D02*
X411480Y308610D01*
X375920Y326390D02*
X374650Y327660D01*
X375920Y326390D02*
X411480Y326390D01*
X374650Y307340D02*
X370840Y307340D01*
X370840Y327660D02*
X374650Y327660D01*
X368300Y325120D02*
X368300Y309880D01*
D14*
X366395Y317500D03*
X421005Y317500D03*
D10*
X328627Y316611D02*
X328627Y307975D01*
X328627Y316611D02*
X331026Y316611D01*
X331123Y316609D01*
X331219Y316603D01*
X331315Y316594D01*
X331411Y316580D01*
X331506Y316563D01*
X331600Y316541D01*
X331693Y316516D01*
X331786Y316488D01*
X331877Y316455D01*
X331966Y316419D01*
X332054Y316379D01*
X332141Y316336D01*
X332226Y316290D01*
X332308Y316240D01*
X332389Y316186D01*
X332467Y316130D01*
X332543Y316070D01*
X332617Y316008D01*
X332688Y315942D01*
X332756Y315874D01*
X332822Y315803D01*
X332884Y315729D01*
X332944Y315653D01*
X333000Y315575D01*
X333054Y315494D01*
X333104Y315412D01*
X333150Y315327D01*
X333193Y315240D01*
X333233Y315152D01*
X333269Y315063D01*
X333302Y314972D01*
X333330Y314879D01*
X333355Y314786D01*
X333377Y314692D01*
X333394Y314597D01*
X333408Y314501D01*
X333417Y314405D01*
X333423Y314309D01*
X333425Y314212D01*
X333423Y314115D01*
X333417Y314019D01*
X333408Y313923D01*
X333394Y313827D01*
X333377Y313732D01*
X333355Y313638D01*
X333330Y313545D01*
X333302Y313452D01*
X333269Y313361D01*
X333233Y313272D01*
X333193Y313184D01*
X333150Y313097D01*
X333104Y313013D01*
X333054Y312930D01*
X333000Y312849D01*
X332944Y312771D01*
X332884Y312695D01*
X332822Y312621D01*
X332756Y312550D01*
X332688Y312482D01*
X332617Y312416D01*
X332543Y312354D01*
X332467Y312294D01*
X332389Y312238D01*
X332308Y312184D01*
X332226Y312134D01*
X332141Y312088D01*
X332054Y312045D01*
X331966Y312005D01*
X331877Y311969D01*
X331786Y311936D01*
X331693Y311908D01*
X331600Y311883D01*
X331506Y311861D01*
X331411Y311844D01*
X331315Y311830D01*
X331219Y311821D01*
X331123Y311815D01*
X331026Y311813D01*
X328627Y311813D01*
X331505Y311813D02*
X333424Y307975D01*
X337467Y307975D02*
X340346Y307975D01*
X340432Y307977D01*
X340518Y307983D01*
X340604Y307992D01*
X340689Y308006D01*
X340773Y308023D01*
X340857Y308044D01*
X340939Y308069D01*
X341020Y308097D01*
X341100Y308129D01*
X341179Y308165D01*
X341255Y308204D01*
X341330Y308247D01*
X341403Y308292D01*
X341474Y308342D01*
X341542Y308394D01*
X341609Y308449D01*
X341672Y308507D01*
X341733Y308568D01*
X341791Y308631D01*
X341846Y308698D01*
X341899Y308766D01*
X341948Y308837D01*
X341993Y308910D01*
X342036Y308985D01*
X342075Y309061D01*
X342111Y309140D01*
X342143Y309220D01*
X342171Y309301D01*
X342196Y309384D01*
X342217Y309467D01*
X342234Y309551D01*
X342248Y309636D01*
X342257Y309722D01*
X342263Y309808D01*
X342265Y309894D01*
X342265Y310854D01*
X342263Y310940D01*
X342257Y311026D01*
X342248Y311112D01*
X342234Y311197D01*
X342217Y311281D01*
X342196Y311365D01*
X342171Y311447D01*
X342143Y311528D01*
X342111Y311608D01*
X342075Y311687D01*
X342036Y311763D01*
X341993Y311838D01*
X341948Y311911D01*
X341899Y311982D01*
X341846Y312050D01*
X341791Y312117D01*
X341733Y312180D01*
X341672Y312241D01*
X341609Y312299D01*
X341542Y312354D01*
X341474Y312407D01*
X341403Y312456D01*
X341330Y312501D01*
X341255Y312544D01*
X341179Y312583D01*
X341100Y312619D01*
X341020Y312651D01*
X340939Y312679D01*
X340857Y312704D01*
X340773Y312725D01*
X340689Y312742D01*
X340604Y312756D01*
X340518Y312765D01*
X340432Y312771D01*
X340346Y312773D01*
X337467Y312773D01*
X337467Y316611D01*
X342265Y316611D01*
X387332Y319772D02*
X389731Y321691D01*
X389731Y313055D01*
X387332Y313055D02*
X392130Y313055D01*
X396247Y317373D02*
X396249Y317543D01*
X396255Y317713D01*
X396265Y317882D01*
X396279Y318052D01*
X396298Y318221D01*
X396320Y318389D01*
X396346Y318557D01*
X396376Y318724D01*
X396411Y318890D01*
X396449Y319056D01*
X396491Y319221D01*
X396537Y319384D01*
X396587Y319547D01*
X396641Y319708D01*
X396698Y319868D01*
X396760Y320026D01*
X396825Y320183D01*
X396894Y320338D01*
X396967Y320492D01*
X396995Y320568D01*
X397027Y320643D01*
X397062Y320717D01*
X397100Y320789D01*
X397142Y320859D01*
X397187Y320927D01*
X397235Y320993D01*
X397286Y321057D01*
X397340Y321118D01*
X397396Y321177D01*
X397456Y321233D01*
X397517Y321286D01*
X397581Y321336D01*
X397648Y321384D01*
X397716Y321428D01*
X397787Y321469D01*
X397859Y321507D01*
X397933Y321541D01*
X398008Y321572D01*
X398085Y321600D01*
X398163Y321624D01*
X398242Y321644D01*
X398322Y321661D01*
X398402Y321674D01*
X398483Y321684D01*
X398564Y321689D01*
X398646Y321691D01*
X398728Y321689D01*
X398809Y321684D01*
X398890Y321674D01*
X398970Y321661D01*
X399050Y321644D01*
X399129Y321624D01*
X399207Y321600D01*
X399284Y321572D01*
X399359Y321541D01*
X399433Y321507D01*
X399505Y321469D01*
X399576Y321428D01*
X399644Y321384D01*
X399711Y321336D01*
X399775Y321286D01*
X399836Y321233D01*
X399896Y321177D01*
X399952Y321118D01*
X400006Y321057D01*
X400057Y320993D01*
X400105Y320927D01*
X400150Y320859D01*
X400192Y320789D01*
X400230Y320717D01*
X400265Y320643D01*
X400297Y320568D01*
X400325Y320492D01*
X400398Y320338D01*
X400467Y320183D01*
X400532Y320026D01*
X400594Y319868D01*
X400651Y319708D01*
X400705Y319547D01*
X400755Y319384D01*
X400801Y319221D01*
X400843Y319056D01*
X400881Y318890D01*
X400916Y318724D01*
X400946Y318557D01*
X400972Y318389D01*
X400994Y318221D01*
X401013Y318052D01*
X401027Y317882D01*
X401037Y317713D01*
X401043Y317543D01*
X401045Y317373D01*
X396247Y317373D02*
X396249Y317203D01*
X396255Y317033D01*
X396265Y316864D01*
X396279Y316694D01*
X396298Y316525D01*
X396320Y316357D01*
X396346Y316189D01*
X396376Y316022D01*
X396411Y315856D01*
X396449Y315690D01*
X396491Y315525D01*
X396537Y315362D01*
X396587Y315200D01*
X396641Y315038D01*
X396698Y314879D01*
X396760Y314720D01*
X396825Y314563D01*
X396894Y314408D01*
X396967Y314254D01*
X396995Y314178D01*
X397027Y314103D01*
X397062Y314029D01*
X397100Y313957D01*
X397142Y313887D01*
X397187Y313819D01*
X397235Y313753D01*
X397286Y313689D01*
X397340Y313628D01*
X397396Y313569D01*
X397456Y313513D01*
X397517Y313460D01*
X397581Y313410D01*
X397648Y313362D01*
X397716Y313318D01*
X397787Y313277D01*
X397859Y313239D01*
X397933Y313205D01*
X398008Y313174D01*
X398085Y313146D01*
X398163Y313122D01*
X398242Y313102D01*
X398322Y313085D01*
X398402Y313072D01*
X398483Y313062D01*
X398564Y313057D01*
X398646Y313055D01*
X400325Y314254D02*
X400398Y314408D01*
X400467Y314563D01*
X400532Y314720D01*
X400594Y314879D01*
X400651Y315038D01*
X400705Y315200D01*
X400755Y315362D01*
X400801Y315525D01*
X400843Y315690D01*
X400881Y315856D01*
X400916Y316022D01*
X400946Y316189D01*
X400972Y316357D01*
X400994Y316525D01*
X401013Y316694D01*
X401027Y316864D01*
X401037Y317033D01*
X401043Y317203D01*
X401045Y317373D01*
X400325Y314254D02*
X400297Y314178D01*
X400265Y314103D01*
X400230Y314029D01*
X400192Y313957D01*
X400150Y313887D01*
X400105Y313819D01*
X400057Y313753D01*
X400006Y313689D01*
X399952Y313628D01*
X399896Y313569D01*
X399836Y313513D01*
X399775Y313460D01*
X399711Y313410D01*
X399644Y313362D01*
X399576Y313318D01*
X399505Y313277D01*
X399433Y313239D01*
X399359Y313205D01*
X399284Y313174D01*
X399207Y313146D01*
X399129Y313122D01*
X399050Y313102D01*
X398970Y313085D01*
X398890Y313072D01*
X398809Y313062D01*
X398728Y313057D01*
X398646Y313055D01*
X396727Y314974D02*
X400565Y319772D01*
X405483Y321691D02*
X405483Y313055D01*
X405483Y315934D02*
X409321Y318812D01*
X407162Y317133D02*
X409321Y313055D01*
D12*
X419100Y284480D02*
X419098Y284380D01*
X419092Y284281D01*
X419082Y284181D01*
X419069Y284083D01*
X419051Y283984D01*
X419030Y283887D01*
X419005Y283791D01*
X418976Y283695D01*
X418943Y283601D01*
X418907Y283508D01*
X418867Y283417D01*
X418823Y283327D01*
X418776Y283239D01*
X418726Y283153D01*
X418672Y283069D01*
X418615Y282987D01*
X418555Y282908D01*
X418491Y282830D01*
X418425Y282756D01*
X418356Y282684D01*
X418284Y282615D01*
X418210Y282549D01*
X418132Y282485D01*
X418053Y282425D01*
X417971Y282368D01*
X417887Y282314D01*
X417801Y282264D01*
X417713Y282217D01*
X417623Y282173D01*
X417532Y282133D01*
X417439Y282097D01*
X417345Y282064D01*
X417249Y282035D01*
X417153Y282010D01*
X417056Y281989D01*
X416957Y281971D01*
X416859Y281958D01*
X416759Y281948D01*
X416660Y281942D01*
X416560Y281940D01*
X419100Y299720D02*
X419098Y299820D01*
X419092Y299919D01*
X419082Y300019D01*
X419069Y300117D01*
X419051Y300216D01*
X419030Y300313D01*
X419005Y300409D01*
X418976Y300505D01*
X418943Y300599D01*
X418907Y300692D01*
X418867Y300783D01*
X418823Y300873D01*
X418776Y300961D01*
X418726Y301047D01*
X418672Y301131D01*
X418615Y301213D01*
X418555Y301292D01*
X418491Y301370D01*
X418425Y301444D01*
X418356Y301516D01*
X418284Y301585D01*
X418210Y301651D01*
X418132Y301715D01*
X418053Y301775D01*
X417971Y301832D01*
X417887Y301886D01*
X417801Y301936D01*
X417713Y301983D01*
X417623Y302027D01*
X417532Y302067D01*
X417439Y302103D01*
X417345Y302136D01*
X417249Y302165D01*
X417153Y302190D01*
X417056Y302211D01*
X416957Y302229D01*
X416859Y302242D01*
X416759Y302252D01*
X416660Y302258D01*
X416560Y302260D01*
X370840Y302260D02*
X370740Y302258D01*
X370641Y302252D01*
X370541Y302242D01*
X370443Y302229D01*
X370344Y302211D01*
X370247Y302190D01*
X370151Y302165D01*
X370055Y302136D01*
X369961Y302103D01*
X369868Y302067D01*
X369777Y302027D01*
X369687Y301983D01*
X369599Y301936D01*
X369513Y301886D01*
X369429Y301832D01*
X369347Y301775D01*
X369268Y301715D01*
X369190Y301651D01*
X369116Y301585D01*
X369044Y301516D01*
X368975Y301444D01*
X368909Y301370D01*
X368845Y301292D01*
X368785Y301213D01*
X368728Y301131D01*
X368674Y301047D01*
X368624Y300961D01*
X368577Y300873D01*
X368533Y300783D01*
X368493Y300692D01*
X368457Y300599D01*
X368424Y300505D01*
X368395Y300409D01*
X368370Y300313D01*
X368349Y300216D01*
X368331Y300117D01*
X368318Y300019D01*
X368308Y299919D01*
X368302Y299820D01*
X368300Y299720D01*
X368300Y284480D02*
X368302Y284380D01*
X368308Y284281D01*
X368318Y284181D01*
X368331Y284083D01*
X368349Y283984D01*
X368370Y283887D01*
X368395Y283791D01*
X368424Y283695D01*
X368457Y283601D01*
X368493Y283508D01*
X368533Y283417D01*
X368577Y283327D01*
X368624Y283239D01*
X368674Y283153D01*
X368728Y283069D01*
X368785Y282987D01*
X368845Y282908D01*
X368909Y282830D01*
X368975Y282756D01*
X369044Y282684D01*
X369116Y282615D01*
X369190Y282549D01*
X369268Y282485D01*
X369347Y282425D01*
X369429Y282368D01*
X369513Y282314D01*
X369599Y282264D01*
X369687Y282217D01*
X369777Y282173D01*
X369868Y282133D01*
X369961Y282097D01*
X370055Y282064D01*
X370151Y282035D01*
X370247Y282010D01*
X370344Y281989D01*
X370443Y281971D01*
X370541Y281958D01*
X370641Y281948D01*
X370740Y281942D01*
X370840Y281940D01*
X419100Y284480D02*
X419100Y299720D01*
X416560Y281940D02*
X412750Y281940D01*
X411480Y283210D01*
X412750Y302260D02*
X416560Y302260D01*
X412750Y302260D02*
X411480Y300990D01*
X375920Y283210D02*
X374650Y281940D01*
X375920Y283210D02*
X411480Y283210D01*
X375920Y300990D02*
X374650Y302260D01*
X375920Y300990D02*
X411480Y300990D01*
X374650Y281940D02*
X370840Y281940D01*
X370840Y302260D02*
X374650Y302260D01*
X368300Y299720D02*
X368300Y284480D01*
D14*
X366395Y292100D03*
X421005Y292100D03*
D10*
X328627Y291211D02*
X328627Y282575D01*
X328627Y291211D02*
X331026Y291211D01*
X331123Y291209D01*
X331219Y291203D01*
X331315Y291194D01*
X331411Y291180D01*
X331506Y291163D01*
X331600Y291141D01*
X331693Y291116D01*
X331786Y291088D01*
X331877Y291055D01*
X331966Y291019D01*
X332054Y290979D01*
X332141Y290936D01*
X332226Y290890D01*
X332308Y290840D01*
X332389Y290786D01*
X332467Y290730D01*
X332543Y290670D01*
X332617Y290608D01*
X332688Y290542D01*
X332756Y290474D01*
X332822Y290403D01*
X332884Y290329D01*
X332944Y290253D01*
X333000Y290175D01*
X333054Y290094D01*
X333104Y290012D01*
X333150Y289927D01*
X333193Y289840D01*
X333233Y289752D01*
X333269Y289663D01*
X333302Y289572D01*
X333330Y289479D01*
X333355Y289386D01*
X333377Y289292D01*
X333394Y289197D01*
X333408Y289101D01*
X333417Y289005D01*
X333423Y288909D01*
X333425Y288812D01*
X333423Y288715D01*
X333417Y288619D01*
X333408Y288523D01*
X333394Y288427D01*
X333377Y288332D01*
X333355Y288238D01*
X333330Y288145D01*
X333302Y288052D01*
X333269Y287961D01*
X333233Y287872D01*
X333193Y287784D01*
X333150Y287697D01*
X333104Y287613D01*
X333054Y287530D01*
X333000Y287449D01*
X332944Y287371D01*
X332884Y287295D01*
X332822Y287221D01*
X332756Y287150D01*
X332688Y287082D01*
X332617Y287016D01*
X332543Y286954D01*
X332467Y286894D01*
X332389Y286838D01*
X332308Y286784D01*
X332226Y286734D01*
X332141Y286688D01*
X332054Y286645D01*
X331966Y286605D01*
X331877Y286569D01*
X331786Y286536D01*
X331693Y286508D01*
X331600Y286483D01*
X331506Y286461D01*
X331411Y286444D01*
X331315Y286430D01*
X331219Y286421D01*
X331123Y286415D01*
X331026Y286413D01*
X328627Y286413D01*
X331505Y286413D02*
X333424Y282575D01*
X337467Y287373D02*
X340346Y287373D01*
X340432Y287371D01*
X340518Y287365D01*
X340604Y287356D01*
X340689Y287342D01*
X340773Y287325D01*
X340857Y287304D01*
X340939Y287279D01*
X341020Y287251D01*
X341100Y287219D01*
X341179Y287183D01*
X341255Y287144D01*
X341330Y287101D01*
X341403Y287056D01*
X341474Y287007D01*
X341542Y286954D01*
X341609Y286899D01*
X341672Y286841D01*
X341733Y286780D01*
X341791Y286717D01*
X341846Y286650D01*
X341899Y286582D01*
X341948Y286511D01*
X341993Y286438D01*
X342036Y286363D01*
X342075Y286287D01*
X342111Y286208D01*
X342143Y286128D01*
X342171Y286047D01*
X342196Y285965D01*
X342217Y285881D01*
X342234Y285797D01*
X342248Y285712D01*
X342257Y285626D01*
X342263Y285540D01*
X342265Y285454D01*
X342265Y284974D01*
X342263Y284877D01*
X342257Y284781D01*
X342248Y284685D01*
X342234Y284589D01*
X342217Y284494D01*
X342195Y284400D01*
X342170Y284307D01*
X342142Y284214D01*
X342109Y284123D01*
X342073Y284034D01*
X342033Y283946D01*
X341990Y283859D01*
X341944Y283775D01*
X341894Y283692D01*
X341840Y283611D01*
X341784Y283533D01*
X341724Y283457D01*
X341662Y283383D01*
X341596Y283312D01*
X341528Y283244D01*
X341457Y283178D01*
X341383Y283116D01*
X341307Y283056D01*
X341229Y283000D01*
X341148Y282946D01*
X341066Y282896D01*
X340981Y282850D01*
X340894Y282807D01*
X340806Y282767D01*
X340717Y282731D01*
X340626Y282698D01*
X340533Y282670D01*
X340440Y282645D01*
X340346Y282623D01*
X340251Y282606D01*
X340155Y282592D01*
X340059Y282583D01*
X339963Y282577D01*
X339866Y282575D01*
X339769Y282577D01*
X339673Y282583D01*
X339577Y282592D01*
X339481Y282606D01*
X339386Y282623D01*
X339292Y282645D01*
X339199Y282670D01*
X339106Y282698D01*
X339015Y282731D01*
X338926Y282767D01*
X338838Y282807D01*
X338751Y282850D01*
X338667Y282896D01*
X338584Y282946D01*
X338503Y283000D01*
X338425Y283056D01*
X338349Y283116D01*
X338275Y283178D01*
X338204Y283244D01*
X338136Y283312D01*
X338070Y283383D01*
X338008Y283457D01*
X337948Y283533D01*
X337892Y283611D01*
X337838Y283692D01*
X337788Y283775D01*
X337742Y283859D01*
X337699Y283946D01*
X337659Y284034D01*
X337623Y284123D01*
X337590Y284214D01*
X337562Y284307D01*
X337537Y284400D01*
X337515Y284494D01*
X337498Y284589D01*
X337484Y284685D01*
X337475Y284781D01*
X337469Y284877D01*
X337467Y284974D01*
X337467Y287373D01*
X337468Y287373D02*
X337470Y287496D01*
X337476Y287619D01*
X337486Y287742D01*
X337500Y287864D01*
X337517Y287986D01*
X337539Y288107D01*
X337564Y288227D01*
X337594Y288347D01*
X337627Y288465D01*
X337664Y288582D01*
X337704Y288699D01*
X337748Y288813D01*
X337796Y288927D01*
X337848Y289038D01*
X337903Y289148D01*
X337962Y289256D01*
X338024Y289363D01*
X338089Y289467D01*
X338158Y289569D01*
X338230Y289669D01*
X338305Y289766D01*
X338384Y289861D01*
X338465Y289953D01*
X338549Y290043D01*
X338636Y290130D01*
X338726Y290214D01*
X338818Y290295D01*
X338913Y290374D01*
X339010Y290449D01*
X339110Y290521D01*
X339212Y290590D01*
X339316Y290655D01*
X339423Y290717D01*
X339531Y290776D01*
X339641Y290831D01*
X339752Y290883D01*
X339866Y290930D01*
X339980Y290975D01*
X340097Y291015D01*
X340214Y291052D01*
X340332Y291085D01*
X340452Y291115D01*
X340572Y291140D01*
X340693Y291162D01*
X340815Y291179D01*
X340937Y291193D01*
X341060Y291203D01*
X341183Y291209D01*
X341306Y291211D01*
X395608Y289574D02*
X397527Y296291D01*
X395608Y289574D02*
X400406Y289574D01*
X398966Y291493D02*
X398966Y287655D01*
X404523Y295331D02*
X404523Y296291D01*
X409321Y296291D01*
X406922Y287655D01*
D12*
X349250Y139700D02*
X336550Y139700D01*
X349250Y139700D02*
X355600Y133350D01*
X355600Y120650D02*
X349250Y114300D01*
X355600Y133350D02*
X361950Y139700D01*
X374650Y139700D01*
X381000Y133350D01*
X381000Y120650D02*
X374650Y114300D01*
X361950Y114300D01*
X355600Y120650D01*
X330200Y120650D02*
X330200Y133350D01*
X336550Y139700D01*
X330200Y120650D02*
X336550Y114300D01*
X349250Y114300D01*
X381000Y133350D02*
X387350Y139700D01*
X400050Y139700D01*
X406400Y133350D01*
X406400Y120650D02*
X400050Y114300D01*
X387350Y114300D01*
X381000Y120650D01*
X412750Y139700D02*
X425450Y139700D01*
X431800Y133350D01*
X431800Y120650D01*
X425450Y114300D01*
X406400Y133350D02*
X412750Y139700D01*
X406400Y120650D02*
X412750Y114300D01*
X425450Y114300D01*
D10*
X322580Y132715D02*
X319405Y130175D01*
X322580Y132715D02*
X322580Y121285D01*
X319405Y121285D02*
X325755Y121285D01*
X434975Y123825D02*
X437515Y132715D01*
X434975Y123825D02*
X441325Y123825D01*
X439420Y126365D02*
X439420Y121285D01*
X291900Y-17500D02*
X291900Y526500D01*
X291900Y-17500D02*
X12900Y-17500D01*
X12900Y526500D01*
X291900Y526500D01*
D15*
X297000Y55000D02*
X297002Y55075D01*
X297008Y55149D01*
X297018Y55223D01*
X297032Y55296D01*
X297049Y55368D01*
X297071Y55440D01*
X297096Y55510D01*
X297125Y55578D01*
X297158Y55646D01*
X297194Y55711D01*
X297233Y55774D01*
X297276Y55835D01*
X297322Y55894D01*
X297371Y55950D01*
X297423Y56003D01*
X297478Y56054D01*
X297535Y56101D01*
X297595Y56146D01*
X297657Y56187D01*
X297722Y56225D01*
X297788Y56259D01*
X297856Y56290D01*
X297925Y56317D01*
X297996Y56340D01*
X298068Y56360D01*
X298141Y56376D01*
X298214Y56388D01*
X298288Y56396D01*
X298363Y56400D01*
X298437Y56400D01*
X298512Y56396D01*
X298586Y56388D01*
X298659Y56376D01*
X298732Y56360D01*
X298804Y56340D01*
X298875Y56317D01*
X298944Y56290D01*
X299012Y56259D01*
X299078Y56225D01*
X299143Y56187D01*
X299205Y56146D01*
X299265Y56101D01*
X299322Y56054D01*
X299377Y56003D01*
X299429Y55950D01*
X299478Y55894D01*
X299524Y55835D01*
X299567Y55774D01*
X299606Y55711D01*
X299642Y55646D01*
X299675Y55578D01*
X299704Y55510D01*
X299729Y55440D01*
X299751Y55368D01*
X299768Y55296D01*
X299782Y55223D01*
X299792Y55149D01*
X299798Y55075D01*
X299800Y55000D01*
X299798Y54925D01*
X299792Y54851D01*
X299782Y54777D01*
X299768Y54704D01*
X299751Y54632D01*
X299729Y54560D01*
X299704Y54490D01*
X299675Y54422D01*
X299642Y54354D01*
X299606Y54289D01*
X299567Y54226D01*
X299524Y54165D01*
X299478Y54106D01*
X299429Y54050D01*
X299377Y53997D01*
X299322Y53946D01*
X299265Y53899D01*
X299205Y53854D01*
X299143Y53813D01*
X299078Y53775D01*
X299012Y53741D01*
X298944Y53710D01*
X298875Y53683D01*
X298804Y53660D01*
X298732Y53640D01*
X298659Y53624D01*
X298586Y53612D01*
X298512Y53604D01*
X298437Y53600D01*
X298363Y53600D01*
X298288Y53604D01*
X298214Y53612D01*
X298141Y53624D01*
X298068Y53640D01*
X297996Y53660D01*
X297925Y53683D01*
X297856Y53710D01*
X297788Y53741D01*
X297722Y53775D01*
X297657Y53813D01*
X297595Y53854D01*
X297535Y53899D01*
X297478Y53946D01*
X297423Y53997D01*
X297371Y54050D01*
X297322Y54106D01*
X297276Y54165D01*
X297233Y54226D01*
X297194Y54289D01*
X297158Y54354D01*
X297125Y54422D01*
X297096Y54490D01*
X297071Y54560D01*
X297049Y54632D01*
X297032Y54704D01*
X297018Y54777D01*
X297008Y54851D01*
X297002Y54925D01*
X297000Y55000D01*
D16*
X839835Y148760D02*
X897335Y148760D01*
X839835Y148760D02*
X839835Y74760D01*
X897335Y74760D01*
X897335Y148760D01*
D17*
X896760Y98760D02*
X891760Y98760D01*
X891760Y124760D02*
X896760Y124760D01*
X891760Y124760D02*
X891760Y98760D01*
D10*
X824840Y244460D02*
X444840Y244460D01*
X444840Y14460D01*
X824840Y14460D01*
X824840Y244460D01*
X569740Y411480D02*
X459740Y411480D01*
X569740Y411480D02*
X569740Y426480D01*
X579740Y426480D01*
X579740Y441480D01*
X579740Y501480D01*
X579740Y516480D01*
X569740Y516480D01*
X569740Y531480D01*
X459740Y531480D01*
X459740Y411480D01*
X579740Y501480D02*
X599740Y501480D01*
X599740Y441480D01*
X579740Y441480D01*
X569740Y269240D02*
X459740Y269240D01*
X569740Y269240D02*
X569740Y284240D01*
X579740Y284240D01*
X579740Y299240D01*
X579740Y359240D01*
X579740Y374240D01*
X569740Y374240D01*
X569740Y389240D01*
X459740Y389240D01*
X459740Y269240D01*
X579740Y359240D02*
X599740Y359240D01*
X599740Y299240D01*
X579740Y299240D01*
M02*
